<?xml version="1.0" encoding="UTF-8"?><svg id="Layer_18" xmlns="http://www.w3.org/2000/svg" width="371" height="583" viewBox="0 0 371 583"><defs><style>.cls-1{fill:#f98869;}.cls-2{fill:#001300;}.cls-3{fill:#fbd3e0;}.cls-4{fill:#e3e4df;}.cls-5{fill:#fff;}.cls-6{fill:#f389a6;}.cls-7{fill:#fdf9f8;}.cls-8{fill:#9fc89e;}.cls-9{fill:#9bbda8;}.cls-10{fill:#bddda1;}.cls-11{fill:#d1e3e3;}.cls-12{fill:#e1b3bc;}.cls-13{fill:#daefef;}.cls-14{fill:#262323;}.cls-15{fill:#352f15;}</style></defs><path class="cls-11" d="m280.56,87.08c-98.2,6.04-163.69,27.06-240.42,98.06,101.94-5.41,163.89-37.61,240.42-98.06Z"/><path class="cls-14" d="m38.78,185.72l1.02-.94c37.89-35.06,73.58-58.41,112.32-73.49,35.46-13.8,75.06-21.42,128.41-24.71l1.59-.1-1.25.99c-42.97,33.93-76.1,54.79-110.8,69.74-38.9,16.76-80.18,25.79-129.91,28.43l-1.38.07Zm240.21-98.04c-52.44,3.33-91.51,10.91-126.51,24.54-38.27,14.9-73.57,37.91-110.98,72.35,48.99-2.73,89.76-11.72,128.18-28.28,34.27-14.77,67.03-35.32,109.31-68.61Z"/><path class="cls-9" d="m302.41,85.99c-7.47.29-14.74.65-21.84,1.09-76.54,60.45-138.48,92.65-240.42,98.06-3.19,2.95-6.4,5.98-9.63,9.11.06.12.11.23.17.35,113.99-2.86,184.55-38.88,271.8-108.5-.02-.04-.05-.07-.07-.11Z"/><path class="cls-14" d="m30.37,195.11l-.48-.96.26-.25c3.11-3,6.35-6.07,9.64-9.12l.13-.12h.18c49.61-2.64,90.78-11.65,129.57-28.36,34.61-14.91,67.68-35.73,110.57-69.61l.12-.1h.16c6.93-.44,14.28-.8,21.86-1.1h.28s.44.67.44.67l-.32.33c-83.41,66.56-154.67,105.66-272.1,108.61h-.32Zm9.97-9.47c-3.05,2.82-6.05,5.66-8.94,8.45,116.22-3.07,187.09-41.77,269.71-107.54-7.05.29-13.89.63-20.37,1.03-42.9,33.88-76.01,54.71-110.67,69.64-38.85,16.74-80.08,25.77-129.73,28.42Z"/><path class="cls-13" d="m302.36,86.83c-83.04,66.2-154.13,105.15-270.89,108.25,6.81,13.63,12.68,26.4,17.79,38.71,19.05-10.26,49.05-19.38,82.14-22.33,36.74-3.28,52.71-4.51,72.21-1.94,27.05-25.58,58.08-41.91,90.19-47.39,5.67-.97,11.37-1.6,17.08-1.88,1.53-.08,3.07-.12,4.62-.12.29,0,.58.01.87.01,1.24,0,2.49.02,3.74.07.5.02.99.06,1.49.09,1.04.05,2.07.11,3.11.19.64.05,1.27.13,1.9.19.78.08,1.56.14,2.34.24-5.58-30.99-14.52-55.91-26.6-74.08Z"/><path class="cls-14" d="m330.18,162.07l-.12-.67c.04.22.07.45.11.67h0Z"/><path class="cls-14" d="m31.48,195.08c116.75-3.1,187.85-42.05,270.89-108.25,12.07,18.18,21.02,43.1,26.6,74.08-.78-.1-1.56-.16-2.34-.24,1.01.1,2.01.19,3.02.32l.36.05c-5.64-31.52-14.76-56.83-27.11-75.22l-.3-.45-.42.34c-83.24,66.42-154.36,105.45-271.5,108.39l-.79.02.35.7c6.97,13.91,12.96,26.92,18.15,39.45.29-.16.59-.32.88-.48-5.11-12.31-10.98-25.08-17.79-38.71Z"/><path class="cls-12" d="m131.41,211.46c-33.09,2.96-63.09,12.08-82.14,22.33,1.7,4.08,3.31,8.11,4.84,12.11.77.24,1.52.48,2.27.72.64.2,1.29.4,1.91.61.83.27,1.64.53,2.46.8.56.18,1.14.37,1.7.55.58.19,1.15.38,1.73.57,2.1.69,4.17,1.38,6.2,2.06,39.03,13.05,60.54,20.23,112.6-20.5.74-.58,1.47-1.1,2.22-1.59,5.89-7.03,12.04-13.56,18.42-19.59-19.5-2.57-35.47-1.34-72.21,1.94Z"/><path class="cls-14" d="m115.34,261.96c-14.36,0-28.07-4.58-45.11-10.28-2.03-.68-4.1-1.37-6.2-2.06l-10.3-3.32-.09-.23c-1.53-3.97-3.15-8.04-4.84-12.09l-.17-.42.4-.21c20.97-11.29,51.74-19.66,82.33-22.39h0c36.89-3.29,52.65-4.53,72.32-1.94l1.04.14-.76.72c-6.37,6.02-12.55,12.6-18.38,19.55l-.11.1c-.75.49-1.46,1-2.18,1.57-29.55,23.12-49.3,30.86-67.96,30.86Zm-60.85-16.47l9.85,3.18c2.1.69,4.17,1.38,6.21,2.06,38.87,12.99,60.28,20.15,112.14-20.42.73-.57,1.44-1.09,2.19-1.58,5.6-6.68,11.53-13.02,17.65-18.85-19.09-2.4-34.91-1.15-71.06,2.08h0c-30.27,2.7-60.71,10.94-81.55,22.06,1.59,3.85,3.14,7.7,4.59,11.48Z"/><path class="cls-1" d="m70.39,251.21c39.03,13.05,60.54,20.23,112.6-20.5-52.06,40.73-73.57,33.55-112.6,20.5Z"/><path class="cls-10" d="m213.24,235.4c-11.31,4.94-22.8,9.35-34.32,13.76-29.89-75.1-60.99-146.31-91.33-221.23,9.57-12.09,22.7-14.76,36.01-13.97,30.42,75.08,59.17,146.38,89.64,221.44Z"/><path class="cls-14" d="m178.63,249.8l-.18-.46c-16.48-41.41-33.63-82.37-50.22-121.97-13.52-32.28-27.5-65.65-41.11-99.25l-.11-.27.18-.23c8.3-10.49,20.23-15.11,36.43-14.16l.31.02.12.29c12.26,30.27,24.26,59.93,36.2,89.46,17.33,42.86,35.25,87.18,53.44,131.97l.18.45-.45.2c-11.52,5.04-23.12,9.47-34.34,13.77l-.46.18ZM88.16,28.02c13.57,33.5,27.51,66.78,40.99,98.97,16.53,39.46,33.62,80.26,50.05,121.53,10.92-4.18,22.2-8.5,33.39-13.38-18.12-44.64-35.98-88.81-53.26-131.52-11.9-29.44-23.86-59-36.08-89.17-15.59-.86-27.07,3.58-35.09,13.57Z"/><path class="cls-8" d="m294.8,76.04c.04-.1.08-.2.12-.29-.08,0-.17.01-.25.02-.04,0-.08,0-.11,0-13.03.83-25.45,1.85-37.37,3.1-93.09,9.82-155.29,34.64-229.71,106.79-.29.29-.59.57-.88.85,1.34,2.6,2.64,5.17,3.92,7.73,3.23-3.13,6.44-6.16,9.63-9.11,76.73-71,142.23-92.02,240.42-98.06,7.11-.44,14.38-.8,21.84-1.09-2.39-3.56-4.92-6.89-7.61-9.95Z"/><path class="cls-14" d="m30.36,195.09l-.31-.61c-1.28-2.56-2.58-5.13-3.92-7.73l-.17-.33,1.15-1.11c70.64-68.49,130.83-96.47,230.01-106.93,11.58-1.22,23.81-2.24,37.4-3.11l.14.37-.03-.37,1.06-.07-.31.75c2.54,2.92,5.05,6.21,7.44,9.76l.5.74-.9.04c-7.56.3-14.91.67-21.83,1.09-53.24,3.28-92.75,10.88-128.11,24.64-38.62,15.03-74.21,38.32-112.01,73.29-3.29,3.04-6.52,6.1-9.62,9.1l-.49.47Zm-3.17-8.46c1.18,2.28,2.32,4.55,3.45,6.8,2.96-2.85,6.03-5.76,9.15-8.64,37.89-35.06,73.58-58.41,112.32-73.49,35.46-13.8,75.06-21.42,128.41-24.71,6.66-.41,13.7-.76,20.96-1.06-2.28-3.33-4.66-6.41-7.06-9.15l-.07-.09c-13.48.87-25.62,1.88-37.12,3.09-98.93,10.43-158.96,38.34-229.42,106.65l-.62.59Z"/><path class="cls-3" d="m329.14,161.94c-6.07-.76-12.19-.99-18.2-.69-37.63,1.86-74.51,18.87-106.03,48.45-6.57,6.17-12.92,12.87-18.99,20.11l-.11.1c-.75.49-1.47,1.01-2.21,1.58-1.85,1.45-3.67,2.84-5.45,4.17-26.69,19.98-45.22,26.81-62.78,26.82-14.42,0-28.19-4.6-45.31-10.32-4.93-1.65-10.01-3.35-15.5-5.07,3.6,9.45,6.72,18.68,9.44,27.79,9.55,32.04,13.75,62.39,13.05,93.68-.85,38.06-8.78,79.5-25.7,134.35,30.65,26.94,74.61,46.38,130.66,57.77,4.88.99,9.92,1.93,14.98,2.79,2.31.39,4.61.77,6.91,1.13,12.91,2.01,26.16,3.55,39.37,4.6h.16s0-.55,0-.55l.11-.13c38.73-48.15,61.46-149.41,73.67-203.81,2.37-10.55,4.41-19.66,6.1-26.3,13.28-52.18,15.56-121.39,5.83-176.45Z"/><path class="cls-14" d="m54.56,247.09c5.49,1.72,10.58,3.42,15.5,5.07,17.12,5.72,30.89,10.33,45.31,10.32,17.57,0,36.09-6.84,62.78-26.82,1.78-1.33,3.59-2.72,5.45-4.17.74-.58,1.46-1.1,2.21-1.58l.11-.1c6.07-7.24,12.41-13.95,18.99-20.11-.43-.06-.86-.12-1.29-.17-6.37,6.02-12.52,12.56-18.42,19.59-.75.49-1.48,1.01-2.22,1.59-52.07,40.74-73.57,33.55-112.6,20.5-2.03-.68-4.1-1.37-6.2-2.06-.58-.19-1.15-.38-1.73-.57-.56-.18-1.13-.37-1.7-.55-.82-.27-1.63-.53-2.46-.8-.63-.2-1.28-.4-1.91-.61-.83-.26-1.65-.53-2.5-.79l-.98-.31.37.96c3.68,9.59,6.87,18.97,9.64,28.22.36.06.73.12,1.1.18-2.72-9.11-5.84-18.35-9.44-27.79Z"/><path class="cls-14" d="m330.18,162.07c-.04-.22-.07-.45-.11-.67l-.06-.36h0s-.36-.05-.36-.05c-1-.13-2.01-.22-3.02-.32-.64-.06-1.27-.14-1.9-.19-1.04-.08-2.07-.14-3.11-.19-.5-.03-.99-.07-1.49-.09-1.25-.05-2.49-.06-3.74-.07-.29,0-.58-.01-.87-.01-1.54,0-3.08.05-4.62.12-5.72.28-11.42.91-17.08,1.88-32.1,5.48-63.13,21.81-90.19,47.39.43.06.86.11,1.29.17,31.52-29.58,68.4-46.58,106.03-48.45,6.01-.3,12.13-.06,18.2.69,9.73,55.06,7.45,124.27-5.83,176.45-1.69,6.64-3.74,15.75-6.1,26.3-12.21,54.4-34.94,155.66-73.67,203.81l-.11.13v.57s-.17-.01-.17-.01c-13.22-1.04-26.46-2.59-39.37-4.6-2.3-.36-4.6-.74-6.91-1.13-5.06-.86-10.1-1.8-14.98-2.79-56.05-11.39-100.01-30.83-130.66-57.77,16.92-54.84,24.85-96.29,25.7-134.35.7-31.29-3.5-61.64-13.05-93.68-.37-.06-.73-.12-1.1-.18,9.62,32.11,13.85,62.5,13.15,93.84-.85,38.03-8.8,79.48-25.75,134.38l-.1.31.24.21c30.79,27.17,74.99,46.75,131.36,58.21,4.89.99,9.94,1.94,15.01,2.8,2.31.39,4.62.78,6.92,1.13,12.94,2.01,26.21,3.56,39.45,4.6l1.22.1.02-1.29c38.81-48.38,61.54-149.65,73.76-204.08,2.37-10.54,4.41-19.65,6.1-26.28,13.29-52.21,15.59-121.43,5.9-176.57Z"/><ellipse class="cls-15" cx="90.87" cy="499.8" rx="20.04" ry="18.05"/><ellipse class="cls-15" cx="126.31" cy="464.61" rx="20.04" ry="19.86"/><ellipse class="cls-15" cx="229.59" cy="421.61" rx="22.33" ry="19.86"/><ellipse class="cls-15" cx="251.13" cy="473.56" rx="21.22" ry="18.19"/><ellipse class="cls-15" cx="194.59" cy="494.43" rx="22.33" ry="18.05"/><ellipse class="cls-15" cx="139.31" cy="515.43" rx="20.04" ry="18.05"/><ellipse class="cls-15" cx="183.31" cy="538.43" rx="18.05" ry="20.04" transform="translate(-382.88 592.63) rotate(-76.67)"/><ellipse class="cls-15" cx="232.31" cy="525.43" rx="20.04" ry="18.05"/><ellipse class="cls-15" cx="181.31" cy="447.43" rx="20.04" ry="18.05"/><ellipse class="cls-15" cx="100.31" cy="421.43" rx="20.04" ry="18.05" transform="translate(-219.09 128.77) rotate(-34.11)"/><path class="cls-7" d="m230.76,410.49c-1.82-2.27.8-4.59,5.6-3.45,7.58,1.8,10.22,7.07,9.63,9.56-.71,3.02-5.07,3.15-8.24-2.19-1.39-2.34-5.49-2.05-6.99-3.92Z"/><path class="cls-7" d="m187.51,437.46c-.38-2.89,3.06-3.51,6.58-.06,5.56,5.46,5.09,11.33,3.29,13.16-2.17,2.21-6.47.19-5.92-6.14.23-2.71-3.64-4.59-3.95-6.97Z"/><path class="cls-7" d="m208.65,496.9c2.45,1.57,4.48-1.29,2.83-5.94-2.6-7.35-8.12-9.4-10.54-8.55-2.92,1.03,1.35,4.07,5.28,8.71,1.76,2.07.41,4.48,2.43,5.77Z"/><path class="cls-7" d="m99.31,409.79c-2.5-1.49.8-4.59,5.6-3.45,7.58,1.8,9.29,7.02,9.63,9.56.38,2.84-5.62,2.84-8.24-2.19-1.25-2.41-5.38-2.96-6.99-3.92Z"/><path class="cls-7" d="m259.02,464.89c-.13-2.91,3.35-3.23,6.56.52,5.06,5.92,4.08,11.73,2.13,13.4-2.36,2.01-5.79-1.06-5.36-6.63.21-2.71-3.22-4.89-3.33-7.29Z"/><path class="cls-7" d="m101.82,504.05c2.61,1.28,4.3-1.78,2.15-6.22-3.4-7.01-9.12-8.43-11.43-7.31-2.79,1.35-1.39,4.72,3.93,7.57,2.4,1.28,3.19,4.91,5.35,5.97Z"/><path class="cls-7" d="m125.31,452.79c-1.82-2.27.8-4.59,5.6-3.45,7.58,1.8,10.22,7.07,9.63,9.56-.71,3.02-2.62,3.84-8.24-2.19-1.85-1.99-5.49-2.05-6.99-3.92Z"/><path class="cls-7" d="m193.46,531.21c1.1-1.47,3.52-1.64,4.93,1.88,2.23,5.56-.18,9.66-2.17,10.46-2.4.96-2.24-1.12-2.26-6.15-.02-3.22-1.64-4.66-.5-6.18Z"/><path class="cls-7" d="m231.31,515.79c-1.82-2.27.8-4.59,5.6-3.45,7.58,1.8,10.22,7.07,9.63,9.56-.71,3.02-5.62,3.84-8.24-2.19-1.08-2.49-5.49-2.05-6.99-3.92Z"/><path class="cls-7" d="m144.07,505.71c-.98-2.25,1.67-2.54,5.32.33,5.76,4.53,6.74,9.05,5.7,10.36-1.25,1.59-6.22-.61-6.21-5.08,0-1.98-4.01-3.75-4.81-5.61Z"/><path class="cls-6" d="m186.59,287.89c-3.04,0-5.49.55-7.05,2.12-2.24,2.25-2.78,6.69-1.63,13.57.91,5.46,19.23,14.15,42.93,12.17,26.78-2.25,37.27-14.03,40.54-18.99,2.69-4.09,3.08-7.24,2.6-8.69-1.6-4.79-3.59-7.64-6.1-8.71-3.91-1.66-9.11.82-15.7,3.96-6.38,3.04-13.61,6.49-22.14,7.42-1.37.15-2.74.21-4.11.24v7.23c0,1.4-1.14,2.54-2.54,2.54h-11.92c-1.4,0-2.54-1.14-2.54-2.54v-8.85c-.27-.04-.55-.09-.82-.13-4.27-.69-8.23-1.34-11.51-1.34Z"/><path class="cls-14" d="m265.87,287.43c-1.81-5.44-4.11-8.59-7.22-9.92-4.73-2.01-10.3.64-17.34,4-6.24,2.97-13.3,6.34-21.5,7.24-1.29.14-2.59.2-3.89.23v1.02c1.34-.03,2.67-.1,4-.25,22.98-2.52,37.59-24.23,45-2,2,6-8.77,26.04-44,29-24.7,2.08-43-7-44-13-3.3-19.8,7.47-17.76,22-15.4v-1.01c-.16-.03-.34-.05-.5-.08-8.76-1.42-16.32-2.65-20.3,1.35-2.77,2.78-3.46,7.65-2.19,15.31,1.05,6.3,16.91,14.13,37.91,14.13,2.33,0,4.72-.1,7.16-.3,27.65-2.32,38.61-14.68,42.04-19.89,2.58-3.92,3.66-7.91,2.83-10.43Z"/><path class="cls-14" d="m220.03,290.74c8.53-.94,15.76-4.38,22.14-7.42,6.59-3.14,11.79-5.62,15.7-3.96,2.51,1.07,4.51,3.92,6.1,8.71.49,1.45.1,4.6-2.6,8.69-3.27,4.96-13.76,16.74-40.54,18.99-23.7,1.98-42.02-6.7-42.93-12.17-1.15-6.88-.61-11.32,1.63-13.57,1.57-1.57,4.02-2.12,7.05-2.12,3.28,0,7.25.64,11.51,1.34.27.04.55.09.82.13v-1.01c-14.53-2.36-25.3-4.4-22,15.4,1,6,19.3,15.08,44,13,35.22-2.96,46-23,44-29-7.41-22.23-22.02-.52-45,2-1.33.15-2.66.22-4,.25v.98c1.37-.03,2.74-.09,4.11-.24Z"/><path class="cls-4" d="m201.46,300.75h11.92c1.4,0,2.54-1.14,2.54-2.54v-7.23c-5.86.11-11.69-.76-17-1.62v8.85c0,1.4,1.14,2.54,2.54,2.54Z"/><path class="cls-14" d="m215.92,290v-1.02c-5.82.11-11.68-.79-17-1.65v1.01c5.33.86,11.16,1.77,17,1.65Z"/><path class="cls-14" d="m198.92,288.35v1.01c5.31.86,11.14,1.74,17,1.62v-.98c-5.84.11-11.67-.79-17-1.65Z"/><path class="cls-5" d="m113.97,283.79c-8.33-8.09-8.58-22.07-8.16-34.53.43-12.84,5.57-24.43,14.09-31.78,5.12-4.42,11.15-7.06,17.76-7.84-1.57-.35-3.14-.54-4.71-.54-1.73,0-3.44.21-5.14.64-19.1,4.79-27.88,17.13-31.88,26.64-6.65,15.82-5.01,35.53,4.29,51.44,2.4,4.1,4.64,4.19,7.74,4.31.84.03,1.71.07,2.65.18,3.31-1.25,6.53-2.75,9.66-4.27-2.41-1.1-4.51-2.52-6.3-4.25Z"/><path class="cls-5" d="m149.19,215.36c-2.87-2.27-5.83-3.9-8.81-4.94-7.44.31-14.21,2.96-19.83,7.82-8.31,7.17-13.32,18.49-13.74,31.06-.41,12.25-.18,25.97,7.86,33.78,1.89,1.83,4.15,3.29,6.78,4.39.69-.34,1.39-.68,2.07-1.02,4.71-2.33,9.58-4.74,14.66-6.5.09-.03.18-.06.27-.09-6.57-7.36-8.79-18.19-9.25-27.51-.72-14.69,7.91-33.27,25.25-32.03-1.68-1.84-3.44-3.51-5.27-4.95Z"/><path class="cls-14" d="m138.45,279.85c-.09.03-.18.06-.27.09-5.08,1.75-9.95,4.17-14.66,6.5-.69.34-1.38.68-2.07,1.02-2.64-1.1-4.9-2.55-6.78-4.39-8.04-7.81-8.27-21.53-7.86-33.78.42-12.57,5.43-23.89,13.74-31.06,5.62-4.85,12.4-7.51,19.83-7.82,2.98,1.04,5.94,2.68,8.81,4.94,1.82,1.44,3.59,3.11,5.27,4.95.24.02.48.03.73.06.11.01.22.01.33.03.14.02.27.04.4.06-1.93-2.21-3.98-4.2-6.11-5.88-2.19-1.73-4.43-3.11-6.69-4.15-.42-.19-.83-.37-1.25-.54-.43-.17-.86-.33-1.28-.48-4.33-1.49-8.72-1.72-13.02-.65-19.5,4.89-28.47,17.5-32.56,27.22-6.77,16.11-5.11,36.16,4.35,52.33,2.67,4.57,5.4,4.68,8.56,4.81.85.03,1.74.07,2.69.19l.12.02.12-.04c3.67-1.38,7.2-3.05,10.64-4.74.21-.1.42-.21.63-.31.2-.1.4-.2.6-.3.42-.21.84-.41,1.25-.62,4.68-2.32,9.52-4.71,14.54-6.45.23-.08.47-.15.7-.23-.13-.13-.26-.27-.38-.4-.13-.13-.25-.27-.37-.4Zm-30.5,12.28c-3.1-.12-5.34-.21-7.74-4.31-9.3-15.91-10.94-35.61-4.29-51.44,4-9.51,12.78-21.85,31.88-26.64,1.7-.43,3.42-.64,5.14-.64,1.57,0,3.14.19,4.71.54-6.61.78-12.64,3.42-17.76,7.84-8.52,7.35-13.65,18.94-14.09,31.78-.42,12.46-.17,26.44,8.16,34.53,1.78,1.73,3.88,3.15,6.3,4.25-3.14,1.53-6.36,3.02-9.66,4.27-.94-.12-1.81-.15-2.65-.18Z"/><path class="cls-2" d="m155.92,220.46c-.14-.02-.26-.04-.4-.06-.11-.01-.22-.02-.33-.03-.24-.03-.49-.04-.73-.06-17.35-1.24-25.97,17.34-25.25,32.03.46,9.31,2.68,20.15,9.25,27.51.12.14.25.27.37.4.13.14.25.27.38.4,4.04-1.35,8.22-2.42,12.28-3.45,5.35-1.35,10.87-2.75,16.15-4.84l.1-.05c4.11-2.76,4.15-7.1,4.19-10.92v-.41c.16-13.37-6.52-29.69-16-40.53Z"/><path class="cls-5" d="m319.08,207.25c-4.11-12.45-11.23-21.41-19.51-24.57-5-1.91-9.73-3.1-14.17-3.59,15.25,4.49,22.77,17.93,23.43,41.4.44,15.61-3.89,28.19-12.21,35.41-.4.35-.83.66-1.25.98,3.04,1.24,6.23,2.5,9.89,3.72,3.92,1.31,7.89.11,9.87-3,8.24-12.92,9.8-32.68,3.96-50.36Z"/><path class="cls-14" d="m320.03,206.93c-4.21-12.74-11.54-21.92-20.11-25.19-7.32-2.79-14.07-4.07-20.23-3.87-.95.03-1.9.1-2.82.2-.81.09-1.62.21-2.41.36-4.95.92-9.47,2.91-13.5,6-1.36,1.04-2.63,2.19-3.83,3.43.58-.14,1.17-.26,1.77-.36.85-.81,1.74-1.57,2.67-2.28,5.22-4,11.27-6.1,18.08-6.34,18.45,2.67,27.45,16.06,28.18,41.63.44,15.3-3.78,27.6-11.87,34.62-.53.46-1.09.89-1.65,1.31-.17-.07-.34-.14-.51-.21-4.06-1.66-7.89-3.22-12.52-4.66-1.99-.62-4.08-1.08-6.2-1.44-.35.29-.72.57-1.09.84,2.41.38,4.77.87,7,1.56,4.57,1.41,8.36,2.96,12.37,4.6.02,0,.05.02.07.03.15.06.31.13.47.19.19.08.37.15.56.23,3.22,1.31,6.58,2.66,10.49,3.96,1.16.39,2.33.58,3.46.58,3.11,0,5.93-1.42,7.57-3.98,8.4-13.16,10-33.26,4.06-51.22Zm-4.91,50.68c-1.98,3.1-5.95,4.31-9.87,3-3.66-1.22-6.84-2.48-9.89-3.72.42-.32.85-.63,1.25-.98,8.32-7.22,12.66-19.8,12.21-35.41-.67-23.47-8.19-36.91-23.43-41.4,4.44.49,9.17,1.68,14.17,3.59,8.29,3.16,15.4,12.12,19.51,24.57,5.84,17.68,4.29,37.45-3.96,50.36Z"/><path class="cls-5" d="m285.99,222.05c-.62,10.97-3.72,22.15-10.91,28.1,2.13.37,4.21.83,6.2,1.44,4.64,1.44,8.47,3,12.52,4.66.17.07.34.14.51.21.56-.42,1.11-.85,1.65-1.31,8.09-7.02,12.3-19.32,11.87-34.62-.73-25.57-9.73-38.96-28.18-41.63-6.81.24-12.86,2.34-18.08,6.34-.93.71-1.82,1.48-2.67,2.28,1.15-.19,2.34-.31,3.6-.36,18.55-.67,24.42,18.17,23.48,34.9Z"/><path class="cls-2" d="m265,248.9c-3.95-.39-8.02-.8-11.77-1.57-2.01-.42-8.6-2.22-9.18-7.85-1.82-17.64,2.17-39.89,14.86-51.96-.61.1-1.19.22-1.77.36-12.08,12.52-15.87,34.33-14.08,51.71.65,6.31,7.8,8.28,9.97,8.73,3.8.79,7.9,1.2,11.87,1.59,3.02.3,6.09.61,9.09,1.09.37-.27.74-.54,1.09-.84-3.31-.57-6.73-.91-10.08-1.25Z"/><path class="cls-2" d="m244.06,239.48c.58,5.64,7.17,7.44,9.18,7.85,3.74.78,7.82,1.18,11.77,1.57,3.35.33,6.77.67,10.08,1.25,7.19-5.95,10.29-17.12,10.91-28.1.95-16.72-4.93-35.56-23.48-34.9-1.25.05-2.45.17-3.6.36-12.69,12.07-16.67,34.32-14.86,51.96Z"/></svg>