<?xml version="1.0" encoding="UTF-8"?><svg id="Layer_20" xmlns="http://www.w3.org/2000/svg" width="289" height="205" viewBox="0 0 289 205"><defs><style>.cls-1{fill:#c088bc;}.cls-2{fill:#d9efed;}.cls-3{fill:#47b4e7;}</style></defs><rect class="cls-2" x="15.97" y="43.5" width="260.53" height="114.5" rx="21.36" ry="21.36"/><path class="cls-3" d="m255.14,160.5H37.33c-13.16,0-23.86-10.7-23.86-23.86v-71.77c0-13.16,10.7-23.86,23.86-23.86h217.81c13.16,0,23.86,10.7,23.86,23.86v71.77c0,13.16-10.7,23.86-23.86,23.86ZM37.33,46c-10.4,0-18.86,8.46-18.86,18.86v71.77c0,10.4,8.46,18.86,18.86,18.86h217.81c10.4,0,18.86-8.46,18.86-18.86v-71.77c0-10.4-8.46-18.86-18.86-18.86H37.33Z"/><circle class="cls-1" cx="198.77" cy="99.95" r="45.97"/><path d="m42.88,67.9c-.25-.54-.1-.79.49-.83,3.44-.29,7.86-2.7,11.15-2.9,2.51-.15,4.91.64,5.8,3.98.88,3.29-.05,6.04-1.72,8.2-1.42,1.82-4.03,4.27-7.66,5.85.93.44,1.72,1.13,2.36,2.06,1.03,1.52.98,4.42-1.13,6.73-2.16,2.36-5.84,4.08-8.6,4.57-1.87.34-3.04.29-4.13-.25-.98-.49-1.87-1.33-2.5-2.26-.74-1.08-1.23-1.87-.1-5.01,1.96-5.5,5.7-12.67,9.38-18.17-1.96-.1-3-1.18-3.34-1.96Zm2.8,15.72c-1.38.15-2.36,0-3.04-.34-1.33,2.55-2.55,5.16-3.29,7.61-.54,1.72,0,2.31,1.57,2.11,3.14-.39,7.37-2.41,9.48-5.01,1.82-2.26,1.82-4.47-2.65-4.72-.69.15-1.38.25-2.06.34Zm12.82-15.03c-.98-2.55-5.84-.29-9.23.79.1,1.08-.25,2.55-1.47,4.81-.98,1.82-2.41,4.13-3.83,6.63,9.72-2.26,15.77-8.89,14.54-12.23Z"/><path d="m59.08,95.6c-3.49-.25-3.58-3.88-2.5-7.12,1.08-3.24,3.59-8.06,6.78-12.53.39-.54.88-.49,1.28-.05,1.08,1.62.83,3.83-.93,6.63-1.82,2.9-2.8,4.86-3.83,7.22-1.03,2.41-.88,4.17.25,4.27,1.92.15,4.62-3.29,7.27-7.56,3.09-5.01,4.52-8.4,6.09-10.51.49-.69.83-.79,1.23-.29.74.88,1.13,3.05-.05,5.5-1.08,2.21-3.54,5.89-4.67,8.4-1.28,2.8-1.08,4.86.69,4.76,2.06-.1,4.57-3.34,6.48-6.78.25-.44.69-.49.88-.05.2.39.25,1.72-.44,3.09-1.42,2.75-4.47,5.25-7.37,5.25-3.19,0-4.47-2.01-4.08-4.86-1.72,2.31-4.32,4.81-7.07,4.62Z"/><path d="m83.25,95.5c-2.6,0-4.27-1.33-5.16-3.49-.44,1.03-.98,2.21-1.42,3.24-.2.49-.49.54-.79.15-.74-.98-1.23-2.41-.25-5.4,1.33-4.08,10.95-22.25,14.34-26.97.44-.64.83-.64,1.23.05.74,1.38.74,3.59-1.28,7.27-.74,1.38-2.85,4.76-4.37,7.47,1.42-1.28,2.95-2.06,4.22-2.06,4.17,0,4.37,5.8,1.67,11.79-2.31,5.16-5.35,7.96-8.2,7.96Zm2.21-15.77c-2.21,2.31-4.57,6.39-6.38,10.17.1,1.42.74,3,2.06,3.29,1.72.39,3.98-1.08,6.83-6.78,2.8-5.55,2.21-8.55,1.08-8.64-1.03-.1-2.11.44-3.59,1.96Z"/><path d="m100.54,95.5c-2.6,0-4.27-1.33-5.16-3.49-.44,1.03-.98,2.21-1.42,3.24-.2.49-.49.54-.79.15-.74-.98-1.23-2.41-.25-5.4,1.33-4.08,10.95-22.25,14.34-26.97.44-.64.83-.64,1.23.05.74,1.38.74,3.59-1.28,7.27-.74,1.38-2.85,4.76-4.37,7.47,1.42-1.28,2.95-2.06,4.22-2.06,4.17,0,4.37,5.8,1.67,11.79-2.31,5.16-5.35,7.96-8.2,7.96Zm2.21-15.77c-2.21,2.31-4.57,6.39-6.38,10.17.1,1.42.74,3,2.06,3.29,1.72.39,3.98-1.08,6.83-6.78,2.8-5.55,2.21-8.55,1.08-8.64-1.03-.1-2.11.44-3.59,1.96Z"/><path d="m115.22,94.23c2.36.2,5.8-3.34,7.71-7.12.34-.64.88-.69,1.08,0,.25.79.05,1.87-.49,3.05-.69,1.47-4.27,5.55-8.2,5.45-3.39-.1-5.21-2.46-4.08-7.76,1.82-8.55,7.42-17.44,12.43-22.64.74-.79,1.42-.88,2.11-.25,1.42,1.28,1.72,3.09,1.13,5.4-1.52,6.04-7.02,11.94-11.4,14.79-1.96,4.81-2.5,8.89-.29,9.09Zm10.02-24.9c-.64-.39-4.27,5.06-7.66,11.35-.44.79-.83,1.57-1.18,2.36,6.73-5.45,9.48-13.31,8.84-13.7Z"/><path d="m128.73,94.33c4.08.2,7.66-3.73,9.77-6.97.25-.39.64-.39.83.05.2.39.05,1.77-.83,3.05-2.06,3-5.85,5.25-9.63,5.3-6.24.1-8.4-6.04-5.21-12.38s8.2-8.89,10.66-7.47c1.23.74,2.11,1.47,2.9,2.55.88,1.18.49,4.17-1.57,6.68-2.41,2.95-5.7,4.22-9.14,1.42-1.57,4.52-.39,7.61,2.21,7.76Zm4.08-11.3c1.57-2.06,2.65-4.62,1.96-5.16-1.03-.83-5.11,2.11-7.42,6.78-.15.29-.29.59-.39.83,2.41,1.52,4.42-.59,5.84-2.46Z"/><path d="m55.84,124.96c1.23,3.29-1.92,6.98-3.98,8.45-3.49,2.5-7.61,2.46-10.27,1.03-2.21-1.18-4.13-4.22-4.22-8.25-.2-10.41,8.55-19.3,14.05-21.42,2.65-1.03,5.06-1.23,6.63.15,1.08.93,2.21,2.36,2.6,3.59.44,1.42.29,2.8-.44,4.32-.74,1.52-1.42,3.44-1.96,4.86-.15.39-.49.69-1.08.29-1.13-.74-1.92-2.26-1.18-4.71.79-2.6,2.55-5.4,1.42-6.58-1.38-1.47-8.84,2.5-13.26,9.82-4.32,7.17-3.83,14.44-1.42,16.41,3.14,2.55,8.35-.74,12.08-8.06.25-.54.79-.54,1.03.1Z"/><path d="m89.93,135.82c-3.19,0-4.42-1.96-4.03-4.81-1.72,2.26-4.22,4.86-7.02,4.62-3.49-.29-3.58-3.88-2.5-7.12.39-1.23,1.03-2.7,1.87-4.22-1.38.64-2.9,1.03-4.42.88-1.13,4.13-4.13,8.99-7.61,10.17-1.82.59-4.32.39-6.24-2.16-2.16-2.9-1.42-7.12.74-11.05,1.87-3.39,4.91-6.14,7.86-6.34,1.47-.1,2.31.34,3.34,1.67,1.18,1.47,2.55,1.77,2.31,5.4,0,.29-.05.59-.1.98,2.8-.05,5.5-2.36,7.17-5.06.49-.79,1.28-1.87,1.87-2.7.39-.54.83-.49,1.23-.05,1.08,1.62.83,3.68-.93,6.58-1.77,2.9-2.9,4.86-3.83,7.17-.98,2.41-.83,4.12.25,4.22,1.92.15,4.67-3.19,7.27-7.47,3.05-4.96,4.47-8.35,5.99-10.46.44-.64.83-.74,1.23-.29.74.88,1.13,3-.05,5.45-1.08,2.21-3.49,5.8-4.62,8.35-1.28,2.85-1.08,4.86.69,4.76,2.01-.1,4.57-3.34,6.43-6.78.25-.44.64-.49.88-.05.25.44.25,1.72-.44,3.04-1.42,2.8-4.42,5.26-7.32,5.26Zm-22.45-16.41c-1.28,1.08-2.75,2.75-3.83,4.67-2.06,3.68-2.75,8.15-1.47,9.28,1.28,1.13,4.32-.64,6.78-5.11.79-1.42,1.28-2.75,1.72-3.98-1.67-.93-3.19-2.85-3.19-4.86Zm2.41.1c-.15,1.33.25,2.55,1.13,3.34.39-1.42.44-2.65.34-3.49-.2-1.57-1.33-1.23-1.47.15Z"/><path d="m111.05,115.73c1.62.25,3.14,2.65,1.92,5.21-1.03,2.16-3.44,5.8-4.57,8.35-1.28,2.85-.98,5.16.79,5.06,2.01-.1,4.42-3.34,6.29-6.78.25-.44.59-.44.83-.05.34.54.25,1.67-.44,3.09-1.33,2.75-4.42,5.25-7.27,5.25-4.17,0-5.16-3.04-3.73-7.32,1.62-4.81,5.94-10.02,5.06-10.41-.49-.2-3.34,1.18-6.48,4.62-2.9,3.14-5.06,7.86-7.17,12.48-.2.44-.49.64-.93.2-.98-.98-1.28-2.6-.49-5.06.98-3.09,4.76-9.92,7.86-14.49.34-.54.74-.49,1.03,0,.74,1.23.69,2.9.15,4.67,2.21-2.36,5.55-5.06,7.17-4.81Z"/><path d="m117.63,114.6c-.49-.69-.2-1.03.54-.98,1.38.05,2.75-.05,4.08-.2,1.52-2.7,2.9-5.01,3.73-6.09.44-.64.93-.59,1.18,0,.54,1.38.54,3-.64,5.55,1.92-.05,2.65.83,3.04,1.47.34.59.15.93-.59.93-1.08-.15-2.6,0-3.83.2-1.92,3.29-4.71,8.06-6.58,12.18-1.62,3.58-1.08,6.63.98,6.73,2.21.1,5.01-3.39,6.83-7.07.29-.59.83-.69,1.03,0,.25.79,0,1.67-.49,2.8-.64,1.42-3.88,5.75-7.81,5.6-3.24-.1-5.85-3.73-3.49-9.38,1.03-2.46,3.09-6.58,5.21-10.46-1.67,0-2.8-.74-3.19-1.28Z"/></svg>