<?xml version="1.0" encoding="UTF-8"?><svg id="Layer_23" xmlns="http://www.w3.org/2000/svg" width="521" height="639" viewBox="0 0 521 639"><defs><style>.cls-1{fill:#f98869;}.cls-2{fill:#001300;}.cls-3{fill:#fbd3e0;}.cls-4{fill:#e3e4df;}.cls-5{fill:#fff;}.cls-6{fill:#f389a6;}.cls-7{fill:#fdf9f8;}.cls-8{fill:#9fc89e;}.cls-9{fill:#9bbda8;}.cls-10{fill:#bddda1;}.cls-11{fill:#d1e3e3;}.cls-12{fill:#e1b3bc;}.cls-13{fill:#daefef;}.cls-14{fill:#262323;}.cls-15{fill:#352f15;}.cls-16{fill:#aaedff;stroke:#29a8df;stroke-miterlimit:10;}</style></defs><path class="cls-11" d="m363.17,84.58c-98.2,6.04-163.69,27.06-240.42,98.06,101.94-5.41,163.89-37.61,240.42-98.06Z"/><path class="cls-14" d="m121.39,183.22l1.02-.94c37.89-35.06,73.58-58.41,112.32-73.49,35.46-13.8,75.06-21.42,128.41-24.71l1.59-.1-1.25.99c-42.97,33.93-76.1,54.79-110.8,69.74-38.9,16.76-80.18,25.79-129.91,28.43l-1.38.07Zm240.21-98.04c-52.44,3.33-91.51,10.91-126.51,24.54-38.27,14.9-73.57,37.91-110.98,72.35,48.99-2.73,89.76-11.72,128.18-28.28,34.27-14.77,67.03-35.32,109.31-68.61Z"/><path class="cls-9" d="m385.01,83.49c-7.47.29-14.74.65-21.84,1.09-76.54,60.45-138.48,92.65-240.42,98.06-3.19,2.95-6.4,5.98-9.63,9.11.06.12.11.23.17.35,113.99-2.86,184.55-38.88,271.8-108.5-.02-.04-.05-.07-.07-.11Z"/><path class="cls-14" d="m112.98,192.61l-.48-.96.26-.25c3.11-3,6.35-6.07,9.64-9.12l.13-.12h.18c49.61-2.64,90.78-11.65,129.57-28.36,34.61-14.91,67.68-35.73,110.57-69.61l.12-.1h.16c6.93-.44,14.28-.8,21.86-1.1h.28s.44.67.44.67l-.32.33c-83.41,66.56-154.67,105.66-272.1,108.61h-.32Zm9.97-9.47c-3.05,2.82-6.05,5.66-8.94,8.45,116.22-3.07,187.09-41.77,269.71-107.54-7.05.29-13.89.63-20.37,1.03-42.9,33.88-76.01,54.71-110.67,69.64-38.85,16.74-80.08,25.77-129.73,28.42Z"/><path class="cls-13" d="m384.97,84.33c-83.04,66.2-154.13,105.15-270.89,108.25,6.81,13.63,12.68,26.4,17.79,38.71,19.05-10.26,49.05-19.38,82.14-22.33,36.74-3.28,52.71-4.51,72.21-1.94,27.05-25.58,58.08-41.91,90.19-47.39,5.67-.97,11.37-1.6,17.08-1.88,1.53-.08,3.07-.12,4.62-.12.29,0,.58.01.87.01,1.24,0,2.49.02,3.74.07.5.02.99.06,1.49.09,1.04.05,2.07.11,3.11.19.64.05,1.27.13,1.9.19.78.08,1.56.14,2.34.24-5.58-30.99-14.52-55.91-26.6-74.08Z"/><path class="cls-14" d="m412.79,159.58l-.12-.67c.04.22.07.45.11.67h0Z"/><path class="cls-14" d="m114.08,192.58c116.75-3.1,187.85-42.05,270.89-108.25,12.07,18.18,21.02,43.1,26.6,74.08-.78-.1-1.56-.16-2.34-.24,1.01.1,2.01.19,3.02.32l.36.05c-5.64-31.52-14.76-56.83-27.11-75.22l-.3-.45-.42.34c-83.24,66.42-154.36,105.45-271.5,108.39l-.79.02.35.7c6.97,13.91,12.96,26.92,18.15,39.45.29-.16.59-.32.88-.48-5.11-12.31-10.98-25.08-17.79-38.71Z"/><path class="cls-12" d="m214.02,208.96c-33.09,2.96-63.09,12.08-82.14,22.33,1.7,4.08,3.31,8.11,4.84,12.11.77.24,1.52.48,2.27.72.64.2,1.29.4,1.91.61.83.27,1.64.53,2.46.8.56.18,1.14.37,1.7.55.58.19,1.15.38,1.73.57,2.1.69,4.17,1.38,6.2,2.06,39.03,13.05,60.54,20.23,112.6-20.5.74-.58,1.47-1.1,2.22-1.59,5.89-7.03,12.04-13.56,18.42-19.59-19.5-2.57-35.47-1.34-72.21,1.94Z"/><path class="cls-14" d="m197.95,259.46c-14.36,0-28.07-4.58-45.11-10.28-2.03-.68-4.1-1.37-6.2-2.06l-10.3-3.32-.09-.23c-1.53-3.97-3.15-8.04-4.84-12.09l-.17-.42.4-.21c20.97-11.29,51.74-19.66,82.33-22.39h0c36.89-3.29,52.65-4.53,72.32-1.94l1.04.14-.76.72c-6.37,6.02-12.55,12.6-18.38,19.55l-.11.1c-.75.49-1.46,1-2.18,1.57-29.55,23.12-49.3,30.86-67.96,30.86Zm-60.85-16.47l9.85,3.18c2.1.69,4.17,1.38,6.21,2.06,38.87,12.99,60.28,20.15,112.14-20.42.73-.57,1.44-1.09,2.19-1.58,5.6-6.68,11.53-13.02,17.65-18.85-19.09-2.4-34.91-1.15-71.06,2.08h0c-30.27,2.7-60.71,10.94-81.55,22.06,1.59,3.85,3.14,7.7,4.59,11.48Z"/><path class="cls-14" d="m135.5,243.02l.98.31c.85.26,1.67.53,2.5.79-.76-.24-1.5-.48-2.27-.72-1.53-3.99-3.15-8.02-4.84-12.11-.3.16-.59.32-.88.48,1.71,4.12,3.33,8.18,4.88,12.21l-.37-.96Z"/><path class="cls-1" d="m152.99,248.71c39.03,13.05,60.54,20.23,112.6-20.5-52.06,40.73-73.57,33.55-112.6,20.5Z"/><path class="cls-10" d="m295.84,232.9c-11.31,4.94-22.8,9.35-34.32,13.76-29.89-75.1-60.99-146.31-91.33-221.23,9.57-12.09,22.7-14.76,36.01-13.97,30.42,75.08,59.17,146.38,89.64,221.44Z"/><path class="cls-14" d="m261.24,247.3l-.18-.46c-16.48-41.41-33.63-82.37-50.22-121.97-13.52-32.28-27.5-65.65-41.11-99.25l-.11-.27.18-.23c8.3-10.49,20.23-15.11,36.43-14.16l.31.02.12.29c12.26,30.27,24.26,59.93,36.2,89.46,17.33,42.86,35.25,87.18,53.44,131.97l.18.45-.45.2c-11.52,5.04-23.12,9.47-34.34,13.77l-.46.18ZM170.76,25.52c13.57,33.5,27.51,66.78,40.99,98.97,16.53,39.46,33.62,80.26,50.05,121.53,10.92-4.18,22.2-8.5,33.39-13.38-18.12-44.64-35.98-88.81-53.26-131.52-11.9-29.44-23.86-59-36.08-89.17-15.59-.86-27.07,3.58-35.09,13.57Z"/><path class="cls-8" d="m377.41,73.55c.04-.1.08-.2.12-.29-.08,0-.17.01-.25.02-.04,0-.08,0-.11,0-13.03.83-25.45,1.85-37.37,3.1-93.09,9.82-155.29,34.64-229.71,106.79-.29.29-.59.57-.88.85,1.34,2.6,2.64,5.17,3.92,7.73,3.23-3.13,6.44-6.16,9.63-9.11,76.73-71,142.23-92.02,240.42-98.06,7.11-.44,14.38-.8,21.84-1.09-2.39-3.56-4.92-6.89-7.61-9.95Z"/><path class="cls-14" d="m112.97,192.59l-.31-.61c-1.28-2.56-2.58-5.13-3.92-7.73l-.17-.33,1.15-1.11c70.64-68.49,130.83-96.47,230.01-106.93,11.58-1.22,23.81-2.24,37.4-3.11l.14.37-.03-.37,1.06-.07-.31.75c2.54,2.92,5.05,6.21,7.44,9.76l.5.74-.9.04c-7.56.3-14.91.67-21.83,1.09-53.24,3.28-92.75,10.88-128.11,24.64-38.62,15.03-74.21,38.32-112.01,73.29-3.29,3.04-6.52,6.1-9.62,9.1l-.49.47Zm-3.17-8.46c1.18,2.28,2.32,4.55,3.45,6.8,2.96-2.85,6.03-5.76,9.15-8.64,37.89-35.06,73.58-58.41,112.32-73.49,35.46-13.8,75.06-21.42,128.41-24.71,6.66-.41,13.7-.76,20.96-1.06-2.28-3.33-4.66-6.41-7.06-9.15l-.07-.09c-13.48.87-25.62,1.88-37.12,3.09-98.93,10.43-158.96,38.34-229.42,106.65l-.62.59Z"/><path class="cls-3" d="m411.75,159.44c-6.07-.76-12.19-.99-18.2-.69-37.63,1.86-74.51,18.87-106.03,48.45-6.57,6.17-12.92,12.87-18.99,20.11l-.11.1c-.75.49-1.47,1.01-2.21,1.58-1.85,1.45-3.67,2.84-5.45,4.17-26.69,19.98-45.22,26.81-62.78,26.82-14.42,0-28.19-4.6-45.31-10.32-4.93-1.65-10.01-3.35-15.5-5.07,3.6,9.45,6.72,18.68,9.44,27.79,9.55,32.04,13.75,62.39,13.05,93.68-.85,38.06-8.78,79.5-25.7,134.35,30.65,26.94,74.61,46.38,130.66,57.77,4.88.99,9.92,1.93,14.98,2.79,2.31.39,4.61.77,6.91,1.13,12.91,2.01,26.16,3.55,39.37,4.6h.16s0-.55,0-.55l.11-.13c38.73-48.15,61.46-149.41,73.67-203.81,2.37-10.55,4.41-19.66,6.1-26.3,13.28-52.18,15.56-121.39,5.83-176.45Z"/><path class="cls-14" d="m137.17,244.59c5.49,1.72,10.58,3.42,15.5,5.07,17.12,5.72,30.89,10.33,45.31,10.32,17.57,0,36.09-6.84,62.78-26.82,1.78-1.33,3.59-2.72,5.45-4.17.74-.58,1.46-1.1,2.21-1.58l.11-.1c6.07-7.24,12.41-13.95,18.99-20.11-.43-.06-.86-.12-1.29-.17-6.37,6.02-12.52,12.56-18.42,19.59-.75.49-1.48,1.01-2.22,1.59-52.07,40.74-73.57,33.55-112.6,20.5-2.03-.68-4.1-1.37-6.2-2.06-.58-.19-1.15-.38-1.73-.57-.56-.18-1.13-.37-1.7-.55-.82-.27-1.63-.53-2.46-.8-.63-.2-1.28-.4-1.91-.61-.83-.26-1.65-.53-2.5-.79l-.98-.31.37.96c3.68,9.59,6.87,18.97,9.64,28.22.36.06.73.12,1.1.18-2.72-9.11-5.84-18.35-9.44-27.79Z"/><path class="cls-14" d="m412.78,159.58c-.04-.22-.07-.45-.11-.67l-.06-.36h0s-.36-.05-.36-.05c-1-.13-2.01-.22-3.02-.32-.64-.06-1.27-.14-1.9-.19-1.04-.08-2.07-.14-3.11-.19-.5-.03-.99-.07-1.49-.09-1.25-.05-2.49-.06-3.74-.07-.29,0-.58-.01-.87-.01-1.54,0-3.08.05-4.62.12-5.72.28-11.42.91-17.08,1.88-32.1,5.48-63.13,21.81-90.19,47.39.43.06.86.11,1.29.17,31.52-29.58,68.4-46.58,106.03-48.45,6.01-.3,12.13-.06,18.2.69,9.73,55.06,7.45,124.27-5.83,176.45-1.69,6.64-3.74,15.75-6.1,26.3-12.21,54.4-34.94,155.66-73.67,203.81l-.11.13v.57s-.17-.01-.17-.01c-13.22-1.04-26.46-2.59-39.37-4.6-2.3-.36-4.6-.74-6.91-1.13-5.06-.86-10.1-1.8-14.98-2.79-56.05-11.39-100.01-30.83-130.66-57.77,16.92-54.84,24.85-96.29,25.7-134.35.7-31.29-3.5-61.64-13.05-93.68-.37-.06-.73-.12-1.1-.18,9.62,32.11,13.85,62.5,13.15,93.84-.85,38.03-8.8,79.48-25.75,134.38l-.1.31.24.21c30.79,27.17,74.99,46.75,131.36,58.21,4.89.99,9.94,1.94,15.01,2.8,2.31.39,4.62.78,6.92,1.13,12.94,2.01,26.21,3.56,39.45,4.6l1.22.1.02-1.29c38.81-48.38,61.54-149.65,73.76-204.08,2.37-10.54,4.41-19.65,6.1-26.28,13.29-52.21,15.59-121.43,5.9-176.57Z"/><ellipse class="cls-15" cx="173.48" cy="497.31" rx="20.04" ry="18.05"/><ellipse class="cls-15" cx="208.92" cy="462.12" rx="20.04" ry="19.86"/><ellipse class="cls-15" cx="312.2" cy="419.12" rx="22.33" ry="19.86"/><ellipse class="cls-15" cx="333.74" cy="471.06" rx="21.22" ry="18.19"/><ellipse class="cls-15" cx="277.2" cy="491.93" rx="22.33" ry="18.05"/><ellipse class="cls-15" cx="221.92" cy="512.93" rx="20.04" ry="18.05"/><ellipse class="cls-15" cx="265.92" cy="535.93" rx="18.05" ry="20.04" transform="translate(-316.89 671.09) rotate(-76.67)"/><ellipse class="cls-15" cx="314.92" cy="522.93" rx="20.04" ry="18.05"/><ellipse class="cls-15" cx="263.92" cy="444.93" rx="20.04" ry="18.05"/><ellipse class="cls-15" cx="182.92" cy="418.93" rx="20.04" ry="18.05" transform="translate(-203.48 174.67) rotate(-34.11)"/><path class="cls-7" d="m313.37,407.99c-1.82-2.27.8-4.59,5.6-3.45,7.58,1.8,10.22,7.07,9.63,9.56-.71,3.02-5.07,3.15-8.24-2.19-1.39-2.34-5.49-2.05-6.99-3.92Z"/><path class="cls-7" d="m270.11,434.96c-.38-2.89,3.06-3.51,6.58-.06,5.56,5.46,5.09,11.33,3.29,13.16-2.17,2.21-6.47.19-5.92-6.14.23-2.71-3.64-4.59-3.95-6.97Z"/><path class="cls-7" d="m291.26,494.4c2.45,1.57,4.48-1.29,2.83-5.94-2.6-7.35-8.12-9.4-10.54-8.55-2.92,1.03,1.35,4.07,5.28,8.71,1.76,2.07.41,4.48,2.43,5.77Z"/><path class="cls-7" d="m181.91,407.3c-2.5-1.49.8-4.59,5.6-3.45,7.58,1.8,9.29,7.02,9.63,9.56.38,2.84-5.62,2.84-8.24-2.19-1.25-2.41-5.38-2.96-6.99-3.92Z"/><path class="cls-7" d="m341.62,462.39c-.13-2.91,3.35-3.23,6.56.52,5.06,5.92,4.08,11.73,2.13,13.4-2.36,2.01-5.79-1.06-5.36-6.63.21-2.71-3.22-4.89-3.33-7.29Z"/><path class="cls-7" d="m184.43,501.55c2.61,1.28,4.3-1.78,2.15-6.22-3.4-7.01-9.12-8.43-11.43-7.31-2.79,1.35-1.39,4.72,3.93,7.57,2.4,1.28,3.19,4.91,5.35,5.97Z"/><path class="cls-7" d="m207.91,450.3c-1.82-2.27.8-4.59,5.6-3.45,7.58,1.8,10.22,7.07,9.63,9.56-.71,3.02-2.62,3.84-8.24-2.19-1.85-1.99-5.49-2.05-6.99-3.92Z"/><path class="cls-7" d="m276.07,528.72c1.1-1.47,3.52-1.64,4.93,1.88,2.23,5.56-.18,9.66-2.17,10.46-2.4.96-2.24-1.12-2.26-6.15-.02-3.22-1.64-4.66-.5-6.18Z"/><path class="cls-7" d="m313.91,513.3c-1.82-2.27.8-4.59,5.6-3.45,7.58,1.8,10.22,7.07,9.63,9.56-.71,3.02-5.62,3.84-8.24-2.19-1.08-2.49-5.49-2.05-6.99-3.92Z"/><path class="cls-7" d="m226.68,503.21c-.98-2.25,1.67-2.54,5.32.33,5.76,4.53,6.74,9.05,5.7,10.36-1.25,1.59-6.22-.61-6.21-5.08,0-1.98-4.01-3.75-4.81-5.61Z"/><path class="cls-5" d="m200.26,282.08c-10.44-5.08-15.05-18.28-18.54-30.25-3.61-12.34-2.35-24.94,3.44-34.59,3.48-5.79,8.39-10.19,14.42-13-1.6.16-3.15.47-4.64.96-1.64.54-3.2,1.28-4.69,2.21-16.65,10.52-21.13,24.99-21.95,35.27-1.37,17.11,6.35,35.32,20.16,47.52,3.56,3.15,5.71,2.53,8.7,1.68.81-.23,1.64-.47,2.57-.65,2.75-2.22,5.34-4.65,7.84-7.08-2.64-.29-5.07-.98-7.31-2.07Z"/><path class="cls-5" d="m212.33,206.07c-3.44-1.26-6.75-1.89-9.91-1.94-6.97,2.62-12.57,7.26-16.4,13.62-5.65,9.41-6.87,21.73-3.34,33.8,3.44,11.76,7.95,24.72,18.02,29.63,2.36,1.15,4.97,1.83,7.81,2.04.55-.54,1.11-1.08,1.65-1.62,3.74-3.69,7.61-7.5,11.89-10.75.07-.06.15-.11.23-.17-8.54-4.94-14.04-14.53-17.38-23.24-5.28-13.73-2.89-34.08,13.97-38.32-2.17-1.22-4.37-2.26-6.55-3.06Z"/><path class="cls-14" d="m222.29,270.69c-.08.06-.15.11-.23.17-4.28,3.26-8.15,7.07-11.89,10.75-.55.54-1.1,1.08-1.65,1.62-2.85-.22-5.45-.89-7.81-2.04-10.07-4.91-14.58-17.87-18.02-29.63-3.53-12.07-2.31-24.39,3.34-33.8,3.82-6.37,9.43-11.01,16.4-13.62,3.16.06,6.48.69,9.91,1.94,2.18.8,4.38,1.83,6.55,3.06.23-.06.47-.12.71-.17.11-.02.21-.06.32-.08.14-.03.27-.05.4-.07-2.53-1.5-5.09-2.74-7.64-3.68-2.62-.96-5.18-1.57-7.66-1.85-.46-.05-.91-.09-1.36-.12-.46-.03-.92-.05-1.37-.05-4.58-.06-8.83,1.09-12.57,3.46-17,10.74-21.57,25.53-22.41,36.04-1.4,17.42,6.45,35.94,20.49,48.35,3.97,3.51,6.59,2.76,9.63,1.89.82-.23,1.67-.48,2.61-.66l.12-.02.1-.08c3.05-2.46,5.89-5.15,8.63-7.83.17-.16.33-.33.5-.49.16-.16.32-.31.48-.47.33-.33.67-.65,1-.98,3.72-3.66,7.57-7.45,11.8-10.67.19-.15.4-.29.59-.43-.16-.09-.33-.17-.49-.26-.16-.09-.32-.18-.48-.27Zm-25.13,21.2c-2.98.85-5.14,1.47-8.7-1.68-13.81-12.2-21.53-30.41-20.16-47.52.83-10.28,5.3-24.75,21.95-35.27,1.48-.94,3.05-1.68,4.69-2.21,1.49-.49,3.04-.8,4.64-.96-6.03,2.81-10.94,7.2-14.42,13-5.79,9.65-7.05,22.26-3.44,34.59,3.5,11.97,8.1,25.16,18.54,30.25,2.24,1.09,4.67,1.77,7.31,2.07-2.5,2.43-5.09,4.86-7.84,7.08-.93.19-1.77.42-2.57.65Z"/><path class="cls-2" d="m220.31,208.81c-.14.03-.26.04-.4.07-.11.02-.21.05-.32.08-.24.05-.47.11-.71.17-16.86,4.24-19.25,24.59-13.97,38.32,3.34,8.7,8.84,18.3,17.38,23.24.16.09.32.18.48.27.16.09.33.17.49.26,3.41-2.55,7.05-4.87,10.59-7.11,4.65-2.95,9.47-6.01,13.82-9.64l.07-.08c3.04-3.91,1.72-8.04.56-11.68l-.12-.39c-4.04-12.75-15.48-26.16-27.87-33.5Z"/><path class="cls-5" d="m402.88,208.83c-2.7-12.83-8.78-22.52-16.66-26.58-4.76-2.45-9.32-4.16-13.68-5.14,14.65,6.16,20.63,20.35,18.69,43.75-1.29,15.56-7,27.58-16.07,33.83-.44.3-.9.56-1.35.84,2.89,1.57,5.91,3.18,9.41,4.8,3.75,1.74,7.83.98,10.14-1.88,9.63-11.92,13.37-31.39,9.53-49.61Z"/><path class="cls-14" d="m403.86,208.62c-2.77-13.13-9.03-23.07-17.18-27.27-6.97-3.59-13.53-5.61-19.67-6.09-.95-.08-1.89-.11-2.83-.11-.82,0-1.63.03-2.43.09-5.02.36-9.73,1.84-14.09,4.46-1.47.89-2.86,1.89-4.19,2.99.59-.07,1.19-.13,1.8-.16.93-.71,1.9-1.37,2.9-1.97,5.63-3.4,11.87-4.81,18.67-4.29,18.04,4.7,25.5,19.01,23.38,44.51-1.27,15.26-6.82,27.01-15.64,33.09-.58.4-1.18.77-1.78,1.12-.16-.09-.33-.18-.49-.27-3.85-2.1-7.48-4.08-11.93-6.02-1.91-.83-3.93-1.52-6-2.12-.38.25-.78.49-1.18.71,2.35.65,4.64,1.39,6.78,2.33,4.38,1.91,7.98,3.87,11.78,5.95.02.01.04.02.07.04.15.08.3.16.44.24.18.1.35.19.53.29,3.06,1.66,6.25,3.37,9.98,5.1,1.11.52,2.26.83,3.38.96,3.09.35,6.05-.75,7.96-3.12,9.81-12.14,13.63-31.94,9.73-50.45Zm-10.51,49.82c-2.31,2.86-6.39,3.62-10.14,1.88-3.5-1.62-6.52-3.23-9.41-4.8.45-.27.91-.54,1.35-.84,9.07-6.25,14.78-18.27,16.07-33.83,1.94-23.4-4.04-37.59-18.69-43.75,4.36.98,8.92,2.69,13.68,5.14,7.88,4.06,13.96,13.75,16.66,26.58,3.84,18.22.1,37.69-9.53,49.61Z"/><path class="cls-5" d="m368.35,219.86c-1.84,10.84-6.16,21.6-13.96,26.71,2.07.6,4.09,1.29,6,2.12,4.45,1.94,8.08,3.92,11.93,6.02.16.09.32.18.49.27.6-.35,1.2-.72,1.78-1.12,8.82-6.08,14.37-17.83,15.64-33.09,2.12-25.49-5.34-39.8-23.38-44.51-6.8-.52-13.04.89-18.67,4.29-1,.6-1.97,1.26-2.9,1.97,1.16-.06,2.36-.05,3.62.04,18.51,1.4,22.25,20.77,19.46,37.29Z"/><path class="cls-2" d="m344.51,244.21c-3.88-.83-7.89-1.68-11.52-2.87-1.95-.64-8.3-3.16-8.25-8.82.15-17.73,6.59-39.41,20.54-49.99-.61.03-1.21.09-1.8.16-13.39,11.1-19.59,32.35-19.74,49.82-.06,6.35,6.83,9.09,8.94,9.78,3.68,1.21,7.72,2.07,11.62,2.9,2.97.63,5.99,1.28,8.91,2.09.4-.22.79-.46,1.18-.71-3.23-.94-6.59-1.65-9.88-2.36Z"/><path class="cls-2" d="m324.74,232.52c-.05,5.67,6.3,8.19,8.25,8.82,3.63,1.19,7.64,2.04,11.52,2.87,3.29.7,6.65,1.42,9.88,2.36,7.8-5.11,12.13-15.88,13.96-26.71,2.8-16.52-.95-35.89-19.46-37.29-1.25-.09-2.45-.1-3.62-.04-13.95,10.59-20.39,32.26-20.54,49.99Z"/><path class="cls-6" d="m341.53,292.83c1.6-4.4.33-10.05-3.31-14.73-8.45-10.87-24.87-13.11-36.95-13.11-4.04,0-7.6.25-10.21.51-2.45.25-4.75.58-6.91.99l.61,6.17c.35,3.54.64,6.43-1.89,6.68l-11.86,1.18c-2.53.25-2.81-2.64-3.17-6.18l-.22-2.2c-9.52,5.25-13.62,12.28-15.38,17.1-2.58,7.08-1.45,12.78.12,14.41,9.05,9.31,15.41,5.62,24.21.5,5.14-2.99,10.96-6.37,18.36-7.56,7.67-1.23,15.5.76,22.41,2.51,11.2,2.85,20.06,5.1,24.19-6.27Z"/><path class="cls-14" d="m339.01,277.48c-8.16-10.49-25.67-15.23-48.06-12.98-2.45.25-4.74.58-6.91.98-6.76,1.26-12.18,3.24-16.53,5.58-10.06,5.42-14.38,12.8-16.22,17.84-2.51,6.87-1.79,13.25.35,15.45,4.28,4.4,8.04,6.03,11.68,6.03,4.52,0,8.85-2.52,13.75-5.37,5.06-2.94,10.8-6.28,18.01-7.44,7.47-1.2,15.19.76,22,2.49,11.24,2.85,20.93,5.32,25.38-6.9,1.74-4.79.45-10.66-3.46-15.69Zm-21.67,21.62c-6.91-1.75-14.74-3.74-22.41-2.51-7.4,1.19-13.22,4.57-18.36,7.56-8.8,5.12-15.16,8.81-24.21-.5-1.58-1.62-2.71-7.32-.12-14.41,1.76-4.82,5.86-11.85,15.38-17.1,4.3-2.37,9.72-4.38,16.52-5.66,2.16-.41,4.46-.74,6.91-.99,2.61-.26,6.17-.51,10.21-.51,12.08,0,28.5,2.24,36.95,13.11,3.64,4.69,4.91,10.33,3.31,14.73-4.14,11.37-12.99,9.12-24.19,6.27Z"/><path class="cls-4" d="m271,280.52l11.86-1.18c2.53-.25,2.24-3.15,1.89-6.68l-.61-6.17c-6.8,1.28-12.22,3.28-16.52,5.66l.22,2.2c.35,3.54.64,6.43,3.17,6.18Z"/><path class="cls-16" d="m191.93,333.16c-6.63-.17-10.39-7.18-10.66-12.26-.34-6.55,7.78-24.25,13.12-21.69,4.54,2.18,9.97,15.74,10.15,22.93.16,6.12-6,11.19-12.62,11.02Z"/></svg>