<?xml version="1.0" encoding="UTF-8"?><svg id="Layer_20" xmlns="http://www.w3.org/2000/svg" width="200" height="200" viewBox="0 0 200 200"><defs><style>.cls-1{fill:#001300;}.cls-2{fill:#fff;}.cls-3{fill:#7fc781;}.cls-4{fill:#288b45;}.cls-5{fill:#262323;}</style></defs><path class="cls-3" d="m135.6,99l-10.63,8.65-9.92,8.07c-1.03.83-2.55.06-2.48-1.26l.84-15.45h-22.91v19.06c0,1.82-1.72,5.22-3,3.94l-10-11-10.86-12h-23.6l28.15,30.21,11.15,11.97v24.67c0,3.38,3.82,6.15,8.49,6.15h18.27c4.67,0,8.49-2.77,8.49-6.15v-26l9.91-10.64,28.15-30.21h-20.03Z"/><path class="cls-5" d="m109.09,172.5h-18.27c-4.96,0-8.99-2.98-8.99-6.65v-24.47l-39.95-42.88h24.97l21.01,23.16c.14.14.25.14.38.09.77-.32,1.75-2.38,1.75-3.69v-19.56h23.94l-.87,15.98c-.02.42.19.78.56.97.37.19.79.15,1.11-.12l20.69-16.83h21.36l-38.71,41.55v25.8c0,3.67-4.03,6.65-8.99,6.65ZM44.19,99.5l38.65,41.48v24.86c0,3.12,3.58,5.65,7.99,5.65h18.27c4.4,0,7.99-2.54,7.99-5.65v-26.19l37.41-40.15h-18.71l-20.41,16.61c-.63.51-1.47.6-2.2.23-.72-.37-1.15-1.1-1.1-1.91l.81-14.93h-21.88v18.56c0,1.43-1.02,4.05-2.37,4.61-.53.22-1.06.1-1.49-.32l-20.73-22.85h-22.23Z"/><path class="cls-4" d="m182.99,81.36c.49-4.15-1.65-7.44-5.66-8.58-.28-.08-.52-.05-.78-.08-1.06-5-4.21-8.09-8.85-10.03-.08-.03-.15-.03-.24-.08-1.27-4.57-3.81-9.5-7.62-12.12-2.19-1.5-3.57-.99-5.84-1.08-1.91-3.7-4.48-7.32-8.4-8.88-1.83-.73-3.1-.52-4.9-.53-1.4-2.83-3.27-5.11-6.29-6.32-3.5-1.41-6.56-.82-9.68,1.13-1.31-.83-2.6-1.59-4.13-1.98-2.67-.69-5.11-.57-7.78.13-2.71-3.29-5.88-5.63-10.21-5.99-3.17-.26-5.67.98-8.24,2.59-1.27-.58-2.37-1.27-3.86-1.28-4.76-.03-7.87,2.54-9.7,6.83-2.91-1.33-5.51-1.96-8.74-1.2-3.24.76-5.93,2.65-7.82,5.39-2.08-.22-3.31-.69-5.54-.04-4.77,1.38-7.41,5.22-9.41,9.72-2.2.1-3.57-.34-5.66,1.12-3.64,2.55-5.74,7.07-6.49,11.57-.1.05-.14.02-.23.05-5.08,1.86-7.51,4.85-8.89,10.04-.3.09-.6.15-.9.32-4.35,2.54-7.23,8.14-6.56,12.86.67,4.73,3.43,6.67,7.65,6.46,1.11,3.84,3.71,5.9,7.56,7.05,1.19.36,2.82.28,4.11.16,2.46,2.16,4.99,3.72,8.25,4.4,4.45.93,8.24.19,12.2-1.98,1.01.4,2.07.68,3.1.99.13.04.09.21.2.34,2.57,2.89,6.01,2.35,9.2.72.22-.11.48-.32.69-.47.79.77,1.56.82,2.58,1.21,2.13.81,4.39,1.42,6.72,1.47,1.89.04,3.58-.27,5.36-.85,1.4.39,2.77.5,4.2.36.71-.07,1.27-.48,1.94-.56.47-.06.99.26,1.49.32,1.87.23,3.68.23,5.54-.13,1.89.58,3.74.81,5.7.84.52,0,1.09-.22,1.58-.1.71.18,1.3.68,2.06.85,1.52.33,3.04.35,4.59.12,1.88.77,3.73,1.22,5.77,1.32,2.52.13,4.94-.45,7.3-1.12,1.16-.33,1.96-.38,2.88-1.14.23.16.53.38.77.5,3.52,1.77,7.28,2.4,10.12-.78.13-.14.08-.33.22-.38,1.12-.36,2.25-.68,3.34-1.16,4.1,1.82,8.13,2.28,12.32.68,3.07-1.17,5.07-3.07,7.13-5.47,1.33-.13,2.73-.21,3.97-.77,4.24-1.89,7.16-4.71,7.36-9.51,3.62-.75,6.07-3.16,6.52-6.95Z"/><path class="cls-5" d="m121.76,107.97c-.24,0-.48,0-.73-.02-1.98-.1-3.83-.51-5.81-1.31-1.63.23-3.15.18-4.63-.15-.46-.1-.85-.3-1.22-.49-.29-.15-.57-.29-.86-.37-.19-.05-.45,0-.73.04-.25.04-.47.08-.74.08-2.13-.04-3.96-.3-5.72-.83-1.74.32-3.57.36-5.58.11-.25-.03-.49-.11-.72-.18-.25-.08-.49-.16-.65-.14-.26.03-.52.13-.8.24-.34.13-.72.28-1.16.32-1.46.14-2.85.03-4.24-.34-1.89.6-3.59.85-5.38.82-2.09-.04-4.34-.54-6.88-1.5-.26-.1-.5-.18-.73-.25-.58-.18-1.14-.36-1.7-.79-.14.1-.29.2-.44.28-4.14,2.12-7.43,1.84-9.8-.83-.07-.08-.12-.17-.15-.24l-.46-.14c-.75-.22-1.52-.44-2.28-.73-4.17,2.24-7.98,2.84-12.34,1.92-2.97-.62-5.54-1.97-8.31-4.38-1.29.11-2.87.16-4.08-.2-4.16-1.25-6.65-3.48-7.78-7.02-.07,0-.15,0-.22,0-4.31,0-6.92-2.38-7.56-6.9-.7-4.94,2.23-10.69,6.81-13.37.26-.15.51-.23.74-.3,1.48-5.33,4.13-8.27,9.09-10.09.91-5.04,3.32-9.24,6.64-11.57,1.76-1.23,3.07-1.22,4.59-1.2.32,0,.66,0,1.02,0,1.71-3.78,4.36-8.2,9.6-9.71,1.82-.52,3.02-.35,4.41-.15.32.05.66.1,1.02.14,1.97-2.74,4.71-4.59,7.94-5.35,3.47-.81,6.19-.03,8.6,1.03,2.04-4.43,5.36-6.67,9.88-6.67h.08c1.32,0,2.36.51,3.36,1,.15.07.3.15.46.22,2.75-1.71,5.24-2.78,8.31-2.53,3.93.33,7.22,2.21,10.35,5.93,2.8-.68,5.19-.7,7.72-.05,1.5.39,2.76,1.1,4.01,1.88,3.38-2.03,6.52-2.35,9.87-1.01,2.74,1.1,4.78,3.1,6.42,6.29.24,0,.47,0,.7,0,1.36-.03,2.52-.05,4.08.58,3.33,1.33,6.05,4.14,8.53,8.86.4,0,.78,0,1.14-.01,1.54-.04,2.86-.07,4.68,1.17,3.38,2.31,6.2,6.73,7.75,12.14h.02c5,2.1,7.97,5.38,9.06,10.02.15,0,.32.02.51.08,4.24,1.21,6.55,4.7,6.02,9.12h0c-.45,3.75-2.82,6.39-6.54,7.3-.31,4.29-2.81,7.42-7.64,9.57-1.19.53-2.48.65-3.72.77l-.21.02c-2.1,2.44-4.15,4.3-7.2,5.46-3.98,1.51-8.07,1.32-12.5-.61-.82.35-1.67.61-2.49.87l-.53.17c-.03.09-.08.19-.17.29-2.57,2.88-6.18,3.18-10.72.89-.17-.08-.36-.21-.53-.32-.69.49-1.33.64-2.06.83-.22.05-.45.11-.7.18-1.99.56-4.29,1.15-6.73,1.15Zm-6.41-2.35l.13.05c1.92.78,3.7,1.19,5.61,1.28,2.56.12,5.03-.5,7.14-1.1.26-.07.5-.13.73-.19.78-.19,1.34-.33,1.97-.86l.29-.25.31.22c.26.18.5.36.71.46,4.14,2.09,7.26,1.87,9.52-.66.02-.12.11-.41.44-.52l.7-.22c.86-.27,1.75-.55,2.58-.92l.2-.09.2.09c4.25,1.89,8.16,2.11,11.94.67,2.92-1.11,4.88-2.93,6.93-5.33l.13-.15.61-.06c1.16-.11,2.37-.22,3.41-.69,4.65-2.07,6.89-4.95,7.06-9.08l.02-.39.38-.08c3.54-.73,5.71-3.05,6.12-6.52h0c.47-3.95-1.51-6.96-5.3-8.04-.12-.03-.24-.04-.39-.04-.11,0-.21,0-.32-.02l-.35-.04-.07-.35c-.95-4.5-3.75-7.66-8.55-9.67-.07-.02-.17-.04-.29-.11l-.18-.1-.06-.2c-1.48-5.3-4.19-9.62-7.42-11.84-1.55-1.06-2.61-1.03-4.09-1-.46.01-.95.02-1.49,0h-.29s-.13-.27-.13-.27c-2.4-4.64-4.99-7.39-8.14-8.65-1.38-.55-2.39-.53-3.69-.5-.33,0-.67,0-1.03,0h-.31s-.14-.28-.14-.28c-1.54-3.11-3.46-5.05-6.03-6.08-3.16-1.27-6-.93-9.23,1.09l-.27.17-.27-.17c-1.26-.79-2.52-1.54-3.99-1.92-2.45-.63-4.77-.59-7.53.13l-.31.08-.2-.25c-3.01-3.66-6.14-5.5-9.86-5.81-2.89-.24-5.25.83-7.93,2.52l-.23.14-.25-.11c-.25-.11-.49-.23-.72-.34-.95-.46-1.84-.89-2.93-.9h-.07c-4.24,0-7.32,2.2-9.17,6.53l-.2.47-.47-.21c-2.73-1.25-5.21-1.92-8.42-1.17-3.08.72-5.68,2.51-7.52,5.18l-.17.25-.3-.03c-.49-.05-.94-.12-1.36-.18-1.33-.2-2.38-.35-3.99.12-4.98,1.44-7.48,5.8-9.09,9.45l-.13.28h-.31c-.5.04-.95.03-1.38.03-1.47-.02-2.52-.03-4.01,1.02-3.18,2.23-5.47,6.32-6.29,11.24l-.04.25-.23.11c-.13.06-.24.08-.3.08-4.76,1.74-7.16,4.46-8.56,9.7l-.07.27-.46.13c-.22.06-.42.12-.6.22-4.18,2.44-6.95,7.87-6.32,12.36.6,4.26,2.9,6.25,7.13,6.03l.4-.02.11.38c.99,3.44,3.22,5.51,7.22,6.71,1.12.33,2.68.25,3.92.14l.21-.02.16.14c2.7,2.37,5.17,3.69,8.02,4.29,4.18.88,7.83.28,11.86-1.93l.21-.11.22.09c.78.31,1.61.55,2.41.78l.65.19c.33.1.41.38.45.49,2.01,2.28,4.91,2.49,8.58.6.17-.08.36-.24.53-.36l.43-.32.31.3c.5.48.97.63,1.62.84.25.08.51.16.79.27,2.43.93,4.58,1.4,6.55,1.44,1.71.03,3.33-.22,5.2-.82l.14-.05.14.04c1.31.37,2.62.48,4.01.34.3-.03.59-.14.89-.26.32-.12.65-.25,1.03-.3.39-.05.76.07,1.09.18.18.06.35.12.53.14,1.98.24,3.69.21,5.39-.12l.12-.02.12.04c1.71.52,3.48.78,5.56.82.19,0,.37-.03.56-.06.35-.06.74-.12,1.14-.02.39.1.73.28,1.06.44.33.17.64.33.97.4,1.41.3,2.85.34,4.41.11l.13-.02Z"/><circle class="cls-2" cx="78.82" cy="64.26" r="11.5"/><path d="m78.82,76.26c-6.62,0-12-5.38-12-12s5.38-12,12-12,12,5.38,12,12-5.38,12-12,12Zm0-23c-6.07,0-11,4.93-11,11s4.93,11,11,11,11-4.93,11-11-4.93-11-11-11Z"/><circle class="cls-2" cx="119.32" cy="71.76" r="10"/><path d="m119.32,82.26c-5.79,0-10.5-4.71-10.5-10.5s4.71-10.5,10.5-10.5,10.5,4.71,10.5,10.5-4.71,10.5-10.5,10.5Zm0-20c-5.24,0-9.5,4.26-9.5,9.5s4.26,9.5,9.5,9.5,9.5-4.26,9.5-9.5-4.26-9.5-9.5-9.5Z"/><circle class="cls-1" cx="77.8" cy="64.62" r="2.41"/><ellipse class="cls-1" cx="120.81" cy="70.7" rx="1.42" ry="1.51"/><path class="cls-1" d="m111.2,93.28c-1.31-4.21-8.59-10.09-18.83-6.9-6.48,2.02-7.68,7.54-3.74,9.54.81.41,1.72.44,2.7.29v-3.23c0-.67.55-1.22,1.22-1.22h2.55c.67,0,1.22.55,1.22,1.22v2.15c1.33-.13,2.57.1,3.55,1.25,6.61,7.67,12.91,1.99,11.32-3.1Z"/><path class="cls-2" d="m91.32,96.21c1.62-.23,3.38-.92,5-1.07v-2.15c0-.67-.55-1.22-1.22-1.22h-2.55c-.67,0-1.22.55-1.22,1.22"/></svg>