<?xml version="1.0" encoding="UTF-8"?><svg xmlns="http://www.w3.org/2000/svg" width="200" height="200" viewBox="0 0 200 200"><defs><style>.cls-1{fill:#006837;}.cls-2{fill:#001300;}.cls-3{fill:#f4901e;}.cls-4{fill:#fff;}.cls-5{fill:#262323;}</style></defs><g id="Layer_8"><path class="cls-3" d="m133.8,63.86c-5.03-.44-10.76-.83-16.65-1.15l-2.61-2.11-7.05-1.61-6,1h-13l-11.2,2.78-.22-.13c-6.8.5-13.24,1.31-19.46,2.43-6.92,1.25-6.84,10.29-5.14,17.72,2.55,11.18,7.51,26.97,13.98,39.58,6.47,12.61,11.9,28.06,23.17,37.22,7.04,5.72,12.31,3.17,16.98.09,7.25-4.78,20.22-32.66,24.19-43.09,3.96-10.43,9.9-27.43,12.18-38.62,1.47-7.21-1.32-13.42-9.18-14.1Z"/><path class="cls-5" d="m97.89,163.49c-2.58,0-5.41-.95-8.57-3.51-8.97-7.28-14.2-18.35-19.26-29.05-1.37-2.9-2.67-5.65-4.04-8.32-6.59-12.86-11.57-28.93-14.02-39.69-.89-3.9-1.97-11.06.81-15.26,1.1-1.66,2.69-2.69,4.73-3.06,6.29-1.13,12.67-1.93,19.51-2.44h.16s.18.1.18.1l11.12-2.74h13l6.01-1.01,7.26,1.66,2.57,2.08c5.74.3,11.44.7,16.5,1.14h0c3.45.3,6.18,1.68,7.91,3.99,1.98,2.65,2.59,6.45,1.72,10.71-2.69,13.16-10.02,32.95-12.21,38.7-3.93,10.35-16.96,38.44-24.38,43.33-2.65,1.74-5.6,3.39-9,3.39Zm-20.92-100.33c-6.75.5-13.05,1.3-19.25,2.42-1.76.32-3.13,1.2-4.07,2.63-2.57,3.89-1.52,10.75-.67,14.49,2.44,10.7,7.38,26.68,13.94,39.46,1.38,2.69,2.68,5.44,4.06,8.35,5.01,10.6,10.2,21.56,18.99,28.71,6.81,5.53,11.83,3.06,16.39.06,7.13-4.69,20.22-32.92,23.99-42.85,2.18-5.73,9.49-25.46,12.16-38.55.81-3.97.26-7.49-1.54-9.91-1.57-2.11-3.99-3.31-7.19-3.59h0c-5.1-.44-10.85-.84-16.63-1.14h-.16s-2.64-2.15-2.64-2.15l-6.84-1.56-5.9.98h-13.02s-11.34,2.82-11.34,2.82l-.26-.16Z"/><path class="cls-1" d="m117.16,62.72l8.57-7.73c.43-1.82-1.52-3.36-3.51-2.77l-6.93,2.06,11.15-10.11c1.3-1.84-1.2-3.93-3.19-2.66l-11.75,6.03c-1.84-.09-2.25-.08-1.9-1.69l5.49-12.94c.24-3.96-3.31-2.09-4.6-.63l-8.47,8.51c-2.4,1.63-3.79-1.68-4.3-3.27l-1.37-15.3c0-5.07-5.44-2.22-5.7,0l-1.91,16.87c-.87,1.55-3.28,1.73-4.42.32l-7.36-9.07c-1.63-1.45-4.39-.16-3.98,1.86l7.12,19.88c.44.98-.5,2.02-1.67,1.85l-15.61-4.14c-2.06-.16-3.17,2.1-1.65,3.33l15.91,9.52c4.95-.37,10.09-.58,15.49-.6,7.52-.04,16.22.23,24.59.68Z"/><path class="cls-5" d="m117.34,63.23h-.21c-9.03-.49-17.53-.74-24.56-.69-5.28.03-10.34.22-15.45.6h-.16s-.14-.07-.14-.07l-15.91-9.52c-.89-.71-1.17-1.72-.79-2.66.42-1.05,1.49-1.71,2.73-1.59l15.7,4.16c.44.06.82-.17,1-.41.1-.13.25-.41.09-.76l-7.13-19.91c-.23-1.14.25-2.15,1.26-2.73.95-.55,2.42-.66,3.53.33l7.42,9.13c.44.54,1.15.82,1.91.76.7-.06,1.3-.41,1.63-.93l1.9-16.76c.19-1.64,2.52-3.39,4.34-3.27.71.04,2.36.45,2.36,3.32l1.36,15.2c.57,1.75,1.38,2.96,2.17,3.24.41.14.86.05,1.35-.29l8.4-8.44c.91-1.03,2.92-2.32,4.29-1.75.59.24,1.27.92,1.17,2.76l-.04.17-5.49,12.94c-.13.65-.07.78-.05.8.09.12.8.15,1.38.18l11.63-5.97c1.29-.82,2.79-.41,3.6.44.81.84.89,2.01.22,2.96l-.07.08-9.52,8.64,4.82-1.44c1.18-.35,2.45-.07,3.32.75.75.7,1.05,1.66.82,2.62l-.04.15-8.84,7.97Zm-23.31-1.69c6.7,0,14.59.23,22.95.67l8.29-7.48c.08-.55-.12-1.1-.56-1.52-.6-.57-1.5-.77-2.35-.52l-9.04,2.69,12.73-11.55c.54-.81.02-1.47-.16-1.65-.51-.53-1.47-.84-2.38-.26l-11.91,6.11h-.26c-1.1-.07-1.76-.1-2.13-.59-.31-.41-.27-.96-.1-1.71l5.48-12.94c.03-.68-.05-1.49-.55-1.7-.75-.31-2.35.58-3.18,1.51l-8.49,8.53c-.84.58-1.59.72-2.32.47-1.53-.53-2.42-2.69-2.81-3.93l-.02-.11-1.37-15.3c0-1.53-.47-2.32-1.42-2.37-1.38-.08-3.17,1.38-3.29,2.39l-1.97,17.05c-.48.86-1.41,1.43-2.47,1.52-1.1.09-2.13-.33-2.77-1.12l-7.36-9.07c-.68-.6-1.66-.52-2.31-.15-.63.36-.92.96-.79,1.59l7.1,19.81c.25.55.17,1.21-.22,1.73-.45.6-1.22.89-2,.78l-15.67-4.15c-.84-.06-1.43.45-1.64.98-.21.53-.05,1.09.43,1.48l15.71,9.4c5.08-.37,10.11-.57,15.36-.59.48,0,.97,0,1.46,0Z"/></g><g id="Layer_9"><circle class="cls-4" cx="77" cy="87.5" r="11.5"/><path d="m77,99.5c-6.62,0-12-5.38-12-12s5.38-12,12-12,12,5.38,12,12-5.38,12-12,12Zm0-23c-6.07,0-11,4.93-11,11s4.93,11,11,11,11-4.93,11-11-4.93-11-11-11Z"/><circle class="cls-4" cx="117.5" cy="95" r="10"/><path d="m117.5,105.5c-5.79,0-10.5-4.71-10.5-10.5s4.71-10.5,10.5-10.5,10.5,4.71,10.5,10.5-4.71,10.5-10.5,10.5Zm0-20c-5.24,0-9.5,4.26-9.5,9.5s4.26,9.5,9.5,9.5,9.5-4.26,9.5-9.5-4.26-9.5-9.5-9.5Z"/><circle class="cls-2" cx="75.98" cy="87.86" r="2.41"/><ellipse class="cls-2" cx="118.99" cy="93.94" rx="1.42" ry="1.51"/><path class="cls-2" d="m109.38,116.52c-1.31-4.21-8.59-10.09-18.83-6.9-6.48,2.02-7.68,7.54-3.74,9.54.81.41,1.72.44,2.7.29v-3.23c0-.67.55-1.22,1.22-1.22h2.55c.67,0,1.22.55,1.22,1.22v2.15c1.33-.13,2.57.1,3.55,1.25,6.61,7.67,12.91,1.99,11.32-3.1Z"/><path class="cls-4" d="m89.5,119.45c1.62-.23,3.38-.92,5-1.07v-2.15c0-.67-.55-1.22-1.22-1.22h-2.55c-.67,0-1.22.55-1.22,1.22"/></g></svg>