<?xml version="1.0" encoding="UTF-8"?><svg id="Layer_14" xmlns="http://www.w3.org/2000/svg" width="1106" height="768" viewBox="0 0 1106 768"><defs><style>.cls-1{fill:#fff;}.cls-2{fill:#efefef;}.cls-3{fill:#c9c9c9;}.cls-4{fill:#231f20;}</style></defs><path class="cls-2" d="m473.81,729.25c0-22.33-18.01-40.43-40.24-40.43-3.14,0-6.19.37-9.12,1.06-2.84-19.01-17.82-34.31-37.27-38.63-1.21-20.48-17.21-42.53-30.42-49.05-11.1-5.49-31.08-5.36-46.87,1.84-7.75-9-17.9-16.06-25.96-18.36-6.23-1.78-14.67-1.7-23.14.13,0-.32.02-.64.03-.96.18-26.39-22.08-47.58-52.93-47.84-6.91-.06-13.5,1.21-19.56,3.39-9.65-15.06-27.56-28.75-56.6-31.12-.82-.07-1.62-.12-2.41-.16-4-16.93-28.78-32.24-43.93-33.98-11.7-1.35-29.66,4-40.61,13.69-7.8-5.54-17.33-8.82-27.63-8.82-26.4,0-47.8,21.42-47.8,47.84,0,14.4,6.37,27.31,16.43,36.08v90.24h.18v115.85h375v-.07h88v-3.32c14.59-6.07,24.86-20.51,24.86-37.37Z"/><path class="cls-4" d="m360.95,770.51H-14.55v-115.85h-.18v-90.51c-10.44-9.19-16.43-22.41-16.43-36.3,0-26.65,21.67-48.34,48.3-48.34,9.93,0,19.47,3,27.6,8.68,11.61-10.09,29.75-14.81,40.7-13.55,14.9,1.72,39.88,16.71,44.27,34,.67.04,1.35.08,2.05.14,24.95,2.04,45.1,13.05,56.77,31.01,6.34-2.23,12.86-3.33,19.35-3.28,30.65.25,53.62,21.04,53.43,48.34,0,.11,0,.22,0,.33,8.39-1.73,16.65-1.73,22.76.01,8.17,2.33,18.33,9.47,25.96,18.23,15.09-6.75,35.21-7.49,46.96-1.68,13.42,6.63,29.31,28.97,30.67,49.09,19.33,4.45,34.2,19.81,37.21,38.43,2.88-.63,5.8-.95,8.71-.95,22.46,0,40.74,18.36,40.74,40.93,0,16.51-9.75,31.27-24.86,37.7v3.49h-88l-.5.07Zm-374.5-1h374l.5-.07h87.5v-3.15l.31-.13c14.92-6.2,24.56-20.69,24.56-36.9,0-22.02-17.83-39.93-39.74-39.93-3.01,0-6.04.35-9.01,1.04l-.53.12-.08-.54c-2.77-18.57-17.6-33.93-36.89-38.22l-.37-.08-.02-.38c-1.17-19.89-16.88-42.08-30.14-48.63-11.6-5.73-31.57-4.94-46.44,1.84l-.34.16-.25-.28c-7.54-8.75-17.63-15.9-25.72-18.21-6.1-1.74-14.45-1.69-22.9.14l-.62.13.03-1.02c0-.19.01-.37.01-.56.19-26.73-22.36-47.08-52.44-47.33-6.51-.03-13.04,1.07-19.38,3.36l-.38.13-.21-.34c-11.46-17.9-31.43-28.87-56.22-30.89-.81-.07-1.61-.12-2.39-.16l-.37-.02-.09-.36c-2.8-11.83-22.3-31.16-43.5-33.6-10.83-1.25-28.83,3.49-40.22,13.57l-.3.26-.32-.23c-8.03-5.71-17.49-8.72-27.34-8.72-26.08,0-47.3,21.24-47.3,47.34,0,13.68,5.93,26.69,16.26,35.7l.17.15v89.97h.18v115.85Z"/><path class="cls-4" d="m191.02,645.7s11.05-19.01,39.52-19.01c28.47,0,34.42,22.32,34.42,22.32-1.37-11.97-16.89-24.64-34.42-23.97-17.43.67-35.57,9.69-39.52,20.67Z"/><path class="cls-4" d="m22.95,703.01s5.75-24.8,37.46-23.39c31.44,1.39,38.54,31.39,38.54,31.39-1.53-14.48-19.01-34.2-38.54-33.39-19.42.81-33.9,10.39-37.46,25.39Z"/><path class="cls-4" d="m-53.24,613.77s5.75-24.8,37.46-23.39c31.44,1.39,38.54,31.39,38.54,31.39-1.53-14.48-19.01-34.2-38.54-33.39-19.42.81-33.9,10.39-37.46,25.39Z"/><path class="cls-4" d="m4.98,596.32s4.97-17.31,31.97-22.31c29.48-5.46,39.6,9.89,39.6,9.89-3.73-8.94-23.06-17.56-41-12.53-17.84,5-29.69,14.5-30.57,24.95Z"/><path class="cls-4" d="m322.95,673.19s14.36-23.16,51.36-23c37.06.16,47.38,28.91,46.64,26.82-4-14-23.85-29.63-46.64-28.82-22.66.81-46.23,11.72-51.36,25Z"/><path class="cls-4" d="m182.4,541.88c.17-.24,30.33-9.52,52.59,1.75,27.2,13.76,23.96,35.38,24.96,46.38,3.22-25.62-13-43-24.4-47.81s-35.1-10.23-53.16-.32Z"/><path class="cls-4" d="m36.79,500.93s10.35-30.96,51.16-23.92c40.81,7.04,42,40,42,40,0-22-15.27-37.56-41-42-25.73-4.44-49.05,7.9-52.16,25.92Z"/><path class="cls-4" d="m350.95,598.81c-3.93-.92-8.17-1.53-12.61-1.76-21.43-1.11-39.33,9.78-39.91,20.93,0,0,6.29-20.18,40.31-19.1,4.2.13,18.2,3.13,22.2,5.13l-10-5.2Z"/><path class="cls-1" d="m223.6,644.11c-4.01-3.12-.48-8.1,8.13-8.1,13.61,0,20.22,7.87,20.22,12.34,0,5.4-9.77,9-14.89-.41-2.26-4.16-10.16-1.27-13.46-3.84Z"/><path class="cls-1" d="m85.1,501.85c-4.01-3.12-.48-8.1,8.13-8.1,13.61,0,20.22,7.87,20.22,12.34,0,5.4-9.77,9-14.89-.41-2.26-4.16-10.16-1.27-13.46-3.84Z"/><path class="cls-1" d="m205.91,552.34c-3.54-2.15-.43-5.59,7.19-5.59,12.02,0,17.86,5.43,17.86,8.52,0,3.73-8.63,6.21-13.15-.28-2-2.87-8.97-.87-11.89-2.65Z"/><path class="cls-1" d="m363.09,661.51c-4.93-2.1-.59-5.45,10-5.45,16.74,0,24.86,5.3,24.86,8.3,0,3.63-12.01,6.06-18.31-.27-2.78-2.8-12.49-.85-16.55-2.58Z"/><path class="cls-4" d="m224.95,626.01s-.01-.06-.02-.1c0,0,0,0-.01,0,.02.06.03.1.03.1Z"/><path class="cls-3" d="m218.95,624.01c-18.07,4.5-25,12-28,22,0,0,5.76-13.46,28-19,2.06-.51,4.05-.87,5.97-1.1-.09-.3-.45-1.37-1.19-2.89-1.58.26-3.17.58-4.78.98Z"/><path class="cls-3" d="m255.95,634.01c-4-7-16-13-31.74-11.06.34.99.59,1.98.72,2.96,18.86-2.22,31.02,8.1,31.02,8.1Z"/><path class="cls-4" d="m149.37,622.51s7.17-19.57,37.28-19.03c30.3.54,38.72,23.34,38.72,23.34-1.54-11.98-18.99-25.17-38.72-25-22.7.19-32.84,9.7-37.28,20.69Z"/><path class="cls-3" d="m323.95,671.01s9.16-13.36,28-19c18.84-5.64,33-3,33-3-8-6-22.12-4.55-34-1-11.88,3.55-27,14-27,23Z"/><path class="cls-3" d="m5.95,592.01s6.16-13.36,25-19c18.84-5.64,34,1,34,1-8-6-23.12-7.55-35-4-11.88,3.55-24,13-24,22Z"/><path class="cls-3" d="m150.95,619.01s5.84-12.52,25.18-16.07c19.34-3.55,35.82,6.07,35.82,6.07-7.3-6.83-21-12-36.48-9.17-12.2,2.23-23.54,10.22-24.52,19.17Z"/><path class="cls-1" d="m56.74,588.22c4.93-2.1.59-5.45-10-5.45-16.74,0-24.86,5.3-24.86,8.3,0,3.63,8.07,3.93,18.31-.27,3.65-1.5,12.49-.85,16.55-2.58Z"/><path class="cls-2" d="m621.97,722.4c0-22.33,18.01-40.43,40.24-40.43,3.14,0,6.19.37,9.12,1.06,2.84-19.01,17.82-34.31,37.27-38.63,1.21-20.48,17.21-42.53,30.42-49.05,11.1-5.49,31.08-5.36,46.87,1.84,7.75-9,17.9-16.06,25.96-18.36,6.23-1.78,14.67-1.7,23.14.13,0-.32-.02-.64-.03-.96-.18-26.39,22.08-47.58,52.93-47.84,6.91-.06,13.5,1.21,19.56,3.39,9.65-15.06,27.56-28.75,56.6-31.12.82-.07,1.62-.12,2.41-.16,4-16.93,28.78-32.24,43.93-33.98,11.7-1.35,29.66,4,40.61,13.69,7.8-5.54,17.33-8.82,27.63-8.82,26.4,0,47.8,21.42,47.8,47.84,0,14.4-6.37,27.31-16.43,36.08v90.24h-.18s0,115.85,0,115.85h-375v-.07s-88,0-88,0v-3.32c-14.59-6.07-24.86-20.51-24.86-37.37Z"/><path class="cls-4" d="m1110.33,763.65h-376v-.07h-88v-3.49c-15.12-6.43-24.86-21.19-24.86-37.7,0-22.57,18.27-40.93,40.74-40.93,2.91,0,5.84.32,8.71.95,3.01-18.62,17.88-33.99,37.21-38.43,1.36-20.12,17.25-42.46,30.67-49.09,11.75-5.81,31.87-5.08,46.96,1.68,7.63-8.76,17.79-15.9,25.96-18.23,6.1-1.74,14.37-1.74,22.76-.01,0-.11,0-.22,0-.33-.19-27.3,22.78-48.08,53.43-48.34,6.53-.04,13.02,1.05,19.35,3.28,11.67-17.97,31.81-28.98,56.76-31.01.7-.06,1.38-.1,2.05-.14,4.39-17.29,29.38-32.29,44.27-34,10.94-1.26,29.08,3.46,40.7,13.55,8.13-5.68,17.67-8.68,27.6-8.68,26.63,0,48.3,21.68,48.3,48.34,0,13.9-5.99,27.11-16.43,36.3v90.51h-.18v115.85Zm-375-1h374v-115.85h.18v-89.97l.17-.15c10.33-9.01,16.26-22.02,16.26-35.7,0-26.1-21.22-47.34-47.3-47.34-9.86,0-19.31,3.02-27.34,8.72l-.32.23-.3-.26c-11.39-10.08-29.39-14.82-40.22-13.57-14.72,1.7-39.47,16.56-43.5,33.6l-.09.36-.37.02c-.78.04-1.58.09-2.39.16-24.79,2.02-44.76,12.99-56.22,30.89l-.21.34-.38-.13c-6.34-2.28-12.83-3.39-19.38-3.36-30.08.25-52.62,20.6-52.44,47.33,0,.19,0,.37.01.55l.03,1.03-.62-.13c-8.45-1.83-16.8-1.88-22.9-.14-8.09,2.31-18.18,9.46-25.72,18.21l-.25.28-.34-.16c-14.88-6.78-34.84-7.58-46.44-1.84-13.26,6.55-28.97,28.74-30.14,48.63l-.02.38-.37.08c-19.29,4.29-34.12,19.65-36.89,38.22l-.08.54-.53-.12c-2.97-.69-6-1.04-9.01-1.04-21.91,0-39.74,17.91-39.74,39.93,0,16.22,9.64,30.7,24.56,36.91l.31.13v3.15h88v.07Z"/><path class="cls-4" d="m904.76,638.85s-11.05-19.01-39.52-19.01c-28.47,0-34.42,22.32-34.42,22.32,1.37-11.97,16.89-24.64,34.42-23.97,17.43.67,35.57,9.69,39.52,20.67Z"/><path class="cls-4" d="m1072.83,696.15s-5.75-24.8-37.46-23.39c-31.44,1.39-38.54,31.39-38.54,31.39,1.53-14.48,19.01-34.2,38.54-33.39,19.42.81,33.9,10.39,37.46,25.39Z"/><path class="cls-4" d="m1149.02,606.91s-5.75-24.8-37.46-23.39c-31.44,1.39-38.54,31.39-38.54,31.39,1.53-14.48,19.01-34.2,38.54-33.39,19.42.81,33.9,10.39,37.46,25.39Z"/><path class="cls-4" d="m1090.8,589.47s-4.97-17.31-31.97-22.31c-29.48-5.46-39.6,9.89-39.6,9.89,3.73-8.94,23.06-17.56,41-12.53,17.84,5,29.69,14.5,30.57,24.95Z"/><path class="cls-4" d="m772.83,666.34s-14.36-23.16-51.36-23c-37.06.16-47.38,28.91-46.64,26.82,4-14,23.85-29.63,46.64-28.82,22.66.81,46.23,11.72,51.36,25Z"/><path class="cls-4" d="m913.38,535.03c-.17-.24-30.33-9.52-52.59,1.75-27.2,13.76-23.96,35.38-24.96,46.38-3.22-25.62,13-43,24.4-47.81s35.1-10.23,53.16-.32Z"/><path class="cls-4" d="m1058.99,494.07s-10.35-30.96-51.16-23.92c-40.81,7.04-42,40-42,40,0-22,15.27-37.56,41-42,25.73-4.44,49.05,7.9,52.16,25.92Z"/><path class="cls-4" d="m744.83,591.96c3.93-.92,8.17-1.53,12.61-1.76,21.43-1.11,39.33,9.78,39.91,20.93,0,0-6.29-20.18-40.31-19.1-4.2.13-18.2,3.13-22.2,5.13l10-5.2Z"/><path class="cls-1" d="m872.18,637.25c4.01-3.12.48-8.1-8.13-8.1-13.61,0-20.22,7.87-20.22,12.34,0,5.4,9.77,9,14.89-.41,2.26-4.16,10.16-1.27,13.46-3.84Z"/><path class="cls-1" d="m1010.68,495c4.01-3.12.48-8.1-8.13-8.1-13.61,0-20.22,7.87-20.22,12.34,0,5.4,9.77,9,14.89-.41,2.26-4.16,10.16-1.27,13.46-3.84Z"/><path class="cls-1" d="m889.87,545.49c3.54-2.15.43-5.59-7.19-5.59-12.02,0-17.86,5.43-17.86,8.52,0,3.73,8.63,6.21,13.15-.28,2-2.87,8.97-.87,11.89-2.65Z"/><path class="cls-1" d="m732.69,654.66c4.93-2.1.59-5.45-10-5.45-16.74,0-24.86,5.3-24.86,8.3,0,3.63,12.01,6.06,18.31-.27,2.78-2.8,12.49-.85,16.55-2.58Z"/><path class="cls-4" d="m870.83,619.15s.01-.06.02-.1c0,0,0,0,.01,0-.02.06-.03.1-.03.1Z"/><path class="cls-3" d="m876.83,617.15c18.07,4.5,25,12,28,22,0,0-5.76-13.46-28-19-2.06-.51-4.05-.87-5.97-1.1.09-.3.45-1.37,1.19-2.89,1.58.26,3.17.58,4.78.98Z"/><path class="cls-3" d="m839.83,627.15c4-7,16-13,31.74-11.06-.34.99-.59,1.98-.72,2.96-18.86-2.22-31.02,8.1-31.02,8.1Z"/><path class="cls-4" d="m946.41,615.65s-7.17-19.57-37.28-19.03-38.72,23.34-38.72,23.34c1.54-11.98,18.99-25.17,38.72-25,22.7.19,32.84,9.7,37.28,20.69Z"/><path class="cls-3" d="m771.83,664.15s-9.16-13.36-28-19c-18.84-5.64-33-3-33-3,8-6,22.12-4.55,34-1,11.88,3.55,27,14,27,23Z"/><path class="cls-3" d="m1089.83,585.15s-6.16-13.36-25-19c-18.84-5.64-34,1-34,1,8-6,23.12-7.55,35-4,11.88,3.55,24,13,24,22Z"/><path class="cls-3" d="m944.83,612.15s-5.84-12.52-25.18-16.07c-19.34-3.55-35.82,6.07-35.82,6.07,7.3-6.83,21-12,36.48-9.17,12.2,2.23,23.54,10.22,24.52,19.17Z"/><path class="cls-1" d="m1039.04,581.37c-4.93-2.1-.59-5.45,10-5.45,16.74,0,24.86,5.3,24.86,8.3,0,3.63-8.07,3.93-18.31-.27-3.65-1.5-12.49-.85-16.55-2.58Z"/></svg>