<?xml version="1.0" encoding="UTF-8"?><svg xmlns="http://www.w3.org/2000/svg" width="1241.9" height="737.27" xmlns:xlink="http://www.w3.org/1999/xlink" viewBox="0 0 1241.9 737.27"><defs><style>.cls-1{fill:none;}.cls-2{clip-path:url(#clippath);}.cls-3{fill:#f98869;}.cls-4{fill:#001300;}.cls-5{fill:#ebefe1;}.cls-6{fill:#eaeee1;}.cls-7{fill:#e6ebdf;}.cls-8{fill:#e9eee0;}.cls-9{fill:#fbd3e0;}.cls-10{fill:#e7ecdf;}.cls-11{fill:#e3e9de;}.cls-12{fill:#e3e4df;}.cls-13{fill:#e8ede0;}.cls-14{fill:#fff;}.cls-15{fill:#f389a6;}.cls-16{fill:#e5ebdf;}.cls-17{fill:#e2e9de;}.cls-18{fill:#e4eade;}.cls-19{fill:#fdf9f8;}.cls-20{fill:#7da0b7;}.cls-21{fill:#80a3b9;}.cls-22{fill:#81a3b9;}.cls-23{fill:#7ea1b8;}.cls-24{fill:#98b4c2;}.cls-25{fill:#97b3c1;}.cls-26{fill:#7fa2b8;}.cls-27{fill:#7ca0b7;}.cls-28{fill:#91afbf;}.cls-29{fill:#9bb6c3;}.cls-30{fill:#9eb8c4;}.cls-31{fill:#92b0bf;}.cls-32{fill:#9fb9c4;}.cls-33{fill:#9fc89e;}.cls-34{fill:#93b0c0;}.cls-35{fill:#84a6ba;}.cls-36{fill:#85a6ba;}.cls-37{fill:#c2d1d1;}.cls-38{fill:#b4c7cc;}.cls-39{fill:#8aaabc;}.cls-40{fill:#9cb7c3;}.cls-41{fill:#b5c8cc;}.cls-42{fill:#b8cace;}.cls-43{fill:#8babbd;}.cls-44{fill:#9db8c4;}.cls-45{fill:#9bbda8;}.cls-46{fill:#8cabbd;}.cls-47{fill:#8fadbe;}.cls-48{fill:#b3c7cc;}.cls-49{fill:#90aebf;}.cls-50{fill:#b6c9cd;}.cls-51{fill:#c1d1d1;}.cls-52{fill:#baccce;}.cls-53{fill:#8dacbe;}.cls-54{fill:#b9cbce;}.cls-55{fill:#8eadbe;}.cls-56{fill:#a0bac5;}.cls-57{fill:#b7cacd;}.cls-58{fill:#cedad6;}.cls-59{fill:#cdd9d6;}.cls-60{fill:#adc3ca;}.cls-61{fill:#a5bdc7;}.cls-62{fill:#a7bfc7;}.cls-63{fill:#a8bfc8;}.cls-64{fill:#bfcfd0;}.cls-65{fill:#b1c5cb;}.cls-66{fill:#aac1c9;}.cls-67{fill:#bccdcf;}.cls-68{fill:#a6bec7;}.cls-69{fill:#aec4ca;}.cls-70{fill:#b0c5cb;}.cls-71{fill:#a4bdc6;}.cls-72{fill:#b2c6cb;}.cls-73{fill:#a3bcc6;}.cls-74{fill:#c0d0d1;}.cls-75{fill:#bbcccf;}.cls-76{fill:#bddda1;}.cls-77{fill:#bdcecf;}.cls-78{fill:#aaedff;}.cls-79{fill:#a9c0c8;}.cls-80{fill:#becfd0;}.cls-81{fill:#ccd9d5;}.cls-82{fill:#cbd8d5;}.cls-83{fill:#c6d4d3;}.cls-84{fill:#c9d7d4;}.cls-85{fill:#cfdbd6;}.cls-86{fill:#c7d5d3;}.cls-87{fill:#dde5dc;}.cls-88{fill:#dce4db;}.cls-89{fill:#d2ddd7;}.cls-90{fill:#d1dcd7;}.cls-91{fill:#d1e3e3;}.cls-92{fill:#c3d2d2;}.cls-93{fill:#c4d3d2;}.cls-94{fill:#d0dcd7;}.cls-95{fill:#d6e0d9;}.cls-96{fill:#e1b3bc;}.cls-97{fill:#dbe3db;}.cls-98{fill:#daefef;}.cls-99{fill:#d4ded8;}.cls-100{fill:#d9e2da;}.cls-101{fill:#dfe6dc;}.cls-102{fill:#d7e1d9;}.cls-103{fill:#cad7d4;}.cls-104{fill:#abc2c9;}.cls-105{fill:#d8e1da;}.cls-106{fill:#acc2c9;}.cls-107{fill:#d3ded8;}.cls-108{fill:#c5d4d3;}.cls-109{fill:#dae3db;}.cls-110{fill:#e1e8dd;}.cls-111{fill:#e0e7dd;}.cls-112{fill:#c8d6d4;}.cls-113{fill:#dee6dc;}.cls-114{fill:#d5dfd9;}.cls-115{fill:#94b1c0;}.cls-116{fill:#a1bac5;}.cls-117{fill:#a2bbc6;}.cls-118{fill:#96b2c1;}.cls-119{fill:#95b2c1;}.cls-120{fill:#89a9bc;}.cls-121{fill:#87a8bb;}.cls-122{fill:#99b5c2;}.cls-123{fill:#88a8bc;}.cls-124{fill:#86a7bb;}.cls-125{fill:#9ab5c2;}.cls-126{fill:#29a8df;}.cls-127{fill:#262323;}.cls-128{fill:#352f15;}.cls-129{fill:#3b3f48;}.cls-130{fill:#83a5ba;}.cls-131{fill:#749ab4;}.cls-132{fill:#789db6;}.cls-133{fill:#799eb6;}.cls-134{fill:#769bb5;}.cls-135{fill:#779cb5;}.cls-136{fill:#759bb4;}.cls-137{fill:#82a4b9;}.cls-138{fill:#7b9fb7;}.cls-139{fill:#7a9eb6;}</style><clipPath id="clippath"><rect class="cls-1" x="-.56" y="-.46" width="1242.38" height="737.83"/></clipPath></defs><g id="Layer_22"><g class="cls-2"><rect class="cls-131" x="-.56" y="-.46" width="1242.38" height="737.83"/><path class="cls-131" d="m1150.54,368.45c0,128.78-59.31,245.37-155.2,329.76-11.99,10.55-24.54,20.6-37.63,30.1-6.54,4.75-13.22,9.37-20.02,13.84v-3.45H303.59v3.45c-6.8-4.48-13.48-9.09-20.02-13.84-13.09-9.5-25.64-19.55-37.63-30.1-95.89-84.39-155.2-200.98-155.2-329.76S150.04,123.08,245.94,38.69c11.99-10.55,24.54-20.6,37.63-30.1,6.54-4.75,13.22-9.37,20.02-13.84V-1.8h634.1v-3.45c6.8,4.48,13.48,9.09,20.02,13.84,13.09,9.5,25.64,19.55,37.63,30.1,95.89,84.39,155.2,200.98,155.2,329.76Z"/><path class="cls-136" d="m1146.1,368.45c0,127.7-58.81,243.32-153.91,327-11.89,10.46-24.34,20.42-37.32,29.85-6.49,4.71-13.11,9.29-19.85,13.73v-.33H306.24v.33c-6.74-4.44-13.36-9.02-19.85-13.73-12.98-9.42-25.43-19.39-37.32-29.85-95.09-83.69-153.91-199.3-153.91-327S153.98,125.14,249.07,41.45c11.89-10.46,24.34-20.42,37.32-29.85,6.49-4.71,13.11-9.29,19.85-13.73v.33h628.79v-.33c6.74,4.44,13.36,9.02,19.85,13.73,12.98,9.42,25.43,19.39,37.32,29.85,95.09,83.69,153.91,199.3,153.91,327Z"/><path class="cls-134" d="m1141.66,368.45c0,126.62-58.32,241.26-152.61,324.24-11.79,10.37-24.13,20.25-37,29.6-6.43,4.67-13,9.21-19.68,13.61-3.34,2.2-6.72,4.37-10.12,6.5v-3.69H319.02v3.69c-3.4-2.13-6.78-4.3-10.12-6.5-6.69-4.4-13.25-8.94-19.68-13.61-12.87-9.34-25.21-19.22-37-29.6-94.29-82.98-152.61-197.62-152.61-324.24S157.92,127.19,252.21,44.21c11.79-10.37,24.13-20.25,37-29.6,6.43-4.67,13-9.21,19.68-13.61,3.34-2.2,6.72-4.37,10.12-6.5V-1.8h603.24v-3.69c3.4,2.13,6.78,4.3,10.12,6.5,6.69,4.4,13.25,8.94,19.68,13.61,12.87,9.34,25.21,19.22,37,29.6,94.29,82.98,152.61,197.62,152.61,324.24Z"/><path class="cls-135" d="m1137.23,368.45c0,125.55-57.82,239.21-151.31,321.48-23.37,20.57-48.97,39.18-76.45,55.52v-6.74H331.8v6.74c-27.48-16.34-53.08-34.95-76.45-55.52-93.49-82.27-151.31-195.94-151.31-321.48S161.86,129.25,255.35,46.97c23.37-20.57,48.97-39.18,76.45-55.52V-1.8h577.66v-6.74c27.48,16.34,53.08,34.95,76.45,55.52,93.49,82.27,151.31,195.94,151.31,321.48Z"/><path class="cls-132" d="m1132.79,368.45c0,124.47-57.33,237.15-150.01,318.72-23.17,20.39-48.55,38.84-75.8,55.04v-3.51H334.28v3.51c-27.25-16.2-52.63-34.65-75.8-55.04-92.68-81.57-150.01-194.25-150.01-318.72s57.33-237.15,150.01-318.72c23.17-20.39,48.55-38.84,75.8-55.04V-1.8h572.7v-3.51c27.25,16.2,52.63,34.65,75.8,55.04,92.68,81.57,150.01,194.25,150.01,318.72Z"/><path class="cls-133" d="m1128.36,368.45c0,123.39-56.83,235.1-148.71,315.96-22.97,20.22-48.13,38.5-75.14,54.56v-.27H336.76v.27c-27.01-16.06-52.17-34.35-75.14-54.56-91.88-80.86-148.71-192.57-148.71-315.96s56.83-235.1,148.71-315.96c22.97-20.22,48.13-38.5,75.14-54.56v.27h567.74v-.27c27.01,16.06,52.17,34.35,75.14,54.56,91.88,80.86,148.71,192.57,148.71,315.96Z"/><path class="cls-139" d="m1123.92,368.45c0,122.31-56.33,233.04-147.41,313.2-22.77,20.04-47.71,38.17-74.48,54.09-6.69,3.98-13.5,7.82-20.42,11.52v-8.55H359.66v8.55c-6.92-3.7-13.73-7.54-20.42-11.52-26.77-15.92-51.72-34.05-74.48-54.09-91.08-80.15-147.41-190.89-147.41-313.2s56.33-233.04,147.41-313.2c22.77-20.04,47.71-38.17,74.48-54.09,6.69-3.98,13.5-7.82,20.42-11.52V-1.8h521.94v-8.55c6.92,3.7,13.73,7.54,20.42,11.52,26.77,15.92,51.72,34.05,74.48,54.09,91.08,80.15,147.41,190.89,147.41,313.2Z"/><path class="cls-138" d="m1119.48,368.45c0,121.23-55.84,230.99-146.11,310.44-22.57,19.86-47.29,37.83-73.83,53.61-6.63,3.94-13.38,7.75-20.24,11.42v-5.21H361.96v5.21c-6.86-3.67-13.61-7.47-20.24-11.42-26.54-15.78-51.26-33.75-73.83-53.61-90.27-79.45-146.11-189.2-146.11-310.44s55.84-230.99,146.11-310.44c22.57-19.86,47.29-37.83,73.83-53.61,6.63-3.94,13.38-7.75,20.24-11.42V-1.8h517.34v-5.21c6.86,3.67,13.61,7.47,20.24,11.42,26.54,15.78,51.26,33.75,73.83,53.61,90.27,79.45,146.11,189.2,146.11,310.44Z"/><path class="cls-27" d="m1115.05,368.45c0,120.16-55.34,228.94-144.81,307.68-22.37,19.69-46.87,37.49-73.17,53.13-6.58,3.91-13.26,7.68-20.06,11.32v-1.87H364.26v1.87c-6.8-3.63-13.48-7.41-20.06-11.32-26.3-15.64-50.8-33.45-73.17-53.13-89.47-78.74-144.81-187.52-144.81-307.68s55.34-228.94,144.81-307.68c22.37-19.69,46.87-37.49,73.17-53.13,6.58-3.91,13.26-7.68,20.06-11.32v1.87h512.74v-1.87c6.8,3.63,13.48,7.41,20.06,11.32,26.3,15.64,50.8,33.45,73.17,53.13,89.47,78.74,144.81,187.52,144.81,307.68Z"/><path class="cls-20" d="m1110.61,368.45c0,119.08-54.84,226.88-143.51,304.92-22.17,19.51-46.45,37.16-72.52,52.66-13.03,7.75-26.51,14.96-40.4,21.6v-8.92h-467.1v8.92c-13.89-6.64-27.37-13.85-40.4-21.6-26.07-15.5-50.35-33.15-72.52-52.66-88.67-78.04-143.51-185.84-143.51-304.92s54.84-226.88,143.51-304.92c22.17-19.51,46.45-37.16,72.52-52.66,13.03-7.75,26.51-14.96,40.4-21.6V-1.8h467.1v-8.92c13.89,6.64,27.37,13.85,40.4,21.6,26.07,15.5,50.35,33.15,72.52,52.66,88.67,78.04,143.51,185.84,143.51,304.92Z"/><path class="cls-23" d="m1106.17,368.45c0,118-54.35,224.83-142.21,302.16-21.97,19.33-46.03,36.82-71.86,52.18-12.92,7.68-26.27,14.83-40.03,21.4v-5.49h-462.87v5.49c-13.76-6.58-27.12-13.72-40.03-21.4-25.83-15.36-49.89-32.85-71.86-52.18-87.87-77.33-142.21-184.16-142.21-302.16s54.35-224.83,142.21-302.16c21.97-19.33,46.03-36.82,71.86-52.18,12.92-7.68,26.27-14.83,40.03-21.4V-1.8h462.87v-5.49c13.76,6.58,27.12,13.72,40.03,21.4,25.83,15.36,49.89,32.85,71.86,52.18,87.87,77.33,142.21,184.16,142.21,302.16Z"/><path class="cls-26" d="m1101.74,368.45c0,116.92-53.85,222.77-140.91,299.4-21.77,19.16-45.61,36.48-71.2,51.7-12.8,7.61-26.03,14.69-39.67,21.21v-2.05h-458.64v2.05c-13.63-6.52-26.87-13.6-39.67-21.21-25.59-15.22-49.44-32.55-71.2-51.7-87.06-76.62-140.91-182.47-140.91-299.4s53.85-222.77,140.91-299.4c21.77-19.16,45.61-36.48,71.2-51.7,12.8-7.61,26.03-14.69,39.67-21.21V-1.8h458.64v-2.05c13.63,6.52,26.87,13.6,39.67,21.21,25.59,15.22,49.44,32.55,71.2,51.7,87.06,76.62,140.91,182.47,140.91,299.4Z"/><path class="cls-21" d="m1097.3,368.45c0,115.84-53.35,220.72-139.61,296.63-21.56,18.98-45.19,36.15-70.55,51.23-12.68,7.54-25.79,14.55-39.3,21.01-6.75,3.23-13.61,6.32-20.55,9.26v-7.88h-413.31v7.88c-6.95-2.95-13.8-6.04-20.55-9.26-13.51-6.46-26.62-13.47-39.3-21.01-25.36-15.08-48.98-32.25-70.55-51.23-86.26-75.92-139.61-180.79-139.61-296.63s53.35-220.72,139.61-296.63c21.56-18.98,45.19-36.15,70.55-51.23,12.68-7.54,25.79-14.55,39.3-21.01,6.75-3.23,13.61-6.32,20.55-9.26V-1.8h413.31v-7.88c6.95,2.95,13.8,6.04,20.55,9.26,13.51,6.46,26.62,13.47,39.3,21.01,25.36,15.08,48.98,32.25,70.55,51.23,86.26,75.92,139.61,180.79,139.61,296.63Z"/><path class="cls-22" d="m1092.86,368.45c0,114.76-52.86,218.66-138.31,293.87-21.36,18.8-44.77,35.81-69.89,50.75-12.56,7.47-25.55,14.42-38.94,20.82-6.69,3.2-13.48,6.26-20.36,9.18v-4.36h-409.46v4.36c-6.88-2.92-13.67-5.98-20.36-9.18-13.38-6.4-26.37-13.35-38.94-20.82-25.12-14.94-48.52-31.95-69.89-50.75-85.46-75.21-138.31-179.11-138.31-293.87s52.86-218.66,138.31-293.87c21.36-18.8,44.77-35.81,69.89-50.75,12.56-7.47,25.55-14.42,38.94-20.82,6.69-3.2,13.48-6.26,20.36-9.18V-1.8h409.46v-4.36c6.88,2.92,13.67,5.98,20.36,9.18,13.38,6.4,26.37,13.35,38.94,20.82,25.12,14.94,48.52,31.95,69.89,50.75,85.46,75.21,138.31,179.11,138.31,293.87Z"/><path class="cls-137" d="m1088.43,368.45c0,113.69-52.36,216.61-137.01,291.11-42.33,37.25-92.73,67.4-148.69,88.23v-9.09h-364.17v9.09c-55.97-20.83-106.37-50.98-148.69-88.23-84.65-74.5-137.01-177.43-137.01-291.11s52.36-216.61,137.01-291.11c42.33-37.25,92.73-67.4,148.69-88.23V-1.8h364.17v-9.09c55.97,20.83,106.37,50.98,148.69,88.23,84.65,74.5,137.01,177.43,137.01,291.11Z"/><path class="cls-130" d="m1083.99,368.45c0,112.61-51.86,214.56-135.71,288.35-41.93,36.9-91.85,66.76-147.28,87.39v-5.49h-360.72v5.49c-55.44-20.64-105.36-50.5-147.28-87.39-83.85-73.8-135.71-175.74-135.71-288.35s51.86-214.56,135.71-288.35C334.92,43.2,384.84,13.34,440.27-7.29V-1.8h360.72v-5.49c55.44,20.64,105.36,50.5,147.28,87.39,83.85,73.8,135.71,175.74,135.71,288.35Z"/><path class="cls-35" d="m1079.56,368.45c0,111.53-51.37,212.5-134.41,285.59-41.52,36.54-90.97,66.12-145.87,86.56v-1.89h-357.27v1.89c-54.9-20.44-104.35-50.01-145.87-86.56-83.05-73.09-134.41-174.06-134.41-285.59s51.37-212.5,134.41-285.59C337.65,46.32,387.1,16.74,442-3.69v1.89h357.27v-1.89c54.9,20.44,104.35,50.01,145.87,86.56,83.05,73.09,134.41,174.06,134.41,285.59Z"/><path class="cls-36" d="m1075.12,368.45c0,110.45-50.87,210.45-133.12,282.83-41.12,36.19-90.09,65.48-144.46,85.72-6.8,2.53-13.68,4.92-20.64,7.16v-5.46h-312.53v5.46c-6.96-2.24-13.84-4.63-20.64-7.16-54.37-20.24-103.34-49.53-144.46-85.72-82.25-72.38-133.12-172.38-133.12-282.83s50.87-210.45,133.12-282.83C340.39,49.43,389.35,20.14,443.73-.1c6.8-2.53,13.68-4.92,20.64-7.16V-1.8h312.53v-5.46c6.96,2.24,13.84,4.63,20.64,7.16,54.37,20.24,103.34,49.53,144.46,85.72,82.25,72.38,133.12,172.38,133.12,282.83Z"/><path class="cls-124" d="m1070.68,368.45c0,109.37-50.37,208.39-131.82,280.07-40.72,35.84-89.21,64.84-143.05,84.88-13.46,5.01-27.26,9.46-41.35,13.32v-8.02h-267.66v8.02c-14.09-3.86-27.89-8.31-41.35-13.32-53.84-20.04-102.33-49.04-143.05-84.88-81.44-71.68-131.82-170.7-131.82-280.07s50.37-208.39,131.82-280.07C343.12,52.55,391.61,23.54,445.46,3.5c13.46-5.01,27.26-9.46,41.35-13.32V-1.8h267.66v-8.02c14.09,3.86,27.89,8.31,41.35,13.32,53.84,20.04,102.33,49.04,143.05,84.88,81.44,71.68,131.82,170.7,131.82,280.07Z"/><path class="cls-121" d="m1066.25,368.45c0,108.3-49.88,206.34-130.52,277.31-40.32,35.48-88.33,64.2-141.64,84.05-13.33,4.96-26.99,9.37-40.94,13.19v-4.29h-265.02v4.29c-13.95-3.82-27.61-8.23-40.94-13.19-53.31-19.85-101.32-48.56-141.64-84.05-80.64-70.97-130.52-169.01-130.52-277.31s49.88-206.34,130.52-277.31c40.32-35.48,88.33-64.2,141.64-84.05,13.33-4.96,26.99-9.37,40.94-13.19V-1.8h265.02v-4.29c13.95,3.82,27.61,8.23,40.94,13.19,53.31,19.85,101.32,48.56,141.64,84.05,80.64,70.97,130.52,169.01,130.52,277.31Z"/><path class="cls-123" d="m1061.81,368.45c0,107.22-49.38,204.29-129.22,274.55-39.92,35.13-87.45,63.56-140.23,83.21-13.2,4.91-26.72,9.27-40.53,13.06v-.56h-262.38v.56c-13.81-3.78-27.34-8.14-40.53-13.06-52.78-19.65-100.31-48.08-140.23-83.21-79.84-70.26-129.22-167.33-129.22-274.55s49.38-204.29,129.22-274.55c39.92-35.13,87.45-63.56,140.23-83.21,13.2-4.91,26.72-9.27,40.53-13.06v.56h262.38v-.56c13.81,3.78,27.34,8.14,40.53,13.06,52.78,19.65,100.31,48.08,140.23,83.21,79.84,70.26,129.22,167.33,129.22,274.55Z"/><path class="cls-120" d="m1057.37,368.45c0,106.14-48.88,202.23-127.92,271.79-39.52,34.78-86.57,62.92-138.82,82.37-26.13,9.72-53.55,17.28-81.98,22.4v-6.3h-176.04v6.3c-28.43-5.12-55.86-12.67-81.98-22.4-52.25-19.45-99.31-47.59-138.82-82.37-79.03-69.56-127.92-165.65-127.92-271.79s48.88-202.23,127.92-271.79c39.52-34.78,86.57-62.92,138.82-82.37,26.13-9.72,53.55-17.28,81.98-22.4V-1.8h176.04v-6.3c28.43,5.12,55.86,12.67,81.98,22.4,52.25,19.45,99.31,47.59,138.82,82.37,79.03,69.56,127.92,165.65,127.92,271.79Z"/><path class="cls-39" d="m1052.94,368.45c0,105.06-48.39,200.18-126.62,269.03-39.12,34.42-85.69,62.28-137.41,81.54-25.86,9.63-53.01,17.1-81.15,22.17v-2.48h-174.25v2.48c-28.14-5.07-55.29-12.54-81.15-22.17-51.72-19.25-98.3-47.11-137.41-81.54-78.23-68.85-126.62-163.97-126.62-269.03s48.39-200.18,126.62-269.03c39.12-34.42,85.69-62.28,137.41-81.54,25.86-9.63,53.01-17.1,81.15-22.17V-1.8h174.25v-2.48c28.14,5.07,55.29,12.54,81.15,22.17,51.72,19.25,98.3,47.11,137.41,81.54,78.23,68.85,126.62,163.97,126.62,269.03Z"/><ellipse class="cls-43" cx="620.63" cy="368.45" rx="427.87" ry="376.56"/><ellipse class="cls-46" cx="620.63" cy="368.45" rx="423.43" ry="372.65"/><ellipse class="cls-53" cx="620.63" cy="368.45" rx="418.99" ry="368.75"/><ellipse class="cls-55" cx="620.63" cy="368.45" rx="414.56" ry="364.84"/><ellipse class="cls-47" cx="620.63" cy="368.45" rx="410.12" ry="360.94"/><ellipse class="cls-49" cx="620.63" cy="368.45" rx="405.68" ry="357.04"/><ellipse class="cls-28" cx="620.63" cy="368.45" rx="401.25" ry="353.13"/><ellipse class="cls-31" cx="620.63" cy="368.45" rx="396.81" ry="349.23"/><ellipse class="cls-34" cx="620.63" cy="368.45" rx="392.38" ry="345.32"/><ellipse class="cls-115" cx="620.63" cy="368.45" rx="387.94" ry="341.42"/><ellipse class="cls-119" cx="620.63" cy="368.45" rx="383.5" ry="337.51"/><ellipse class="cls-118" cx="620.63" cy="368.45" rx="379.07" ry="333.61"/><ellipse class="cls-25" cx="620.63" cy="368.45" rx="374.63" ry="329.7"/><ellipse class="cls-24" cx="620.63" cy="368.45" rx="370.19" ry="325.8"/><ellipse class="cls-122" cx="620.63" cy="368.45" rx="365.76" ry="321.9"/><ellipse class="cls-125" cx="620.63" cy="368.45" rx="361.32" ry="317.99"/><ellipse class="cls-29" cx="620.63" cy="368.45" rx="356.88" ry="314.09"/><ellipse class="cls-40" cx="620.63" cy="368.45" rx="352.45" ry="310.18"/><ellipse class="cls-44" cx="620.63" cy="368.45" rx="348.01" ry="306.28"/><ellipse class="cls-30" cx="620.63" cy="368.45" rx="343.58" ry="302.37"/><ellipse class="cls-32" cx="620.63" cy="368.45" rx="339.14" ry="298.47"/><ellipse class="cls-56" cx="620.63" cy="368.45" rx="334.7" ry="294.57"/><ellipse class="cls-116" cx="620.63" cy="368.45" rx="330.27" ry="290.66"/><ellipse class="cls-117" cx="620.63" cy="368.45" rx="325.83" ry="286.76"/><ellipse class="cls-73" cx="620.63" cy="368.45" rx="321.39" ry="282.85"/><ellipse class="cls-71" cx="620.63" cy="368.45" rx="316.96" ry="278.95"/><ellipse class="cls-61" cx="620.63" cy="368.45" rx="312.52" ry="275.04"/><ellipse class="cls-68" cx="620.63" cy="368.45" rx="308.08" ry="271.14"/><ellipse class="cls-62" cx="620.63" cy="368.45" rx="303.65" ry="267.24"/><ellipse class="cls-63" cx="620.63" cy="368.45" rx="299.21" ry="263.33"/><ellipse class="cls-79" cx="620.63" cy="368.45" rx="294.78" ry="259.43"/><ellipse class="cls-66" cx="620.63" cy="368.45" rx="290.34" ry="255.52"/><ellipse class="cls-104" cx="620.63" cy="368.45" rx="285.9" ry="251.62"/><ellipse class="cls-106" cx="620.63" cy="368.45" rx="281.47" ry="247.71"/><ellipse class="cls-60" cx="620.63" cy="368.45" rx="277.03" ry="243.81"/><ellipse class="cls-69" cx="620.63" cy="368.45" rx="272.59" ry="239.9"/><ellipse class="cls-70" cx="620.63" cy="368.45" rx="268.16" ry="236"/><ellipse class="cls-65" cx="620.63" cy="368.45" rx="263.72" ry="232.1"/><ellipse class="cls-72" cx="620.63" cy="368.45" rx="259.29" ry="228.19"/><ellipse class="cls-48" cx="620.63" cy="368.45" rx="254.85" ry="224.29"/><ellipse class="cls-38" cx="620.63" cy="368.45" rx="250.41" ry="220.38"/><ellipse class="cls-41" cx="620.63" cy="368.45" rx="245.98" ry="216.48"/><ellipse class="cls-50" cx="620.63" cy="368.45" rx="241.54" ry="212.57"/><ellipse class="cls-57" cx="620.63" cy="368.45" rx="237.1" ry="208.67"/><ellipse class="cls-42" cx="620.63" cy="368.45" rx="232.67" ry="204.77"/><ellipse class="cls-54" cx="620.63" cy="368.45" rx="228.23" ry="200.86"/><ellipse class="cls-52" cx="620.63" cy="368.45" rx="223.79" ry="196.96"/><ellipse class="cls-75" cx="620.63" cy="368.45" rx="219.36" ry="193.05"/><ellipse class="cls-67" cx="620.63" cy="368.45" rx="214.92" ry="189.15"/><ellipse class="cls-77" cx="620.63" cy="368.45" rx="210.49" ry="185.24"/><ellipse class="cls-80" cx="620.63" cy="368.45" rx="206.05" ry="181.34"/><ellipse class="cls-64" cx="620.63" cy="368.45" rx="201.61" ry="177.44"/><ellipse class="cls-74" cx="620.63" cy="368.45" rx="197.18" ry="173.53"/><ellipse class="cls-51" cx="620.63" cy="368.45" rx="192.74" ry="169.63"/><ellipse class="cls-37" cx="620.63" cy="368.45" rx="188.3" ry="165.72"/><ellipse class="cls-92" cx="620.63" cy="368.45" rx="183.87" ry="161.82"/><ellipse class="cls-93" cx="620.63" cy="368.45" rx="179.43" ry="157.91"/><ellipse class="cls-108" cx="620.63" cy="368.45" rx="174.99" ry="154.01"/><ellipse class="cls-83" cx="620.63" cy="368.45" rx="170.56" ry="150.1"/><ellipse class="cls-86" cx="620.63" cy="368.45" rx="166.12" ry="146.2"/><ellipse class="cls-112" cx="620.63" cy="368.45" rx="161.69" ry="142.3"/><ellipse class="cls-84" cx="620.63" cy="368.45" rx="157.25" ry="138.39"/><ellipse class="cls-103" cx="620.63" cy="368.45" rx="152.81" ry="134.49"/><ellipse class="cls-82" cx="620.63" cy="368.45" rx="148.38" ry="130.58"/><ellipse class="cls-81" cx="620.63" cy="368.45" rx="143.94" ry="126.68"/><ellipse class="cls-59" cx="620.63" cy="368.45" rx="139.5" ry="122.77"/><ellipse class="cls-58" cx="620.63" cy="368.45" rx="135.07" ry="118.87"/><ellipse class="cls-85" cx="620.63" cy="368.45" rx="130.63" ry="114.97"/><ellipse class="cls-94" cx="620.63" cy="368.45" rx="126.19" ry="111.06"/><ellipse class="cls-90" cx="620.63" cy="368.45" rx="121.76" ry="107.16"/><ellipse class="cls-89" cx="620.63" cy="368.45" rx="117.32" ry="103.25"/><ellipse class="cls-107" cx="620.63" cy="368.45" rx="112.89" ry="99.35"/><ellipse class="cls-99" cx="620.63" cy="368.45" rx="108.45" ry="95.44"/><ellipse class="cls-114" cx="620.63" cy="368.45" rx="104.01" ry="91.54"/><ellipse class="cls-95" cx="620.63" cy="368.45" rx="99.58" ry="87.64"/><ellipse class="cls-102" cx="620.63" cy="368.45" rx="95.14" ry="83.73"/><ellipse class="cls-105" cx="620.63" cy="368.45" rx="90.7" ry="79.83"/><ellipse class="cls-100" cx="620.63" cy="368.45" rx="86.27" ry="75.92"/><ellipse class="cls-109" cx="620.63" cy="368.45" rx="81.83" ry="72.02"/><ellipse class="cls-97" cx="620.63" cy="368.45" rx="77.39" ry="68.11"/><ellipse class="cls-88" cx="620.63" cy="368.45" rx="72.96" ry="64.21"/><ellipse class="cls-87" cx="620.63" cy="368.45" rx="68.52" ry="60.3"/><ellipse class="cls-113" cx="620.63" cy="368.45" rx="64.09" ry="56.4"/><ellipse class="cls-101" cx="620.63" cy="368.45" rx="59.65" ry="52.5"/><ellipse class="cls-111" cx="620.63" cy="368.45" rx="55.21" ry="48.59"/><ellipse class="cls-110" cx="620.63" cy="368.45" rx="50.78" ry="44.69"/><ellipse class="cls-17" cx="620.63" cy="368.45" rx="46.34" ry="40.78"/><ellipse class="cls-11" cx="620.63" cy="368.45" rx="41.9" ry="36.88"/><ellipse class="cls-18" cx="620.63" cy="368.45" rx="37.47" ry="32.97"/><ellipse class="cls-16" cx="620.63" cy="368.45" rx="33.03" ry="29.07"/><ellipse class="cls-7" cx="620.63" cy="368.45" rx="28.59" ry="25.17"/><ellipse class="cls-10" cx="620.63" cy="368.45" rx="24.16" ry="21.26"/><ellipse class="cls-13" cx="620.63" cy="368.45" rx="19.72" ry="17.36"/><ellipse class="cls-8" cx="620.63" cy="368.45" rx="15.29" ry="13.45"/><ellipse class="cls-6" cx="620.63" cy="368.45" rx="10.85" ry="9.55"/><ellipse class="cls-5" cx="620.63" cy="368.45" rx="6.41" ry="5.64"/></g></g><g id="Layer_24"><ellipse class="cls-129" cx="202.07" cy="670" rx="115.24" ry="11.92"/><path class="cls-91" d="m349.73,187.19c-98.2,6.04-163.69,27.06-240.42,98.06,101.94-5.41,163.89-37.61,240.42-98.06Z"/><path class="cls-127" d="m107.95,285.83l1.02-.94c37.89-35.06,73.58-58.41,112.32-73.49,35.46-13.8,75.06-21.42,128.41-24.71l1.59-.1-1.25.99c-42.97,33.93-76.1,54.79-110.8,69.74-38.9,16.76-80.18,25.79-129.91,28.43l-1.38.07Zm240.21-98.04c-52.44,3.33-91.51,10.91-126.51,24.54-38.27,14.9-73.57,37.91-110.98,72.35,48.99-2.73,89.76-11.72,128.18-28.28,34.27-14.77,67.03-35.32,109.31-68.61Z"/><path class="cls-45" d="m371.57,186.1c-7.47.29-14.74.65-21.84,1.09-76.54,60.45-138.48,92.65-240.42,98.06-3.19,2.95-6.4,5.98-9.63,9.11.06.12.11.23.17.35,113.99-2.86,184.55-38.88,271.8-108.5-.02-.04-.05-.07-.07-.11Z"/><path class="cls-127" d="m99.54,295.22l-.48-.96.26-.25c3.11-3,6.35-6.07,9.64-9.12l.13-.12h.18c49.61-2.64,90.78-11.65,129.57-28.36,34.61-14.91,67.68-35.73,110.57-69.61l.12-.1h.16c6.93-.44,14.28-.8,21.86-1.1h.28s.44.67.44.67l-.32.33c-83.41,66.56-154.67,105.66-272.1,108.61h-.32Zm9.97-9.47c-3.05,2.82-6.05,5.66-8.94,8.45,116.22-3.07,187.09-41.77,269.71-107.54-7.05.29-13.89.63-20.37,1.03-42.9,33.88-76.01,54.71-110.67,69.64-38.85,16.74-80.08,25.77-129.73,28.42Z"/><path class="cls-98" d="m371.53,186.94c-83.04,66.2-154.13,105.15-270.89,108.25,6.81,13.63,12.68,26.4,17.79,38.71,19.05-10.26,49.05-19.38,82.14-22.33,36.74-3.28,52.71-4.51,72.21-1.94,27.05-25.58,58.08-41.91,90.19-47.39,5.67-.97,11.37-1.6,17.08-1.88,1.53-.08,3.07-.12,4.62-.12.29,0,.58.01.87.01,1.24,0,2.49.02,3.74.07.5.02.99.06,1.49.09,1.04.05,2.07.11,3.11.19.64.05,1.27.13,1.9.19.78.08,1.56.14,2.34.24-5.58-30.99-14.52-55.91-26.6-74.08Z"/><path class="cls-127" d="m399.35,262.19l-.12-.67c.04.22.07.45.11.67h0Z"/><path class="cls-127" d="m100.65,295.19c116.75-3.1,187.85-42.05,270.89-108.25,12.07,18.18,21.02,43.1,26.6,74.08-.78-.1-1.56-.16-2.34-.24,1.01.1,2.01.19,3.02.32l.36.05c-5.64-31.52-14.76-56.83-27.11-75.22l-.3-.45-.42.34c-83.24,66.42-154.36,105.45-271.5,108.39l-.79.02.35.7c6.97,13.91,12.96,26.92,18.15,39.45.29-.16.59-.32.88-.48-5.11-12.31-10.98-25.08-17.79-38.71Z"/><path class="cls-96" d="m200.58,311.57c-33.09,2.96-63.09,12.08-82.14,22.33,1.7,4.08,3.31,8.11,4.84,12.11.77.24,1.52.48,2.27.72.64.2,1.29.4,1.91.61.83.27,1.64.53,2.46.8.56.18,1.14.37,1.7.55.58.19,1.15.38,1.73.57,2.1.69,4.17,1.38,6.2,2.06,39.03,13.05,60.54,20.23,112.6-20.5.74-.58,1.47-1.1,2.22-1.59,5.89-7.03,12.04-13.56,18.42-19.59-19.5-2.57-35.47-1.34-72.21,1.94Z"/><path class="cls-127" d="m184.51,362.07c-14.36,0-28.07-4.58-45.11-10.28-2.03-.68-4.1-1.37-6.2-2.06l-10.3-3.32-.09-.23c-1.53-3.97-3.15-8.04-4.84-12.09l-.17-.42.4-.21c20.97-11.29,51.74-19.66,82.33-22.39h0c36.89-3.29,52.65-4.53,72.32-1.94l1.04.14-.76.72c-6.37,6.02-12.55,12.6-18.38,19.55l-.11.1c-.75.49-1.46,1-2.18,1.57-29.55,23.12-49.3,30.86-67.96,30.86Zm-60.85-16.47l9.85,3.18c2.1.69,4.17,1.38,6.21,2.06,38.87,12.99,60.28,20.15,112.14-20.42.73-.57,1.44-1.09,2.19-1.58,5.6-6.68,11.53-13.02,17.65-18.85-19.09-2.4-34.91-1.15-71.06,2.08h0c-30.27,2.7-60.71,10.94-81.55,22.06,1.59,3.85,3.14,7.7,4.59,11.48Z"/><path class="cls-127" d="m122.06,345.63l.98.31c.85.26,1.67.53,2.5.79-.76-.24-1.5-.48-2.27-.72-1.53-3.99-3.15-8.02-4.84-12.11-.3.16-.59.32-.88.48,1.71,4.12,3.33,8.18,4.88,12.21l-.37-.96Z"/><path class="cls-3" d="m139.56,351.32c39.03,13.05,60.54,20.23,112.6-20.5-52.06,40.73-73.57,33.55-112.6,20.5Z"/><path class="cls-76" d="m282.4,335.51c-11.31,4.94-22.8,9.35-34.32,13.76-29.89-75.1-60.99-146.31-91.33-221.23,9.57-12.09,22.7-14.76,36.01-13.97,30.42,75.08,59.17,146.38,89.64,221.44Z"/><path class="cls-127" d="m247.8,349.91l-.18-.46c-16.48-41.41-33.63-82.37-50.22-121.97-13.52-32.28-27.5-65.65-41.11-99.25l-.11-.27.18-.23c8.3-10.49,20.23-15.11,36.43-14.16l.31.02.12.29c12.26,30.27,24.26,59.93,36.2,89.46,17.33,42.86,35.25,87.18,53.44,131.97l.18.45-.45.2c-11.52,5.04-23.12,9.47-34.34,13.77l-.46.18Zm-90.47-221.79c13.57,33.5,27.51,66.78,40.99,98.97,16.53,39.46,33.62,80.26,50.05,121.53,10.92-4.18,22.2-8.5,33.39-13.38-18.12-44.64-35.98-88.81-53.26-131.52-11.9-29.44-23.86-59-36.08-89.17-15.59-.86-27.07,3.58-35.09,13.57Z"/><path class="cls-33" d="m363.97,176.15c.04-.1.08-.2.12-.29-.08,0-.17.01-.25.02-.04,0-.08,0-.11,0-13.03.83-25.45,1.85-37.37,3.1-93.09,9.82-155.29,34.64-229.71,106.79-.29.29-.59.57-.88.85,1.34,2.6,2.64,5.17,3.92,7.73,3.23-3.13,6.44-6.16,9.63-9.11,76.73-71,142.23-92.02,240.42-98.06,7.11-.44,14.38-.8,21.84-1.09-2.39-3.56-4.92-6.89-7.61-9.95Z"/><path class="cls-127" d="m99.53,295.2l-.31-.61c-1.28-2.56-2.58-5.13-3.92-7.73l-.17-.33,1.15-1.11c70.64-68.49,130.83-96.47,230.01-106.93,11.58-1.22,23.81-2.24,37.4-3.11l.14.37-.03-.37,1.06-.07-.31.75c2.54,2.92,5.05,6.21,7.44,9.76l.5.74-.9.04c-7.56.3-14.91.67-21.83,1.09-53.24,3.28-92.75,10.88-128.11,24.64-38.62,15.03-74.21,38.32-112.01,73.29-3.29,3.04-6.52,6.1-9.62,9.1l-.49.47Zm-3.17-8.46c1.18,2.28,2.32,4.55,3.45,6.8,2.96-2.85,6.03-5.76,9.15-8.64,37.89-35.06,73.58-58.41,112.32-73.49,35.46-13.8,75.06-21.42,128.41-24.71,6.66-.41,13.7-.76,20.96-1.06-2.28-3.33-4.66-6.41-7.06-9.15l-.07-.09c-13.48.87-25.62,1.88-37.12,3.09-98.93,10.43-158.96,38.34-229.42,106.65l-.62.59Z"/><path class="cls-9" d="m398.31,262.05c-6.07-.76-12.19-.99-18.2-.69-37.63,1.86-74.51,18.87-106.03,48.45-6.57,6.17-12.92,12.87-18.99,20.11l-.11.1c-.75.49-1.47,1.01-2.21,1.58-1.85,1.45-3.67,2.84-5.45,4.17-26.69,19.98-45.22,26.81-62.78,26.82-14.42,0-28.19-4.6-45.31-10.32-4.93-1.65-10.01-3.35-15.5-5.07,3.6,9.45,6.72,18.68,9.44,27.79,9.55,32.04,13.75,62.39,13.05,93.68-.85,38.06-8.78,79.5-25.7,134.35,30.65,26.94,74.61,46.38,130.66,57.77,4.88.99,9.92,1.93,14.98,2.79,2.31.39,4.61.77,6.91,1.13,12.91,2.01,26.16,3.55,39.37,4.6h.16s0-.55,0-.55l.11-.13c38.73-48.15,61.46-149.41,73.67-203.81,2.37-10.55,4.41-19.66,6.1-26.3,13.28-52.18,15.56-121.39,5.83-176.45Z"/><path class="cls-127" d="m123.73,347.2c5.49,1.72,10.58,3.42,15.5,5.07,17.12,5.72,30.89,10.33,45.31,10.32,17.57,0,36.09-6.84,62.78-26.82,1.78-1.33,3.59-2.72,5.45-4.17.74-.58,1.46-1.1,2.21-1.58l.11-.1c6.07-7.24,12.41-13.95,18.99-20.11-.43-.06-.86-.12-1.29-.17-6.37,6.02-12.52,12.56-18.42,19.59-.75.49-1.48,1.01-2.22,1.59-52.07,40.74-73.57,33.55-112.6,20.5-2.03-.68-4.1-1.37-6.2-2.06-.58-.19-1.15-.38-1.73-.57-.56-.18-1.13-.37-1.7-.55-.82-.27-1.63-.53-2.46-.8-.63-.2-1.28-.4-1.91-.61-.83-.26-1.65-.53-2.5-.79l-.98-.31.37.96c3.68,9.59,6.87,18.97,9.64,28.22.36.06.73.12,1.1.18-2.72-9.11-5.84-18.35-9.44-27.79Z"/><path class="cls-127" d="m399.35,262.18c-.04-.22-.07-.45-.11-.67l-.06-.36h0s-.36-.05-.36-.05c-1-.13-2.01-.22-3.02-.32-.64-.06-1.27-.14-1.9-.19-1.04-.08-2.07-.14-3.11-.19-.5-.03-.99-.07-1.49-.09-1.25-.05-2.49-.06-3.74-.07-.29,0-.58-.01-.87-.01-1.54,0-3.08.05-4.62.12-5.72.28-11.42.91-17.08,1.88-32.1,5.48-63.13,21.81-90.19,47.39.43.06.86.11,1.29.17,31.52-29.58,68.4-46.58,106.03-48.45,6.01-.3,12.13-.06,18.2.69,9.73,55.06,7.45,124.27-5.83,176.45-1.69,6.64-3.74,15.75-6.1,26.3-12.21,54.4-34.94,155.66-73.67,203.81l-.11.13v.57s-.17-.01-.17-.01c-13.22-1.04-26.46-2.59-39.37-4.6-2.3-.36-4.6-.74-6.91-1.13-5.06-.86-10.1-1.8-14.98-2.79-56.05-11.39-100.01-30.83-130.66-57.77,16.92-54.84,24.85-96.29,25.7-134.35.7-31.29-3.5-61.64-13.05-93.68-.37-.06-.73-.12-1.1-.18,9.62,32.11,13.85,62.5,13.15,93.84-.85,38.03-8.8,79.48-25.75,134.38l-.1.31.24.21c30.79,27.17,74.99,46.75,131.36,58.21,4.89.99,9.94,1.94,15.01,2.8,2.31.39,4.62.78,6.92,1.13,12.94,2.01,26.21,3.56,39.45,4.6l1.22.1.02-1.29c38.81-48.38,61.54-149.65,73.76-204.08,2.37-10.54,4.41-19.65,6.1-26.28,13.29-52.21,15.59-121.43,5.9-176.57Z"/><ellipse class="cls-128" cx="160.04" cy="599.91" rx="20.04" ry="18.05"/><ellipse class="cls-128" cx="195.48" cy="564.73" rx="20.04" ry="19.86"/><ellipse class="cls-128" cx="298.76" cy="521.73" rx="22.33" ry="19.86"/><ellipse class="cls-128" cx="320.3" cy="573.67" rx="21.22" ry="18.19"/><ellipse class="cls-128" cx="263.76" cy="594.54" rx="22.33" ry="18.05"/><ellipse class="cls-128" cx="208.48" cy="615.54" rx="20.04" ry="18.05"/><ellipse class="cls-128" cx="252.48" cy="638.54" rx="18.05" ry="20.04" transform="translate(-427.07 736.96) rotate(-76.67)"/><ellipse class="cls-128" cx="301.48" cy="625.54" rx="20.04" ry="18.05"/><ellipse class="cls-128" cx="250.48" cy="547.54" rx="20.04" ry="18.05"/><ellipse class="cls-128" cx="169.48" cy="521.54" rx="20.04" ry="18.05" transform="translate(-263.33 184.79) rotate(-34.11)"/><path class="cls-19" d="m299.93,510.6c-1.82-2.27.8-4.59,5.6-3.45,7.58,1.8,10.22,7.07,9.63,9.56-.71,3.02-5.07,3.15-8.24-2.19-1.39-2.34-5.49-2.05-6.99-3.92Z"/><path class="cls-19" d="m256.68,537.57c-.38-2.89,3.06-3.51,6.58-.06,5.56,5.46,5.09,11.33,3.29,13.16-2.17,2.21-6.47.19-5.92-6.14.23-2.71-3.64-4.59-3.95-6.97Z"/><path class="cls-19" d="m277.82,597.01c2.45,1.57,4.48-1.29,2.83-5.94-2.6-7.35-8.12-9.4-10.54-8.55-2.92,1.03,1.35,4.07,5.28,8.71,1.76,2.07.41,4.48,2.43,5.77Z"/><path class="cls-19" d="m168.48,509.91c-2.5-1.49.8-4.59,5.6-3.45,7.58,1.8,9.29,7.02,9.63,9.56.38,2.84-5.62,2.84-8.24-2.19-1.25-2.41-5.38-2.96-6.99-3.92Z"/><path class="cls-19" d="m328.18,565c-.13-2.91,3.35-3.23,6.56.52,5.06,5.92,4.08,11.73,2.13,13.4-2.36,2.01-5.79-1.06-5.36-6.63.21-2.71-3.22-4.89-3.33-7.29Z"/><path class="cls-19" d="m170.99,604.16c2.61,1.28,4.3-1.78,2.15-6.22-3.4-7.01-9.12-8.43-11.43-7.31-2.79,1.35-1.39,4.72,3.93,7.57,2.4,1.28,3.19,4.91,5.35,5.97Z"/><path class="cls-19" d="m194.48,552.91c-1.82-2.27.8-4.59,5.6-3.45,7.58,1.8,10.22,7.07,9.63,9.56-.71,3.02-2.62,3.84-8.24-2.19-1.85-1.99-5.49-2.05-6.99-3.92Z"/><path class="cls-19" d="m262.63,631.32c1.1-1.47,3.52-1.64,4.93,1.88,2.23,5.56-.18,9.66-2.17,10.46-2.4.96-2.24-1.12-2.26-6.15-.02-3.22-1.64-4.66-.5-6.18Z"/><path class="cls-19" d="m300.48,615.91c-1.82-2.27.8-4.59,5.6-3.45,7.58,1.8,10.22,7.07,9.63,9.56-.71,3.02-5.62,3.84-8.24-2.19-1.08-2.49-5.49-2.05-6.99-3.92Z"/><path class="cls-19" d="m213.24,605.82c-.98-2.25,1.67-2.54,5.32.33,5.76,4.53,6.74,9.05,5.7,10.36-1.25,1.59-6.22-.61-6.21-5.08,0-1.98-4.01-3.75-4.81-5.61Z"/><path class="cls-14" d="m186.83,384.69c-10.44-5.08-15.05-18.28-18.54-30.25-3.61-12.34-2.35-24.94,3.44-34.59,3.48-5.79,8.39-10.19,14.42-13-1.6.16-3.15.47-4.64.96-1.64.54-3.2,1.28-4.69,2.21-16.65,10.52-21.13,24.99-21.95,35.27-1.37,17.11,6.35,35.32,20.16,47.52,3.56,3.15,5.71,2.53,8.7,1.68.81-.23,1.64-.47,2.57-.65,2.75-2.22,5.34-4.65,7.84-7.08-2.64-.29-5.07-.98-7.31-2.07Z"/><path class="cls-14" d="m198.89,308.68c-3.44-1.26-6.75-1.89-9.91-1.94-6.97,2.62-12.57,7.26-16.4,13.62-5.65,9.41-6.87,21.73-3.34,33.8,3.44,11.76,7.95,24.72,18.02,29.63,2.36,1.15,4.97,1.83,7.81,2.04.55-.54,1.11-1.08,1.65-1.62,3.74-3.69,7.61-7.5,11.89-10.75.07-.06.15-.11.23-.17-8.54-4.94-14.04-14.53-17.38-23.24-5.28-13.73-2.89-34.08,13.97-38.32-2.17-1.22-4.37-2.26-6.55-3.06Z"/><path class="cls-127" d="m208.85,373.3c-.08.06-.15.11-.23.17-4.28,3.26-8.15,7.07-11.89,10.75-.55.54-1.1,1.08-1.65,1.62-2.85-.22-5.45-.89-7.81-2.04-10.07-4.91-14.58-17.87-18.02-29.63-3.53-12.07-2.31-24.39,3.34-33.8,3.82-6.37,9.43-11.01,16.4-13.62,3.16.06,6.48.69,9.91,1.94,2.18.8,4.38,1.83,6.55,3.06.23-.06.47-.12.71-.17.11-.02.21-.06.32-.08.14-.03.27-.05.4-.07-2.53-1.5-5.09-2.74-7.64-3.68-2.62-.96-5.18-1.57-7.66-1.85-.46-.05-.91-.09-1.36-.12-.46-.03-.92-.05-1.37-.05-4.58-.06-8.83,1.09-12.57,3.46-17,10.74-21.57,25.53-22.41,36.04-1.4,17.42,6.45,35.94,20.49,48.35,3.97,3.51,6.59,2.76,9.63,1.89.82-.23,1.67-.48,2.61-.66l.12-.02.1-.08c3.05-2.46,5.89-5.15,8.63-7.83.17-.16.33-.33.5-.49.16-.16.32-.31.48-.47.33-.33.67-.65,1-.98,3.72-3.66,7.57-7.45,11.8-10.67.19-.15.4-.29.59-.43-.16-.09-.33-.17-.49-.26-.16-.09-.32-.18-.48-.27Zm-25.13,21.2c-2.98.85-5.14,1.47-8.7-1.68-13.81-12.2-21.53-30.41-20.16-47.52.83-10.28,5.3-24.75,21.95-35.27,1.48-.94,3.05-1.68,4.69-2.21,1.49-.49,3.04-.8,4.64-.96-6.03,2.81-10.94,7.2-14.42,13-5.79,9.65-7.05,22.26-3.44,34.59,3.5,11.97,8.1,25.16,18.54,30.25,2.24,1.09,4.67,1.77,7.31,2.07-2.5,2.43-5.09,4.86-7.84,7.08-.93.19-1.77.42-2.57.65Z"/><path class="cls-4" d="m206.87,311.42c-.14.03-.26.04-.4.07-.11.02-.21.05-.32.08-.24.05-.47.11-.71.17-16.86,4.24-19.25,24.59-13.97,38.32,3.34,8.7,8.84,18.3,17.38,23.24.16.09.32.18.48.27.16.09.33.17.49.26,3.41-2.55,7.05-4.87,10.59-7.11,4.65-2.95,9.47-6.01,13.82-9.64l.07-.08c3.04-3.91,1.72-8.04.56-11.68l-.12-.39c-4.04-12.75-15.48-26.16-27.87-33.5Z"/><path class="cls-14" d="m389.45,311.43c-2.7-12.83-8.78-22.52-16.66-26.58-4.76-2.45-9.32-4.16-13.68-5.14,14.65,6.16,20.63,20.35,18.69,43.75-1.29,15.56-7,27.58-16.07,33.83-.44.3-.9.56-1.35.84,2.89,1.57,5.91,3.18,9.41,4.8,3.75,1.74,7.83.98,10.14-1.88,9.63-11.92,13.37-31.39,9.53-49.61Z"/><path class="cls-127" d="m390.43,311.23c-2.77-13.13-9.03-23.07-17.18-27.27-6.97-3.59-13.53-5.61-19.67-6.09-.95-.08-1.89-.11-2.83-.11-.82,0-1.63.03-2.43.09-5.02.36-9.73,1.84-14.09,4.46-1.47.89-2.86,1.89-4.19,2.99.59-.07,1.19-.13,1.8-.16.93-.71,1.9-1.37,2.9-1.97,5.63-3.4,11.87-4.81,18.67-4.29,18.04,4.7,25.5,19.01,23.38,44.51-1.27,15.26-6.82,27.01-15.64,33.09-.58.4-1.18.77-1.78,1.12-.16-.09-.33-.18-.49-.27-3.85-2.1-7.48-4.08-11.93-6.02-1.91-.83-3.93-1.52-6-2.12-.38.25-.78.49-1.18.71,2.35.65,4.64,1.39,6.78,2.33,4.38,1.91,7.98,3.87,11.78,5.95.02.01.04.02.07.04.15.08.3.16.44.24.18.1.35.19.53.29,3.06,1.66,6.25,3.37,9.98,5.1,1.11.52,2.26.83,3.38.96,3.09.35,6.05-.75,7.96-3.12,9.81-12.14,13.63-31.94,9.73-50.45Zm-10.51,49.82c-2.31,2.86-6.39,3.62-10.14,1.88-3.5-1.62-6.52-3.23-9.41-4.8.45-.27.91-.54,1.35-.84,9.07-6.25,14.78-18.27,16.07-33.83,1.94-23.4-4.04-37.59-18.69-43.75,4.36.98,8.92,2.69,13.68,5.14,7.88,4.06,13.96,13.75,16.66,26.58,3.84,18.22.1,37.69-9.53,49.61Z"/><path class="cls-14" d="m354.91,322.47c-1.84,10.84-6.16,21.6-13.96,26.71,2.07.6,4.09,1.29,6,2.12,4.45,1.94,8.08,3.92,11.93,6.02.16.09.32.18.49.27.6-.35,1.2-.72,1.78-1.12,8.82-6.08,14.37-17.83,15.64-33.09,2.12-25.49-5.34-39.8-23.38-44.51-6.8-.52-13.04.89-18.67,4.29-1,.6-1.97,1.26-2.9,1.97,1.16-.06,2.36-.05,3.62.04,18.51,1.4,22.25,20.77,19.46,37.29Z"/><path class="cls-4" d="m331.07,346.82c-3.88-.83-7.89-1.68-11.52-2.87-1.95-.64-8.3-3.16-8.25-8.82.15-17.73,6.59-39.41,20.54-49.99-.61.03-1.21.09-1.8.16-13.39,11.1-19.59,32.35-19.74,49.82-.06,6.35,6.83,9.09,8.94,9.78,3.68,1.21,7.72,2.07,11.62,2.9,2.97.63,5.99,1.28,8.91,2.09.4-.22.79-.46,1.18-.71-3.23-.94-6.59-1.65-9.88-2.36Z"/><path class="cls-4" d="m311.3,335.13c-.05,5.67,6.3,8.19,8.25,8.82,3.63,1.19,7.64,2.04,11.52,2.87,3.29.7,6.65,1.42,9.88,2.36,7.8-5.11,12.13-15.88,13.96-26.71,2.8-16.52-.95-35.89-19.46-37.29-1.25-.09-2.45-.1-3.62-.04-13.95,10.59-20.39,32.26-20.54,49.99Z"/><path class="cls-15" d="m328.09,395.44c1.6-4.4.33-10.05-3.31-14.73-8.45-10.87-24.87-13.11-36.95-13.11-4.04,0-7.6.25-10.21.51-2.45.25-4.75.58-6.91.99l.61,6.17c.35,3.54.64,6.43-1.89,6.68l-11.86,1.18c-2.53.25-2.81-2.64-3.17-6.18l-.22-2.2c-9.52,5.25-13.62,12.28-15.38,17.1-2.58,7.08-1.45,12.78.12,14.41,9.05,9.31,15.41,5.62,24.21.5,5.14-2.99,10.96-6.37,18.36-7.56,7.67-1.23,15.5.76,22.41,2.51,11.2,2.85,20.06,5.1,24.19-6.27Z"/><path class="cls-127" d="m325.57,380.09c-8.16-10.49-25.67-15.23-48.06-12.98-2.45.25-4.74.58-6.91.98-6.76,1.26-12.18,3.24-16.53,5.58-10.06,5.42-14.38,12.8-16.22,17.84-2.51,6.87-1.79,13.25.35,15.45,4.28,4.4,8.04,6.03,11.68,6.03,4.52,0,8.85-2.52,13.75-5.37,5.06-2.94,10.8-6.28,18.01-7.44,7.47-1.2,15.19.76,22,2.49,11.24,2.85,20.93,5.32,25.38-6.9,1.74-4.79.45-10.66-3.46-15.69Zm-21.67,21.62c-6.91-1.75-14.74-3.74-22.41-2.51-7.4,1.19-13.22,4.57-18.36,7.56-8.8,5.12-15.16,8.81-24.21-.5-1.58-1.62-2.71-7.32-.12-14.41,1.76-4.82,5.86-11.85,15.38-17.1,4.3-2.37,9.72-4.38,16.52-5.66,2.16-.41,4.46-.74,6.91-.99,2.61-.26,6.17-.51,10.21-.51,12.08,0,28.5,2.24,36.95,13.11,3.64,4.69,4.91,10.33,3.31,14.73-4.14,11.37-12.99,9.12-24.19,6.27Z"/><path class="cls-12" d="m257.57,383.13l11.86-1.18c2.53-.25,2.24-3.15,1.89-6.68l-.61-6.17c-6.8,1.28-12.22,3.28-16.52,5.66l.22,2.2c.35,3.54.64,6.43,3.17,6.18Z"/><path class="cls-78" d="m178.5,435.77c-6.63-.17-10.39-7.18-10.66-12.26-.34-6.55,7.78-24.25,13.12-21.69,4.54,2.18,9.97,15.74,10.15,22.93.16,6.12-6,11.19-12.62,11.02Z"/><path class="cls-126" d="m178.81,436.28c-.11,0-.22,0-.33,0-7.16-.18-10.88-7.71-11.14-12.73-.29-5.56,5.17-18.34,10.08-21.62,1.36-.91,2.62-1.09,3.75-.55,4.71,2.26,10.24,15.85,10.44,23.36.07,2.75-1.07,5.45-3.22,7.6-2.48,2.48-6.04,3.94-9.59,3.94Zm-.3-1c3.41.11,6.82-1.28,9.19-3.65,1.95-1.95,2.99-4.39,2.93-6.86-.19-7.1-5.51-20.4-9.87-22.49-.79-.38-1.72-.22-2.77.48-4.57,3.04-9.91,15.48-9.64,20.73.24,4.65,3.64,11.62,10.17,11.78Z"/><path d="m461.42,155.5c8.11.01,13.65,5.16,16.93,12.56,3.42,7.71,4.7,17.87,3.98,26.92-1.34,16.07-7.1,31.47-19.08,36.79-2.5,1.11-4.87,1.67-7.54,1.85-10.44.65-17.35-5.64-21.19-14.29-9.77-21.98,1.26-49.96,11.28-59.4,1.76-1.65,3.6-2.85,5.79-3.82,3.75-1.67,7.22-1.71,9.83-.62Zm9.86,40.15c.88-11.49-.92-21.17-3.75-27.53-2.22-5-4.74-7.87-7.3-7.73-5.33.37-14.56,12.71-17.61,31.4-1.66,10.59.03,20.57,3.04,27.34,3.24,7.29,7.65,10.2,11.61,8.44,6.46-2.87,12.63-15.09,14.01-31.92Z"/><path d="m530.51,165.85c2.7.17,4.63,1.44,5.79,2.92.91,1.22.56,2.37-1.56,2.94-1.66.49-3.16,1.03-4.93,1.82-.42,8.04-.71,16.66-.77,25.79.01,1.99-1.53,3.3-3.51,1.93-1.59-1.04-3.11-2.23-4.13-4.53-.69-1.56-1.2-3.83-1.52-7.06-.15-2.3-.32-6.34-.18-10.52-6.09,3.7-12.2,7.92-16.89,10-.24,7.59-.3,15.6-.36,23.61.06,2.1-1.59,3.45-3.62,2.23-1.49-.83-3.11-2.23-4.18-4.63-1.34-3.02-1.69-6.61-1.9-18.87-2.59-.22-3.98-1.1-4.72-1.64-1.92-1.52-1.62-2.52,1.29-3.56,1.61-.59,2.33-.66,3.47-1.17.49-16.31,2.29-37.81,3.88-46.01.7-2.93,2.4-3.31,4.42-1.84,1.13.87,2.05,2.08,2.83,3.86,1.3,2.92,2.16,7.4,1.7,13.09l-2.12,25.27c6.15-3.85,10.86-7.57,16.36-10.64.79-16.19,2.67-36.11,4.38-43.49.81-3.23,2.51-3.61,4.57-1.78,1.03.91,2,1.98,2.7,3.54,1.3,2.92,2.01,7.34,1.31,13.89-1.38,14.58-1.87,19.67-2.31,24.85Z"/><path d="m583.92,156.34c-2.68-6.04-6.11-14.87-9.11-24.15-1.75,16-2.76,33.66-1.65,48.51.2,2.41-1.32,3.21-3.47,2.29-1.64-.89-3.51-2.56-4.57-4.95-.69-1.56-1.28-4.29-1.42-6.85-.79-16.37,1.43-47.04,3.52-63.68.34-2.89,1.59-3.45,3.7-2.89,4.14.9,6.57,2.44,8.24,6.19.65,1.46,1.18,3.22,1.7,5.23,2.29,9.09,6.17,20.34,10.76,32.64.47-18.04,2.47-40.77,4.58-54.55.59-2.88,2.07-2.92,4.1-1.45,1.18.97,2.1,2.19,2.74,3.65,1.11,2.5,2.11,6.42,1.19,13.07-1.58,12.18-3.51,42.35-3.62,59.24-.07,1.53-.94,2.66-3.12,2.51-4.23-.24-7.1-2.21-9.87-7.34-1.55-2.93-2.58-4.97-3.69-7.47Z"/><path d="m638.94,76.63c8.11.01,13.65,5.16,16.93,12.56,3.42,7.71,4.7,17.87,3.98,26.92-1.35,16.07-7.1,31.47-19.08,36.79-2.5,1.11-4.87,1.67-7.54,1.85-10.44.65-17.35-5.64-21.19-14.29-9.77-21.98,1.26-49.96,11.28-59.4,1.76-1.66,3.6-2.85,5.79-3.82,3.75-1.67,7.22-1.71,9.83-.62Zm9.86,40.15c.88-11.49-.92-21.17-3.75-27.53-2.22-5-4.74-7.87-7.3-7.73-5.33.37-14.56,12.71-17.61,31.4-1.66,10.59.03,20.57,3.04,27.34,3.24,7.29,7.65,10.2,11.61,8.44,6.46-2.87,12.63-15.09,14.01-31.92Z"/><path d="m671.08,125.1c1.88-.83,4.56-.4,6.73,1.38,2.35,2.2,2.81,5.49,2.41,7.66-.79,2.72-5.02,3.85-8.2,1.77-1.29-.93-2.45-2.15-2.92-3.19-1.2-2.71-.52-6.51,1.98-7.62Zm2.17-65.58c.49-2.84,2.06-3.78,4.32-1.79,1.03.91,2.15,2.04,2.85,3.6,1.3,2.92,2.06,7.44,1.51,13.8-1.14,12.6-2.61,32.59-2.77,46.26-.1,2.29-.75,3.08-3.31,2.09-1.65-.64-3.23-1.93-4.34-4.43-.65-1.46-1.25-3.94-1.41-7.11-.84-12.85.39-37.59,3.16-52.42Z"/><path d="m537.21,255.51c0,1.25-.48,1.76-1.63,1.32-.99-.37-2.16-1.59-2.69-3.05-.32-.87-.56-1.91-.63-3-.06-2.16.12-5.65.55-9.57-2.38-6.92-5.23-16.04-6.07-21.8-.22-1.5.32-1.83,1.45-1.65,1.72.37,3.98,2.25,5.24,6.08,1.05,3.25,1.45,5.81,2.74,10.09,3.19-7.56,7.81-17.01,10.81-22.72.69-1.37,1.57-1.49,2.14-.65,1.04,1.6,1.71,4.72-.54,9.43-4.4,8.79-7.15,14.27-10.35,21.83-.61,5.04-1.07,9.95-1.03,13.7Z"/><path d="m568.9,204.17c4.4.32,7.21,3.32,8.71,7.46,1.56,4.31,1.87,9.87,1.13,14.76-1.34,8.67-5.05,16.8-11.75,19.24-1.4.51-2.71.72-4.16.72-5.69-.05-9.2-3.72-10.96-8.56-4.46-12.3,2.58-27.05,8.38-31.8,1.02-.83,2.06-1.41,3.29-1.85,2.1-.76,3.98-.65,5.36.04Zm3.82,22.16c.91-6.2.3-11.52-.99-15.07-1.02-2.8-2.28-4.45-3.67-4.47-2.9,0-8.38,6.34-10.75,16.37-1.3,5.68-.76,11.16.61,14.95,1.48,4.08,3.76,5.82,5.98,5.02,3.61-1.31,7.42-7.71,8.81-16.79Z"/><path d="m589.73,236.84c-2.81-.1-5.86-1.43-7.34-5.51-.4-1.11-.69-2.26-.86-3.64-.73-6.92,1.9-20.21,4.22-30.16.39-1.46,1.39-1.63,2.47-.83.74.59,1.33,1.3,1.71,2.35.49,1.34.7,3.37.27,6.37-.91,6.2-3.36,16.92-2.73,23.55.15,1.13.31,2.13.59,2.89.7,1.92,1.87,2.42,3.15,1.96,2.97-1.08,5.15-7.08,6.13-15.09.92-7.26,3.15-20.93,4.48-27.08.31-1.5,1.33-1.6,2.41-.81.58.51,1.13,1.3,1.45,2.18.46,1.28.75,3.16.54,5.48-.37,5.15-2.72,21.04-4.64,27.74-1.54,5.37-4.67,8.75-8.23,10.04-1.28.47-2.47.63-3.61.59Z"/><path d="m622.19,214.18c-.19-5.8,1.34-16.12,3.1-23.62-2.2.47-3.76-.55-4.43-1.29-.61-.77-.66-1.28.5-1.9,1.78-.91,3.27-2.24,4.79-3.72,1.42-1.37,2.83-2.55,4.69-3.62,3.73-2.08,7.26-1.25,11.09,1.84,1.4,1.14,2.71,3.3,3.46,5.34,3.41,9.38-1.48,24.81-12.74,33.77-.62.49-1.15.82-1.8,1.05-1.86.68-3.33.09-5.47-1.25-1.56-1.02-2.32-1.67-2.66-2.6-.36-.99-.47-2.2-.54-4.03Zm7.42-25.91c.7,1.39,1.02,3.72.55,6.59-1.77,9.28-2.95,16.57-2.63,21.27.06.9.17,1.39.32,1.8.19.52.52.54,1.02.09,11.1-9.57,13.85-24.35,11.33-31.29-.51-1.4-1.12-2.36-1.86-2.95-.92-.72-1.92-.75-2.62-.5-1.81.66-4.53,3.69-6.1,4.99Z"/><path d="m653.94,172.25c.45-1.68,1.38-1.82,2.47-.83.5.48,1.03,1.21,1.37,2.14.57,1.57.76,4.27.24,7.56-1.27,7.58-3.61,21.3-4.38,31.73-.06,1.28-.58,1.66-1.9.95-.79-.37-1.64-1.25-2.17-2.71-.3-.82-.57-2.3-.61-3.87.15-9.03,2.77-26.73,4.98-34.98Z"/><path d="m660.37,200.32c-.19-5.8,1.34-16.12,3.1-23.62-2.2.47-3.76-.55-4.43-1.29-.61-.77-.66-1.28.5-1.9,1.78-.91,3.27-2.24,4.79-3.72,1.42-1.37,2.84-2.55,4.69-3.62,3.73-2.08,7.26-1.25,11.09,1.84,1.4,1.14,2.72,3.3,3.46,5.34,3.41,9.38-1.48,24.81-12.74,33.77-.61.49-1.15.82-1.79,1.05-1.87.68-3.33.09-5.47-1.25-1.56-1.02-2.32-1.66-2.66-2.6-.36-.99-.47-2.2-.54-4.03Zm7.42-25.91c.7,1.39,1.02,3.72.55,6.59-1.77,9.28-2.95,16.57-2.63,21.27.06.9.17,1.39.32,1.8.19.52.52.54,1.02.09,11.1-9.57,13.85-24.35,11.33-31.29-.51-1.4-1.12-2.36-1.86-2.95-.92-.72-1.92-.75-2.62-.5-1.81.66-4.53,3.69-6.1,4.99Z"/><path d="m697.8,186.6c-1.23-3.38-2.75-8.3-4.02-13.45-1.56,8.61-2.78,18.16-2.74,26.25.01,1.31-.84,1.69-1.97,1.11-.86-.55-1.81-1.52-2.29-2.86-.32-.87-.53-2.38-.51-3.77.2-8.91,2.56-25.46,4.33-34.41.29-1.56.99-1.81,2.12-1.43,2.21.65,3.47,1.58,4.23,3.67.3.82.52,1.79.72,2.9.9,5.02,2.57,11.27,4.6,18.12.94-9.77,2.89-22.02,4.56-29.42.43-1.54,1.24-1.5,2.28-.63.6.57,1.05,1.27,1.35,2.08.51,1.4.9,3.57.15,7.13-1.32,6.55-3.51,22.84-4.21,32-.1.83-.61,1.41-1.79,1.24-2.28-.29-3.77-1.47-5.08-4.36-.73-1.65-1.21-2.79-1.72-4.19Z"/><path d="m716.29,161.42c-.42,1.21-1.08,1.58-1.76,1.69-.62.09-1.24-.34-1.17-1.22.25-3.32,1.39-10.53,2.66-13.56.7-1.71,1.72-1.61,2.51-.71.83,1.02.83,2.66.54,4.03-.58,2.58-1.88,7.35-2.78,9.78Z"/><path d="m729.11,179.46c-.3-5.37,1.29-19.33,3.54-29.12-.83.43-1.61.85-2.42,1.14-3.79,1.37-6.78.94-8.25-1.1-.45-.69-.11-1.21.7-1.51,5.07-1.84,13.82-6.8,17.2-8.03,2.68-.97,5.38-1.16,7.15.97.54.59.57,1.38-.82,1.75-2.61.62-5.8,2.37-8.76,4.04.82,2.08.36,6.07-.56,11.35-1.04,6.58-2.42,15.85-3.03,24.71-.09,1.22-.76,1.53-1.88,1.01-1.17-.5-1.86-1.3-2.39-2.76-.25-.7-.46-1.62-.5-2.46Z"/><path d="m772.49,162.33c-.54-2.77-1.24-9.97-1.59-17.1-2.01,8.64-4.15,18.92-4.67,27.29-.05.94-.86,1.43-1.9.95-.87-.41-1.64-1.25-2.11-2.53-.4-1.11-.58-2.5-.52-3.97.27-6.69,3.88-25.28,7.02-35.72.36-1.19,1.17-1.87,2.59-1.4,2.06.77,3.43,1.99,4.1,3.85.38,1.05.62,2.61.71,4.49.1,5.9.22,9.88.96,18.45,2.76-11.49,6.92-19.46,9.66-32.07.31-1.5,1.05-1.83,2.54-1.19,1.61.8,2.64,2.01,3.15,3.41.57,1.57.52,3.44.34,5.29-1.29,8.98-2.87,22.61-2.77,31.81.02,1.31-.51,1.5-1.74,1.03-.93-.39-1.93-1.15-2.55-2.84-.34-.93-.62-2.08-.74-3.49l.02.06c-.29-2.99.34-10.15,1.08-17.01-2.74,8.45-5.54,18.37-6.71,25.85-.22,1.4-.74,1.59-1.85,1.27-2.02-.65-3.58-1.87-4.47-4.32-.23-.64-.41-1.3-.57-2.1Z"/><path d="m811.27,149.97c-.38-1.05-.87-2.39-1.24-3.97l-3.93,1.89c-2.25,1.08-4.43,2.14-6.09,2.67-.58,3.31-.8,6.69-1.28,9.56-.26,1.48-1.33,1.6-2.04.94-.6-.57-1.14-.97-1.48-1.9-.34-.93-.59-2.36-.51-4.3.03-1,.08-2.14.28-3.6-1.32-.38-2.14-1-2.45-1.29-.87-.94-.76-1.37.84-1.69.86-.18,1.35-.29,2.18-.53,1.6-9.22,5.56-23.39,9.8-30.79.9-1.51,1.8-1.77,3.09-.92.86.55,1.44,1.06,2.21,1.9.54.59.95,1.17,1.21,1.87.25.7.43,1.56.4,2.56.18,4.68.75,11.34,1.86,17.86,1.83.13,2.81,1.02,3.66,2.1.63.83.31,1.21-.81,1.41l-2.17.39c.71,3.04,1.5,6.12,2.42,9.02.38,1.05-.29,1.56-1.51,1.47-1.51-.18-3.17-1.29-4.46-4.65Zm-4.28-24.5c-2.1,5.84-4.27,12.96-5.87,20,1.12-.54,2.25-1.08,3.29-1.66,1.9-.95,3.09-1.65,4.65-2.28-1.06-5.09-1.94-11.17-2.07-16.07Z"/><path d="m835.96,146.94c-3.66-3.36-7.27-6.4-11.01-9.06-.55,4.29-1,8.87-1.21,13.56-.06,1.28-.74,1.78-1.93,1.03-.82-.63-1.59-1.47-2.07-2.81-.36-.99-.61-2.22-.75-3.69-.3-5.37,2.54-28.43,4.3-34.67.45-1.48,1.23-1.7,2.43-.75.58.51,1.21,1.34,1.57,2.33.55,1.52.9,3.76.38,6.85-.79,4.9-1,5.77-1.57,9.47,4.86-7.7,10.08-16.19,13.05-24.19.37-.99,1.25-1.11,1.98-.19.83,1.02,1.46,3.29.36,6.99-1.24,4.41-6.63,14.08-12.18,22.23,2.68,2.13,5.25,4.29,6.5,5.55,1.09,1.19,1.89,2.48,2.23,3.41.42,1.17.36,2.44.09,3.33-.29,1.03-1.18,1.48-2.16.59Z"/><path d="m841.68,138.53c.13-7.83,1.89-20.41,4-29.68-1.66-.39-2.7-1.07-3.39-2.07-.47-.75.04-1.33.92-1.65,3.21-1.16,6.17-2.63,8.79-4.12,1.88-1.01,3.4-1.89,4.92-2.44,2.66-1.03,4.5-.51,6,1.25.46.56.25,1.23-.86,1.63-2.91,1.06-5.85,2.78-8.4,4.3-.81.49-1.35.82-2.18,1.25-.87,3.61-1.79,9.42-2.73,15.37,1.16-.62,2.13-1.04,2.92-1.39,3.16-1.28,5.06-.78,6.38.85.57.65.66,1.28-.68,1.76-2.86,1.04-6.68,3.22-9.53,5.17-.51,3.68-.87,6.51-1.08,9.56,2.16-1.51,5.6-3.48,7.42-4.27,3.1-1.26,5.07-.92,6.47.75.59.71.58,1.24-.64,1.68-3.11,1.06-8.79,4.84-11.68,6.88-1.25.92-2.18,1.25-3.34.42-.62-.44-1.37-1.22-2.39-2.04-.74-.59-.9-1.39-.91-3.23Z"/><path d="m881.05,89.82c.45-1.68,1.38-1.82,2.47-.83.5.48,1.03,1.21,1.37,2.14.57,1.57.76,4.27.24,7.56-1.27,7.58-3.61,21.3-4.38,31.73-.06,1.28-.58,1.66-1.9.95-.79-.37-1.64-1.25-2.17-2.71-.3-.82-.57-2.3-.61-3.87.15-9.03,2.77-26.73,4.98-34.98Z"/><path d="m891.99,120.34c-.3-5.37,1.29-19.33,3.54-29.12-.83.43-1.61.85-2.42,1.14-3.79,1.38-6.78.94-8.25-1.1-.45-.69-.11-1.21.71-1.51,5.07-1.84,13.82-6.8,17.2-8.03,2.68-.97,5.38-1.16,7.14.97.55.59.57,1.38-.82,1.75-2.61.62-5.8,2.37-8.76,4.04.82,2.08.36,6.07-.56,11.35-1.04,6.58-2.43,15.85-3.03,24.71-.09,1.22-.76,1.53-1.88,1.01-1.17-.5-1.86-1.3-2.39-2.76-.25-.7-.46-1.62-.5-2.46Z"/></g></svg>