<?xml version="1.0" encoding="UTF-8"?><svg id="Layer_20" xmlns="http://www.w3.org/2000/svg" width="215" height="205" viewBox="0 0 215 205"><defs><style>.cls-1{fill:#df486e;}.cls-2{fill:#d9efed;}.cls-3{fill:#47b4e7;}</style></defs><rect class="cls-2" x="43.7" y="33.52" width="137.3" height="137.48" rx="21.36" ry="21.36"/><path class="cls-3" d="m159.64,173.5h-94.57c-13.16,0-23.86-10.7-23.86-23.86V54.88c0-13.16,10.7-23.86,23.86-23.86h94.57c13.16,0,23.86,10.7,23.86,23.86v94.76c0,13.16-10.7,23.86-23.86,23.86ZM65.07,36.02c-10.4,0-18.86,8.46-18.86,18.86v94.76c0,10.4,8.46,18.86,18.86,18.86h94.57c10.4,0,18.86-8.46,18.86-18.86V54.88c0-10.4-8.46-18.86-18.86-18.86h-94.57Z"/><path class="cls-1" d="m114.53,155.39s42.51-28.11,53.96-48.32l2.53-4.53c1.93-4.15,3.04-8.76,3.04-13.64,0-17.89-14.5-32.39-32.39-32.39-11.41,0-21.41,5.91-27.18,14.82-5.77-8.91-15.78-14.82-27.18-14.82-17.89,0-32.39,14.5-32.39,32.39,0,4.88,1.11,9.49,3.04,13.64l2.53,4.53c11.45,20.21,53.96,48.32,53.96,48.32h.08Z"/></svg>