<?xml version="1.0" encoding="UTF-8"?><svg id="Layer_25" xmlns="http://www.w3.org/2000/svg" width="324" height="180" viewBox="0 0 324 180"><defs><style>.cls-1{fill:#ad2149;}.cls-2{fill:#d9efed;}.cls-3{fill:#47b4e7;}</style></defs><rect class="cls-2" x="32.17" y="32.94" width="260.53" height="114.5" rx="21.36" ry="21.36"/><path class="cls-3" d="m271.34,149.94H53.53c-13.16,0-23.86-10.7-23.86-23.86V54.3c0-13.16,10.7-23.86,23.86-23.86h217.81c13.16,0,23.86,10.7,23.86,23.86v71.77c0,13.16-10.7,23.86-23.86,23.86ZM53.53,35.44c-10.4,0-18.86,8.46-18.86,18.86v71.77c0,10.4,8.46,18.86,18.86,18.86h217.81c10.4,0,18.86-8.46,18.86-18.86V54.3c0-10.4-8.46-18.86-18.86-18.86H53.53Z"/><path class="cls-1" d="m57.86,102.81c1.38-4.76,6.37-14.74,11.14-22.27-1.77-.39-2.71-1.33-3.21-2.44-.39-.83-.17-1.33,1.05-1.44,2.11-.17,4.21-.89,6.26-1.61,1.99-.72,3.93-1.22,6.04-1.33,3.05-.11,5.76.67,7.09,4.71,1.27,3.88.22,6.65-1.72,9.58-2.77,4.32-8.64,8.87-15.57,9.81-1.66.22-2.83.11-3.71-.22-1.5,2.88-3.27,6.43-5.04,10.69-.44,1-.89,1-1.66.22-.61-.67-1.05-1.55-1.05-2.94,0-.78.11-1.77.39-2.77Zm9.53-9.36c11.03-2.49,16.4-10.58,15.4-14.29-.22-.72-1.05-1.11-1.77-1.11-1.27,0-3.32.72-5.21,1.38-.89.33-1.33.5-2.11.72-.06,1.38-.83,3.6-2.11,5.93-.5.83-1.05,1.83-4.21,7.37Z"/><path class="cls-1" d="m84.23,104.31c2.71-.67,5.37-1.05,7.37-1.22,3.05-.22,4.65.94,5.37,2.66.28.67.17,1.22-1.11,1.22-2.6-.05-8.53,1.33-11.69,2.16-1.61.39-2.33.39-3.1-.72-.55-.78-1.27-1.77-1.5-2.38-.39-1-.39-1.88.17-3.38,2.66-6.76,11.8-23.38,15.24-28.04.89-1.22,1.55-.83,2.11.17.28.55.5,1.38.5,2.27,0,1.38-.5,3.32-1.88,5.76-4.82,8.81-8.42,15.01-11.47,21.5Z"/><path class="cls-1" d="m115.09,103.54c0-1,0-2.27.17-3.71l-3.88.39c-2.22.22-4.38.44-5.93.39-1.5,2.6-2.71,5.37-3.99,7.65-.67,1.16-1.61.94-1.99.17-.33-.66-.67-1.16-.67-2.05s.22-2.16.89-3.77c.33-.83.72-1.77,1.33-2.94-1-.72-1.5-1.5-1.66-1.83-.44-1.05-.22-1.38,1.22-1.16.78.11,1.22.17,2,.22,4.16-7.26,11.8-17.95,17.62-22.88,1.22-1,2.05-.94,2.88.17.55.72.89,1.33,1.27,2.27.28.67.44,1.27.44,1.94s-.11,1.44-.44,2.27c-1.27,3.99-2.83,9.75-3.88,15.57,1.5.67,2.05,1.72,2.44,2.88.28.89-.11,1.11-1.11.94l-1.94-.33c-.33,2.77-.61,5.6-.72,8.31,0,1-.72,1.22-1.72.78-1.22-.61-2.27-2.05-2.33-5.26Zm3.88-21.88c-3.55,4.27-7.54,9.58-11.03,15.01,1.11-.11,2.22-.22,3.27-.39,1.88-.22,3.1-.44,4.6-.5.67-4.6,1.77-9.97,3.16-14.13Z"/><path class="cls-1" d="m126.01,108.63c-.39,1.05-.94,1.33-1.77.61-.72-.61-1.33-1.99-1.33-3.38,0-.83.11-1.77.39-2.71.61-1.83,1.83-4.71,3.38-7.87.11-6.54.5-15.07,1.55-20.17.28-1.33.83-1.44,1.72-.94,1.33.83,2.66,3.1,2.55,6.7-.11,3.05-.55,5.32-.78,9.31,4.99-5.37,11.75-11.91,16.01-15.79,1-.94,1.77-.78,1.99.11.39,1.66,0,4.49-3.32,7.76-6.37,6.04-10.36,9.81-15.35,15.18-2.05,4.04-3.93,8.03-5.04,11.19Z"/><path class="cls-1" d="m170.55,103.54c0-1,0-2.27.17-3.71l-3.88.39c-2.22.22-4.38.44-5.93.39-1.5,2.6-2.71,5.37-3.99,7.65-.67,1.16-1.61.94-1.99.17-.33-.66-.67-1.16-.67-2.05s.22-2.16.89-3.77c.33-.83.72-1.77,1.33-2.94-1-.72-1.5-1.5-1.66-1.83-.44-1.05-.22-1.38,1.22-1.16.78.11,1.22.17,2,.22,4.16-7.26,11.8-17.95,17.62-22.88,1.22-1,2.05-.94,2.88.17.55.72.89,1.33,1.27,2.27.28.67.44,1.27.44,1.94s-.11,1.44-.44,2.27c-1.27,3.99-2.83,9.75-3.88,15.57,1.5.67,2.05,1.72,2.44,2.88.28.89-.11,1.11-1.11.94l-1.94-.33c-.33,2.77-.61,5.6-.72,8.31,0,1-.72,1.22-1.72.78-1.22-.61-2.27-2.05-2.33-5.26Zm3.88-21.88c-3.55,4.27-7.54,9.58-11.03,15.01,1.11-.11,2.22-.22,3.27-.39,1.88-.22,3.1-.44,4.6-.5.67-4.6,1.77-9.97,3.16-14.13Z"/><path class="cls-1" d="m205.01,97.72c-.83-.06-1.88-.06-3.1.05,1.11,5.15-5.6,10.08-8.42,10.86-1.22.33-2.6.61-4.1.61-1.94,0-3.82-.44-5.54-1.77-2.11-1.5-3.88-4.04-3.88-8.64,0-11.8,11.25-22.27,17.51-24.43,1.61-.55,2.83-.67,4.04-.67,1.44,0,2.83.39,3.77,1.05,2.66,1.94,3.38,4.54,3.38,6.04,0,.83-.22,1.83-.72,2.99-.61,1.44-1.5,3.6-2.11,5.21-.28.72-.94,1.27-2,.44s-1.99-1.94-1.99-3.66c0-.61.06-1.22.5-2.38,1.55-3.99,2.1-5.54,1.5-6.15-1.61-1.66-9.92,3.1-14.9,10.69-2.94,4.49-3.99,9.2-3.99,12.74,0,4.27,1.38,5.71,3.16,5.71,2.94,0,6.87-3.05,9.47-7.92-1.44.28-2.77.44-3.88.55-2.88.22-4.99-1.05-5.82-2.77-.33-.83-.06-1.39,1.05-1.39,2.22-.05,4.43-.44,6.48-.83,1.88-.28,3.6-.61,5.26-.61,3.05-.06,4.71,1.22,5.48,2.99.33.83.39,1.38-1.16,1.27Z"/><path class="cls-1" d="m222.75,103.54c0-1,0-2.27.17-3.71l-3.88.39c-2.22.22-4.38.44-5.93.39-1.5,2.6-2.71,5.37-3.99,7.65-.67,1.16-1.61.94-1.99.17-.33-.66-.67-1.16-.67-2.05s.22-2.16.89-3.77c.33-.83.72-1.77,1.33-2.94-1-.72-1.5-1.5-1.66-1.83-.44-1.05-.22-1.38,1.22-1.16.78.11,1.22.17,2,.22,4.16-7.26,11.8-17.95,17.62-22.88,1.22-1,2.05-.94,2.88.17.55.72.89,1.33,1.27,2.27.28.67.44,1.27.44,1.94s-.11,1.44-.44,2.27c-1.27,3.99-2.83,9.75-3.88,15.57,1.5.67,2.05,1.72,2.44,2.88.28.89-.11,1.11-1.11.94l-1.94-.33c-.33,2.77-.61,5.6-.72,8.31,0,1-.72,1.22-1.72.78-1.22-.61-2.27-2.05-2.33-5.26Zm3.88-21.88c-3.55,4.27-7.54,9.58-11.03,15.01,1.11-.11,2.22-.22,3.27-.39,1.88-.22,3.1-.44,4.6-.5.67-4.6,1.77-9.97,3.16-14.13Z"/><path class="cls-1" d="m245.13,74.28c.89-1.27,1.72-1.11,2.33.06.28.55.5,1.33.5,2.22,0,1.5-.67,3.82-2.11,6.43-3.38,5.98-9.53,16.79-13.35,25.32-.44,1.05-1,1.22-1.88.22-.55-.55-1-1.55-1-2.94,0-.78.22-2.11.67-3.44,2.88-7.53,10.47-21.61,14.85-27.87Z"/><path class="cls-1" d="m251.67,99.71c0-3.21.22-7.81.72-12.52-3.93,6.76-7.87,14.41-10.3,21.22-.39,1.11-1.22,1.16-2,.33-.55-.72-1.05-1.83-1.05-3.1,0-.83.28-2.16.72-3.32,2.88-7.42,9.92-20.61,14.13-27.59.72-1.22,1.38-1.22,2.22-.55,1.66,1.22,2.44,2.38,2.44,4.38,0,.78-.11,1.66-.28,2.66-.78,4.49-1.27,10.25-1.66,16.62,3.77-7.92,9.14-17.62,12.8-23.33.83-1.16,1.5-.89,2.11.17.33.67.5,1.39.5,2.16,0,1.33-.33,3.27-2.05,6.04-3.1,5.1-9.92,18.12-13.3,25.6-.33.67-.94,1-1.88.5-1.83-.94-2.71-2.38-2.94-5.21-.11-1.61-.17-2.71-.17-4.04Z"/></svg>