<?xml version="1.0" encoding="UTF-8"?><svg id="Layer_7" xmlns="http://www.w3.org/2000/svg" width="200" height="200" viewBox="0 0 200 200"><defs><style>.cls-1{fill:#001300;}.cls-2{fill:#fff;}.cls-3{fill:#c088bc;}.cls-4{fill:#262323;}</style></defs><circle class="cls-3" cx="100.06" cy="93.1" r="72"/><path class="cls-4" d="m100.06,165.6c-39.98,0-72.5-32.52-72.5-72.5S60.08,20.6,100.06,20.6s72.5,32.52,72.5,72.5-32.52,72.5-72.5,72.5Zm0-144c-39.42,0-71.5,32.08-71.5,71.5s32.08,71.5,71.5,71.5,71.5-32.08,71.5-71.5S139.48,21.6,100.06,21.6Z"/><path class="cls-2" d="m156.71,58.67c-6.95-10.57-16.26-11.2-28.02-8.07-.9.24-1.74.66-2.53,1.23,13.05-.82,24.41,5.11,27.06,15.1,1.72,6.46-.58,13.25-5.58,18.81,1.3.08,2.6.13,3.89.17,10.98.35,11.2-18.07,5.17-27.24Z"/><path d="m151.84,86.42c-.1,0-.21,0-.32,0-1.3-.04-2.6-.1-3.9-.18l-1.04-.06.69-.77c5.07-5.65,7.06-12.33,5.46-18.35-2.53-9.5-13.43-15.56-26.55-14.73l-1.75.11,1.43-1.02c.88-.62,1.78-1.06,2.69-1.31,17.34-4.61,24.17,1.6,28.56,8.28h0c4.39,6.67,5.35,17.69,2.06,23.57-1.63,2.92-4.17,4.46-7.35,4.46Zm-3.14-1.12c.96.05,1.91.09,2.86.12,2.96.1,5.24-1.23,6.76-3.94,3.13-5.6,2.19-16.13-2.02-22.53-6.03-9.17-13.99-11.45-27.47-7.86-.18.05-.36.11-.54.17.1,0,.19,0,.29,0,12.49,0,22.65,6.18,25.14,15.54,1.61,6.07-.21,12.76-5.01,18.5Z"/><path class="cls-2" d="m153.23,66.93c-2.66-9.98-14.02-15.92-27.06-15.1-1.44,1.02-2.71,2.52-3.79,4.3,7.69-.31,14.83,4.71,16.89,12.46,1.53,5.74-.12,11.57-3.85,15.65,4.11.82,8.19,1.26,12.24,1.5,5-5.56,7.29-12.36,5.58-18.81Z"/><path d="m147.86,86.25h-.24c-4.54-.28-8.56-.78-12.31-1.53l-.87-.17.6-.65c3.77-4.13,5.17-9.8,3.74-15.18-1.94-7.31-8.84-12.4-16.39-12.08l-.93.04.49-.8c1.18-1.94,2.5-3.43,3.93-4.45l.12-.08h.14c13.56-.87,24.93,5.49,27.58,15.46h0c1.69,6.35-.38,13.37-5.69,19.28l-.16.18Zm-11.5-2.34c3.39.64,7.03,1.07,11.08,1.31,4.95-5.61,6.89-12.22,5.3-18.17h0c-2.52-9.46-13.37-15.52-26.4-14.74-1.08.8-2.1,1.9-3.05,3.3,7.64.12,14.47,5.39,16.46,12.84,1.44,5.43.18,11.14-3.39,15.45Z"/><path class="cls-1" d="m119.66,78.87c5.27,2.66,10.53,4.32,15.75,5.36,3.73-4.08,5.38-9.91,3.85-15.65-2.06-7.74-9.21-12.77-16.89-12.46-4.77,7.84-6.01,21.08-2.71,22.74Z"/><path d="m135.59,84.78l-.28-.06c-5.75-1.15-10.94-2.92-15.88-5.41h0c-.75-.38-1.31-1.21-1.67-2.46-1.3-4.54.21-14.48,4.18-20.99l.14-.23h.27c8-.33,15.33,5.06,17.4,12.82,1.52,5.71.04,11.73-3.96,16.11l-.19.21Zm-15.71-6.36c4.78,2.4,9.8,4.13,15.35,5.26,3.63-4.11,4.95-9.68,3.55-14.97-1.92-7.22-8.71-12.24-16.12-12.09-3.67,6.21-5.13,15.76-3.93,19.96.27.96.68,1.6,1.16,1.84h0Z"/><path class="cls-2" d="m51.38,62.31c3.35-9.14,11.73-15.07,21.28-16.24-.39-.12-.79-.21-1.19-.26-12.08-1.47-21.21.44-26.63,11.87-4.71,9.92-1.93,28.13,8.89,26.27,0,0,0,0,0,0-3.91-6.46-5.03-14.3-2.35-21.64Z"/><path d="m52.23,84.57c-2.61,0-4.88-1.19-6.62-3.49-4.07-5.37-4.65-16.41-1.22-23.62,6.11-12.88,17.15-13.37,27.14-12.15.39.05.8.14,1.28.28l2.28.69-2.37.29c-9.71,1.18-17.71,7.28-20.87,15.91h0c-2.52,6.89-1.68,14.62,2.31,21.21l.38.63-.72.12c-.54.09-1.07.14-1.58.14Zm12.88-38.69c-9.95,0-15.89,3.71-19.83,12-3.28,6.92-2.76,17.48,1.12,22.59,1.72,2.26,3.91,3.28,6.51,3.06-3.81-6.71-4.55-14.47-2-21.41,2.96-8.07,9.96-14.01,18.66-16.03-1.57-.15-3.06-.22-4.46-.22Z"/><path class="cls-2" d="m63.06,65.05c.98-8.06,7.43-14.12,15.18-14.93-1.67-1.97-3.55-3.44-5.58-4.05-9.55,1.16-17.93,7.09-21.28,16.24-2.69,7.33-1.57,15.17,2.35,21.64,5.1-.88,10.23-2.01,15.31-3.75-4.26-3.6-6.69-9.19-5.97-15.14Z"/><path d="m53.48,84.49l-.18-.29c-4.15-6.85-5.02-14.89-2.39-22.07,3.29-8.99,11.6-15.33,21.69-16.56h.1s.1.02.1.02c2,.6,3.96,2.01,5.82,4.21l.61.72-.94.1c-7.73.82-13.79,6.78-14.73,14.5h0c-.68,5.57,1.49,11.06,5.79,14.7l.67.57-.83.29c-4.48,1.54-9.37,2.73-15.38,3.77l-.34.06Zm19.14-37.91c-9.66,1.21-17.61,7.3-20.76,15.9-2.49,6.79-1.71,14.39,2.13,20.91,5.44-.95,9.95-2.04,14.08-3.4-4.13-3.84-6.17-9.39-5.49-15h0c.96-7.87,6.93-14.01,14.67-15.25-1.51-1.61-3.06-2.68-4.63-3.17Z"/><path class="cls-1" d="m63.49,65.08c-.72,5.9,1.72,11.44,5.98,14.96-.14.05-.29.1-.43.14.04.04.08.07.12.11,5.12-1.79,10.19-4.21,15.14-7.63,3.1-2.14-.02-15.33-5.94-22.56-.04,0-.08.01-.11.02.08.1.17.19.25.29-7.66.76-14.04,6.72-15.01,14.67Z"/><path d="m69.05,80.87l-.92-.82.38-.17c-4.14-3.78-6.2-9.27-5.52-14.86h0c.93-7.65,6.97-13.82,14.52-14.99l-.27-.31,1.22-.12.28.19c4.92,6.01,7.84,15.82,7.18,20.58-.18,1.31-.63,2.23-1.34,2.71-4.63,3.21-9.62,5.72-15.26,7.7l-.27.09Zm-5.07-15.72c-.67,5.48,1.46,10.87,5.7,14.44,5.27-1.9,9.96-4.3,14.33-7.33.46-.32.77-1.02.91-2.03.61-4.33-2.11-13.53-6.56-19.3-7.44.82-13.48,6.77-14.39,14.22h0Z"/><path class="cls-1" d="m63.06,65.05c-.72,5.95,1.71,11.54,5.97,15.14.14-.05.29-.09.43-.14-4.26-3.53-6.7-9.07-5.98-14.96.97-7.95,7.35-13.92,15.01-14.67-.08-.1-.17-.19-.25-.29-7.75.82-14.2,6.87-15.18,14.93Z"/><path d="m68.93,80.76l-.22-.18c-4.56-3.85-6.86-9.68-6.14-15.58h0c1-8.18,7.42-14.5,15.62-15.37l.26-.03,1.03,1.22-.93.09c-7.52.74-13.65,6.73-14.56,14.24-.67,5.53,1.5,10.95,5.8,14.52l.68.56-1.54.53Z"/><path class="cls-1" d="m125,97c-7.57-3.79-17.43,7.8-29.94,2.1-.21-.1-.86.02-1.06-.1l-.24,2.69c-.34,1.42-1.79,2.31-3.21,1.96l-6.2-1.5c-1.42-.34-2.31-1.79-1.96-3.21l1.2-4.97c-9.03-.1-12.54,5.1-12.53,12.12.02,18.45,34.38,40.63,52.94,14.9,9.53-13.2,7-21,1-24Z"/><path class="cls-4" d="m102.54,133.18c-2.99,0-6.09-.5-9.24-1.52-12.53-4.04-22.73-15.51-22.74-25.57,0-4.05,1.11-7.2,3.3-9.38,2.23-2.2,5.47-3.29,9.73-3.25h.63s-1.34,5.59-1.34,5.59c-.13.56-.04,1.14.26,1.63.3.5.78.84,1.33.98l6.2,1.5c.56.14,1.14.04,1.63-.26.49-.3.84-.78.97-1.33l.3-3.41.68.41s.28-.01.44-.02c.21,0,.41.01.57.09,6.77,3.09,12.79.96,18.09-.92,4.27-1.51,8.31-2.94,11.86-1.17,2.76,1.38,4.59,3.61,5.29,6.45,1.18,4.79-.94,11.11-6.11,18.29-5.62,7.79-13.31,11.89-21.86,11.89Zm-19.59-38.71c-3.65.06-6.47,1.06-8.39,2.96-2,1.98-3.01,4.89-3,8.66,0,9.66,9.9,20.7,22.05,24.62,11.74,3.78,22.67.14,29.99-10.01,5-6.93,7.06-12.96,5.95-17.46-.63-2.55-2.28-4.55-4.77-5.8-3.17-1.59-6.84-.29-11.08,1.21-5.49,1.94-11.71,4.14-18.84.89-.03,0-.26,0-.4,0l-.19,2.17c-.21.89-.72,1.58-1.44,2.03-.72.44-1.57.58-2.39.38l-6.2-1.5c-.82-.2-1.51-.7-1.95-1.43s-.58-1.57-.38-2.39l1.05-4.35Z"/><path class="cls-2" d="m84.35,102.15l6.2,1.5c1.42.34,2.87-.54,3.21-1.96l.71-2.94c-4.02-2.4-7.68-3.95-10.88-4.78l-1.2,4.97c-.34,1.42.54,2.87,1.96,3.21Z"/><path class="cls-4" d="m91.18,104.22c-.25,0-.5-.03-.74-.09l-6.2-1.5c-.82-.2-1.51-.7-1.95-1.43s-.58-1.57-.38-2.39l1.32-5.46.49.13c3.4.88,7.11,2.5,11.01,4.83l.32.19-.79,3.29c-.2.82-.7,1.51-1.43,1.95-.5.31-1.07.47-1.65.47Zm-7.22-9.64l-1.08,4.47c-.13.56-.04,1.14.26,1.63.3.5.78.84,1.33.98l6.2,1.5c.56.14,1.14.04,1.63-.26.49-.3.84-.78.97-1.33l.62-2.58c-3.52-2.07-6.86-3.55-9.94-4.4Z"/></svg>