<?xml version="1.0" encoding="UTF-8"?><svg id="Layer_25" xmlns="http://www.w3.org/2000/svg" width="324" height="205" viewBox="0 0 324 205"><defs><style>.cls-1{fill:#ad2149;}.cls-2{fill:#d9efed;}.cls-3{fill:#47b4e7;}</style></defs><rect class="cls-2" x="32.17" y="38.94" width="260.53" height="114.5" rx="21.36" ry="21.36"/><path class="cls-3" d="m271.34,155.94H53.53c-13.16,0-23.86-10.7-23.86-23.86V60.3c0-13.16,10.7-23.86,23.86-23.86h217.81c13.16,0,23.86,10.7,23.86,23.86v71.77c0,13.16-10.7,23.86-23.86,23.86ZM53.53,41.44c-10.4,0-18.86,8.46-18.86,18.86v71.77c0,10.4,8.46,18.86,18.86,18.86h217.81c10.4,0,18.86-8.46,18.86-18.86V60.3c0-10.4-8.46-18.86-18.86-18.86H53.53Z"/><path class="cls-1" d="m72.32,105.47c.81-.18,1.92-.27,3.14-.27,2.94,0,5.77.72,7.9,2.24,3.95,2.87,10.63,7.36,16.5,7.36,2.23,0,4.25-.45,5.37-1.44,1.52-1.35,1.01-2.96-.1-3.77-7.29-5.03-21.36-9.87-21.36-19.02,0-12.2,15.79-22.88,24.9-26.29,3.34-1.26,5.47-1.53,7.79-1.53s4.45.63,6.17,1.88c2.83,2.33,4.66,5.29,5.37,7.72,1.01,3.68-1.52,7.27-3.04,9.24-2.43,2.87-5.37,7.54-6.78,9.69-.91,1.44-2.03,2.15-3.95.36-1.42-1.26-2.43-2.78-2.43-4.85s1.32-5.38,4.66-9.33c2.53-3.32,5.26-7.27,3.85-8.17-3.75-2.42-25.91,10.77-26.42,21.09-.3,5.92,13.56,11.04,17.51,13.55,1.92,1.26,3.04,2.87,3.04,4.58,0,2.06-1.32,4.4-3.95,7.18-2.63,2.69-7.59,4.58-13.67,4.58-7.39,0-17.21-3.68-25.21-11.85-1.42-1.53-.71-2.51.71-2.96Z"/><path class="cls-1" d="m123.74,102.24c2.02-4.4,5.87-11.49,9.92-17.95-3.14-.36-4.96-1.35-5.77-2.42-1.42-1.88-.4-2.78,1.92-2.69s5.06,0,7.29-.18c3.14-4.85,5.26-7.81,7.59-10.77,1.52-1.97,2.73-1.88,3.85-.18.71,1.08,1.11,2.6,1.11,3.68,0,1.62-.4,3.68-1.62,6.19,3.14.36,4.86,1.79,5.57,2.87,1.01,1.62.3,2.69-2.13,2.42-1.82-.18-4.45,0-6.68.27-3.85,5.83-9.62,14.72-13.16,21.54-1.21,2.42-1.82,4.76-1.82,6.73,0,2.69,1.01,4.58,2.73,4.58,3.95,0,9.21-5.65,12.75-12.38,1.11-2.15,3.44-2.33,4.15.09.51,1.88.1,3.23-1.01,5.29-1.42,2.69-8.2,10.41-16.7,10.41-5.37,0-10.02-3.86-10.02-10.05,0-1.97.61-4.49,2.02-7.45Z"/><path class="cls-1" d="m173.44,119.56c-5.26.27-8.5-1.97-9.31-5.56-3.14,2.96-7.19,5.38-11.54,5.38-5.87,0-9.11-3.77-9.11-9.24,0-3.86,1.62-8.53,5.26-13.19,8.1-10.32,16.3-14.36,21.66-14.36,3.44,0,5.57,1.53,6.48,3.77.81-1.17,1.52-2.06,1.92-2.6,1.32-1.44,2.73-1.88,4.05-.63,1.11,1.08,1.82,2.69,1.82,4.67,0,1.62-.41,3.5-1.52,5.56-1.21,2.42-2.83,4.58-4.35,7.09-1.82,2.87-3.85,5.74-4.96,8.17-.81,1.97-1.52,3.86-1.52,5.12,0,1.44.51,2.24,1.52,2.15,5.87-.54,14.07-10.77,18.73-23.42-2.23-.99-3.04-2.42-3.04-4.22,0-4.58,6.28-11.13,9.52-11.31,2.13-.09,3.14,1.17,3.14,3.14s-.71,4.67-1.72,7.63c2.83-.63,6.07-1.97,9.01-3.77,1.92-1.17,2.94-1.44,4.35-.09s2.94,3.68,2.94,6.01c0,1.08-.51,2.33-1.52,3.59-4.45,4.49-9.52,10.68-11.13,15.08-.51,1.35-.71,2.78-.71,3.95,0,2.24.81,3.68,2.33,3.77,3.54.27,9.21-5.65,12.45-12.2.71-1.44,2.43-1.35,3.24.45.61,1.08.91,3.5-.3,6.01-2.73,5.56-10.02,9.51-15.99,9.33-6.48-.18-10.02-4.13-10.02-9.33,0-1.44.3-3.14.81-4.76,1.52-4.49,6.07-9.96,10.02-14.09-2.73,1.08-5.16,1.53-7.39,1.62-4.96,12.38-14.17,25.57-25.1,26.29Zm-1.62-31.5c-2.73,0-9.42,5.38-14.78,12.92-3.04,4.31-4.56,8.71-4.56,11.76,0,1.53.3,2.69,1.11,2.69,3.34,0,8.2-5.21,13.16-12.92,3.85-6.01,5.67-10.41,5.67-12.74,0-1.17-.2-1.71-.61-1.71Z"/><path class="cls-1" d="m218.69,102.24c2.02-4.4,5.87-11.49,9.92-17.95-3.14-.36-4.96-1.35-5.77-2.42-1.42-1.88-.4-2.78,1.92-2.69s5.06,0,7.29-.18c3.14-4.85,5.26-7.81,7.59-10.77,1.52-1.97,2.73-1.88,3.85-.18.71,1.08,1.11,2.6,1.11,3.68,0,1.62-.4,3.68-1.62,6.19,3.14.36,4.86,1.79,5.57,2.87,1.01,1.62.3,2.69-2.13,2.42-1.82-.18-4.45,0-6.68.27-3.85,5.83-9.62,14.72-13.16,21.54-1.21,2.42-1.82,4.76-1.82,6.73,0,2.69,1.01,4.58,2.73,4.58,3.95,0,9.21-5.65,12.75-12.38,1.11-2.15,3.44-2.33,4.15.09.51,1.88.1,3.23-1.01,5.29-1.42,2.69-8.2,10.41-16.7,10.41-5.37,0-10.02-3.86-10.02-10.05,0-1.97.61-4.49,2.02-7.45Z"/></svg>