<?xml version="1.0" encoding="UTF-8"?><svg xmlns="http://www.w3.org/2000/svg" width="1241.9" height="737.27" xmlns:xlink="http://www.w3.org/1999/xlink" viewBox="0 0 1241.9 737.27"><defs><style>.cls-1{fill:none;}.cls-2{clip-path:url(#clippath);}.cls-3{fill:#f98869;}.cls-4{fill:#001300;}.cls-5{fill:#ebefe1;}.cls-6{fill:#eaeee1;}.cls-7{fill:#e6ebdf;}.cls-8{fill:#e9eee0;}.cls-9{fill:#fbd3e0;}.cls-10{fill:#ff4b90;}.cls-11{fill:#e7ecdf;}.cls-12{fill:#e3e9de;}.cls-13{fill:#e3e4df;}.cls-14{fill:#e8ede0;}.cls-15{fill:#fff;}.cls-16{fill:#f389a6;}.cls-17{fill:#e5ebdf;}.cls-18{fill:#e2e9de;}.cls-19{fill:#e4eade;}.cls-20{fill:#fdf9f8;}.cls-21{fill:#7da0b7;}.cls-22{fill:#80a3b9;}.cls-23{fill:#81a3b9;}.cls-24{fill:#7ea1b8;}.cls-25{fill:#98b4c2;}.cls-26{fill:#97b3c1;}.cls-27{fill:#7fa2b8;}.cls-28{fill:#7ca0b7;}.cls-29{fill:#91afbf;}.cls-30{fill:#9bb6c3;}.cls-31{fill:#9eb8c4;}.cls-32{fill:#92b0bf;}.cls-33{fill:#9fb9c4;}.cls-34{fill:#9fc89e;}.cls-35{fill:#93b0c0;}.cls-36{fill:#84a6ba;}.cls-37{fill:#85a6ba;}.cls-38{fill:#c2d1d1;}.cls-39{fill:#b4c7cc;}.cls-40{fill:#8aaabc;}.cls-41{fill:#9cb7c3;}.cls-42{fill:#b5c8cc;}.cls-43{fill:#b8cace;}.cls-44{fill:#8babbd;}.cls-45{fill:#9db8c4;}.cls-46{fill:#9bbda8;}.cls-47{fill:#8cabbd;}.cls-48{fill:#8fadbe;}.cls-49{fill:#b3c7cc;}.cls-50{fill:#90aebf;}.cls-51{fill:#b6c9cd;}.cls-52{fill:#c1d1d1;}.cls-53{fill:#baccce;}.cls-54{fill:#8dacbe;}.cls-55{fill:#b9cbce;}.cls-56{fill:#8eadbe;}.cls-57{fill:#a0bac5;}.cls-58{fill:#b7cacd;}.cls-59{fill:#cedad6;}.cls-60{fill:#cdd9d6;}.cls-61{fill:#adc3ca;}.cls-62{fill:#a5bdc7;}.cls-63{fill:#a7bfc7;}.cls-64{fill:#a8bfc8;}.cls-65{fill:#bfcfd0;}.cls-66{fill:#b1c5cb;}.cls-67{fill:#aac1c9;}.cls-68{fill:#bccdcf;}.cls-69{fill:#a6bec7;}.cls-70{fill:#aec4ca;}.cls-71{fill:#b0c5cb;}.cls-72{fill:#a4bdc6;}.cls-73{fill:#b2c6cb;}.cls-74{fill:#a3bcc6;}.cls-75{fill:#c0d0d1;}.cls-76{fill:#bbcccf;}.cls-77{fill:#bddda1;}.cls-78{fill:#bdcecf;}.cls-79{fill:#a9c0c8;}.cls-80{fill:#becfd0;}.cls-81{fill:#ccd9d5;}.cls-82{fill:#cbd8d5;}.cls-83{fill:#c6d4d3;}.cls-84{fill:#c9d7d4;}.cls-85{fill:#cfdbd6;}.cls-86{fill:#c7d5d3;}.cls-87{fill:#dde5dc;}.cls-88{fill:#dce4db;}.cls-89{fill:#d2ddd7;}.cls-90{fill:#d1dcd7;}.cls-91{fill:#d1e3e3;}.cls-92{fill:#c3d2d2;}.cls-93{fill:#c4d3d2;}.cls-94{fill:#d0dcd7;}.cls-95{fill:#d6e0d9;}.cls-96{fill:#e1b3bc;}.cls-97{fill:#dbe3db;}.cls-98{fill:#daefef;}.cls-99{fill:#d4ded8;}.cls-100{fill:#d9e2da;}.cls-101{fill:#dfe6dc;}.cls-102{fill:#d7e1d9;}.cls-103{fill:#cad7d4;}.cls-104{fill:#abc2c9;}.cls-105{fill:#d8e1da;}.cls-106{fill:#acc2c9;}.cls-107{fill:#d3ded8;}.cls-108{fill:#c5d4d3;}.cls-109{fill:#dae3db;}.cls-110{fill:#e1e8dd;}.cls-111{fill:#e0e7dd;}.cls-112{fill:#c8d6d4;}.cls-113{fill:#dee6dc;}.cls-114{fill:#d5dfd9;}.cls-115{fill:#94b1c0;}.cls-116{fill:#a1bac5;}.cls-117{fill:#a2bbc6;}.cls-118{fill:#96b2c1;}.cls-119{fill:#95b2c1;}.cls-120{fill:#89a9bc;}.cls-121{fill:#87a8bb;}.cls-122{fill:#99b5c2;}.cls-123{fill:#88a8bc;}.cls-124{fill:#86a7bb;}.cls-125{fill:#9ab5c2;}.cls-126{fill:#262323;}.cls-127{fill:#352f15;}.cls-128{fill:#3b3f48;}.cls-129{fill:#83a5ba;}.cls-130{fill:#749ab4;}.cls-131{fill:#789db6;}.cls-132{fill:#799eb6;}.cls-133{fill:#769bb5;}.cls-134{fill:#779cb5;}.cls-135{fill:#759bb4;}.cls-136{fill:#82a4b9;}.cls-137{fill:#7b9fb7;}.cls-138{fill:#7a9eb6;}</style><clipPath id="clippath"><rect class="cls-1" x="-.6" y="-2.02" width="1242.38" height="737.83"/></clipPath></defs><g id="Layer_22"><g class="cls-2"><rect class="cls-130" x="-.6" y="-2.02" width="1242.38" height="737.83"/><path class="cls-130" d="m1150.49,366.9c0,128.78-59.31,245.37-155.2,329.76-11.99,10.55-24.54,20.6-37.63,30.1-6.54,4.75-13.22,9.37-20.02,13.84v-3.45H303.54v3.45c-6.8-4.48-13.48-9.09-20.02-13.84-13.09-9.5-25.64-19.55-37.63-30.1-95.89-84.39-155.2-200.98-155.2-329.76S150,121.53,245.89,37.14c11.99-10.55,24.54-20.6,37.63-30.1,6.54-4.75,13.22-9.37,20.02-13.84v3.45h634.1v-3.45c6.8,4.48,13.48,9.09,20.02,13.84,13.09,9.5,25.64,19.55,37.63,30.1,95.89,84.39,155.2,200.98,155.2,329.76Z"/><path class="cls-135" d="m1146.06,366.9c0,127.7-58.81,243.32-153.91,327-11.89,10.46-24.34,20.42-37.32,29.85-6.49,4.71-13.11,9.29-19.85,13.73v-.33H306.2v.33c-6.74-4.44-13.36-9.02-19.85-13.73-12.98-9.42-25.43-19.39-37.32-29.85-95.09-83.69-153.91-199.3-153.91-327S153.94,123.58,249.03,39.9c11.89-10.46,24.34-20.42,37.32-29.85,6.49-4.71,13.11-9.29,19.85-13.73v.33h628.79v-.33c6.74,4.44,13.36,9.02,19.85,13.73,12.98,9.42,25.43,19.39,37.32,29.85,95.09,83.69,153.91,199.3,153.91,327Z"/><path class="cls-133" d="m1141.62,366.9c0,126.62-58.32,241.26-152.61,324.24-11.79,10.37-24.13,20.25-37,29.6-6.43,4.67-13,9.21-19.68,13.61-3.34,2.2-6.72,4.37-10.12,6.5v-3.69H318.97v3.69c-3.4-2.13-6.78-4.3-10.12-6.5-6.69-4.4-13.25-8.94-19.68-13.61-12.87-9.34-25.21-19.22-37-29.6-94.29-82.98-152.61-197.62-152.61-324.24S157.88,125.64,252.17,42.66c11.79-10.37,24.13-20.25,37-29.6,6.43-4.67,13-9.21,19.68-13.61,3.34-2.2,6.72-4.37,10.12-6.5v3.69h603.24v-3.69c3.4,2.13,6.78,4.3,10.12,6.5,6.69,4.4,13.25,8.94,19.68,13.61,12.87,9.34,25.21,19.22,37,29.6,94.29,82.98,152.61,197.62,152.61,324.24Z"/><path class="cls-134" d="m1137.19,366.9c0,125.55-57.82,239.21-151.31,321.48-23.37,20.57-48.97,39.18-76.45,55.52v-6.74H331.76v6.74c-27.48-16.34-53.08-34.95-76.45-55.52-93.49-82.27-151.31-195.94-151.31-321.48S161.82,127.69,255.31,45.42c23.37-20.57,48.97-39.18,76.45-55.52V-3.35h577.66v-6.74c27.48,16.34,53.08,34.95,76.45,55.52,93.49,82.27,151.31,195.94,151.31,321.48Z"/><path class="cls-131" d="m1132.75,366.9c0,124.47-57.33,237.15-150.01,318.72-23.17,20.39-48.55,38.84-75.8,55.04v-3.51H334.24v3.51c-27.25-16.2-52.63-34.65-75.8-55.04-92.68-81.57-150.01-194.25-150.01-318.72s57.33-237.15,150.01-318.72c23.17-20.39,48.55-38.84,75.8-55.04v3.51h572.7v-3.51c27.25,16.2,52.63,34.65,75.8,55.04,92.68,81.57,150.01,194.25,150.01,318.72Z"/><path class="cls-132" d="m1128.31,366.9c0,123.39-56.83,235.1-148.71,315.96-22.97,20.22-48.13,38.5-75.14,54.56v-.27H336.72v.27c-27.01-16.06-52.17-34.35-75.14-54.56-91.88-80.86-148.71-192.57-148.71-315.96s56.83-235.1,148.71-315.96c22.97-20.22,48.13-38.5,75.14-54.56v.27h567.74v-.27c27.01,16.06,52.17,34.35,75.14,54.56,91.88,80.86,148.71,192.57,148.71,315.96Z"/><path class="cls-138" d="m1123.88,366.9c0,122.31-56.33,233.04-147.41,313.2-22.77,20.04-47.71,38.17-74.48,54.09-6.69,3.98-13.5,7.82-20.42,11.52v-8.55H359.62v8.55c-6.92-3.7-13.73-7.54-20.42-11.52-26.77-15.92-51.72-34.05-74.48-54.09-91.08-80.15-147.41-190.89-147.41-313.2s56.33-233.04,147.41-313.2c22.77-20.04,47.71-38.17,74.48-54.09,6.69-3.98,13.5-7.82,20.42-11.52V-3.35h521.94v-8.55c6.92,3.7,13.73,7.54,20.42,11.52,26.77,15.92,51.72,34.05,74.48,54.09,91.08,80.15,147.41,190.89,147.41,313.2Z"/><path class="cls-137" d="m1119.44,366.9c0,121.23-55.84,230.99-146.11,310.44-22.57,19.86-47.29,37.83-73.83,53.61-6.63,3.94-13.38,7.75-20.24,11.42v-5.21H361.92v5.21c-6.86-3.67-13.61-7.47-20.24-11.42-26.54-15.78-51.26-33.75-73.83-53.61-90.27-79.45-146.11-189.2-146.11-310.44s55.84-230.99,146.11-310.44c22.57-19.86,47.29-37.83,73.83-53.61,6.63-3.94,13.38-7.75,20.24-11.42V-3.35h517.34v-5.21c6.86,3.67,13.61,7.47,20.24,11.42,26.54,15.78,51.26,33.75,73.83,53.61,90.27,79.45,146.11,189.2,146.11,310.44Z"/><path class="cls-28" d="m1115,366.9c0,120.16-55.34,228.94-144.81,307.68-22.37,19.69-46.87,37.49-73.17,53.13-6.58,3.91-13.26,7.68-20.06,11.32v-1.87H364.22v1.87c-6.8-3.63-13.48-7.41-20.06-11.32-26.3-15.64-50.8-33.45-73.17-53.13-89.47-78.74-144.81-187.52-144.81-307.68s55.34-228.94,144.81-307.68c22.37-19.69,46.87-37.49,73.17-53.13,6.58-3.91,13.26-7.68,20.06-11.32v1.87h512.74v-1.87c6.8,3.63,13.48,7.41,20.06,11.32,26.3,15.64,50.8,33.45,73.17,53.13,89.47,78.74,144.81,187.52,144.81,307.68Z"/><path class="cls-21" d="m1110.57,366.9c0,119.08-54.84,226.88-143.51,304.92-22.17,19.51-46.45,37.16-72.52,52.66-13.03,7.75-26.51,14.96-40.4,21.6v-8.92h-467.1v8.92c-13.89-6.64-27.37-13.85-40.4-21.6-26.07-15.5-50.35-33.15-72.52-52.66-88.67-78.04-143.51-185.84-143.51-304.92s54.84-226.88,143.51-304.92c22.17-19.51,46.45-37.16,72.52-52.66,13.03-7.75,26.51-14.96,40.4-21.6V-3.35h467.1v-8.92c13.89,6.64,27.37,13.85,40.4,21.6,26.07,15.5,50.35,33.15,72.52,52.66,88.67,78.04,143.51,185.84,143.51,304.92Z"/><path class="cls-24" d="m1106.13,366.9c0,118-54.35,224.83-142.21,302.16-21.97,19.33-46.03,36.82-71.86,52.18-12.92,7.68-26.27,14.83-40.03,21.4v-5.49h-462.87v5.49c-13.76-6.58-27.12-13.72-40.03-21.4-25.83-15.36-49.89-32.85-71.86-52.18-87.87-77.33-142.21-184.16-142.21-302.16s54.35-224.83,142.21-302.16c21.97-19.33,46.03-36.82,71.86-52.18,12.92-7.68,26.27-14.83,40.03-21.4V-3.35h462.87v-5.49c13.76,6.58,27.12,13.72,40.03,21.4,25.83,15.36,49.89,32.85,71.86,52.18,87.87,77.33,142.21,184.16,142.21,302.16Z"/><path class="cls-27" d="m1101.7,366.9c0,116.92-53.85,222.77-140.91,299.4-21.77,19.16-45.61,36.48-71.2,51.7-12.8,7.61-26.03,14.69-39.67,21.21v-2.05h-458.64v2.05c-13.63-6.52-26.87-13.6-39.67-21.21-25.59-15.22-49.44-32.55-71.2-51.7-87.06-76.62-140.91-182.47-140.91-299.4s53.85-222.77,140.91-299.4c21.77-19.16,45.61-36.48,71.2-51.7,12.8-7.61,26.03-14.69,39.67-21.21v2.05h458.64v-2.05c13.63,6.52,26.87,13.6,39.67,21.21,25.59,15.22,49.44,32.55,71.2,51.7,87.06,76.62,140.91,182.47,140.91,299.4Z"/><path class="cls-22" d="m1097.26,366.9c0,115.84-53.35,220.72-139.61,296.63-21.56,18.98-45.19,36.15-70.55,51.23-12.68,7.54-25.79,14.55-39.3,21.01-6.75,3.23-13.61,6.32-20.55,9.26v-7.88h-413.31v7.88c-6.95-2.95-13.8-6.04-20.55-9.26-13.51-6.46-26.62-13.47-39.3-21.01-25.36-15.08-48.98-32.25-70.55-51.23-86.26-75.92-139.61-180.79-139.61-296.63s53.35-220.72,139.61-296.63c21.56-18.98,45.19-36.15,70.55-51.23,12.68-7.54,25.79-14.55,39.3-21.01,6.75-3.23,13.61-6.32,20.55-9.26V-3.35h413.31v-7.88c6.95,2.95,13.8,6.04,20.55,9.26,13.51,6.46,26.62,13.47,39.3,21.01,25.36,15.08,48.98,32.25,70.55,51.23,86.26,75.92,139.61,180.79,139.61,296.63Z"/><path class="cls-23" d="m1092.82,366.9c0,114.76-52.86,218.66-138.31,293.87-21.36,18.8-44.77,35.81-69.89,50.75-12.56,7.47-25.55,14.42-38.94,20.82-6.69,3.2-13.48,6.26-20.36,9.18v-4.36h-409.46v4.36c-6.88-2.92-13.67-5.98-20.36-9.18-13.38-6.4-26.37-13.35-38.94-20.82-25.12-14.94-48.52-31.95-69.89-50.75-85.46-75.21-138.31-179.11-138.31-293.87s52.86-218.66,138.31-293.87c21.36-18.8,44.77-35.81,69.89-50.75,12.56-7.47,25.55-14.42,38.94-20.82,6.69-3.2,13.48-6.26,20.36-9.18V-3.35h409.46v-4.36c6.88,2.92,13.67,5.98,20.36,9.18,13.38,6.4,26.37,13.35,38.94,20.82,25.12,14.94,48.52,31.95,69.89,50.75,85.46,75.21,138.31,179.11,138.31,293.87Z"/><path class="cls-136" d="m1088.39,366.9c0,113.69-52.36,216.61-137.01,291.11-42.33,37.25-92.73,67.4-148.69,88.23v-9.09h-364.17v9.09c-55.97-20.83-106.37-50.98-148.69-88.23-84.65-74.5-137.01-177.43-137.01-291.11s52.36-216.61,137.01-291.11c42.33-37.25,92.73-67.4,148.69-88.23V-3.35h364.17v-9.09c55.97,20.83,106.37,50.98,148.69,88.23,84.65,74.5,137.01,177.43,137.01,291.11Z"/><path class="cls-129" d="m1083.95,366.9c0,112.61-51.86,214.56-135.71,288.35-41.93,36.9-91.85,66.76-147.28,87.39v-5.49h-360.72v5.49c-55.44-20.64-105.36-50.5-147.28-87.39-83.85-73.8-135.71-175.74-135.71-288.35s51.86-214.56,135.71-288.35c41.93-36.9,91.85-66.76,147.28-87.39V-3.35h360.72v-5.49c55.44,20.64,105.36,50.5,147.28,87.39,83.85,73.8,135.71,175.74,135.71,288.35Z"/><path class="cls-36" d="m1079.51,366.9c0,111.53-51.37,212.5-134.41,285.59-41.52,36.54-90.97,66.12-145.87,86.56v-1.89h-357.27v1.89c-54.9-20.44-104.35-50.01-145.87-86.56-83.05-73.09-134.41-174.06-134.41-285.59s51.37-212.5,134.41-285.59C337.61,44.76,387.06,15.19,441.96-5.25v1.89h357.27v-1.89c54.9,20.44,104.35,50.01,145.87,86.56,83.05,73.09,134.41,174.06,134.41,285.59Z"/><path class="cls-37" d="m1075.08,366.9c0,110.45-50.87,210.45-133.12,282.83-41.12,36.19-90.09,65.48-144.46,85.72-6.8,2.53-13.68,4.92-20.64,7.16v-5.46h-312.53v5.46c-6.96-2.24-13.84-4.63-20.64-7.16-54.37-20.24-103.34-49.53-144.46-85.72-82.25-72.38-133.12-172.38-133.12-282.83s50.87-210.45,133.12-282.83C340.35,47.88,389.31,18.59,443.69-1.65c6.8-2.53,13.68-4.92,20.64-7.16V-3.35h312.53v-5.46c6.96,2.24,13.84,4.63,20.64,7.16,54.37,20.24,103.34,49.53,144.46,85.72,82.25,72.38,133.12,172.38,133.12,282.83Z"/><path class="cls-124" d="m1070.64,366.9c0,109.37-50.37,208.39-131.82,280.07-40.72,35.84-89.21,64.84-143.05,84.88-13.46,5.01-27.26,9.46-41.35,13.32v-8.02h-267.66v8.02c-14.09-3.86-27.89-8.31-41.35-13.32-53.84-20.04-102.33-49.04-143.05-84.88-81.44-71.68-131.82-170.7-131.82-280.07s50.37-208.39,131.82-280.07C343.08,50.99,391.57,21.99,445.41,1.95c13.46-5.01,27.26-9.46,41.35-13.32V-3.35h267.66v-8.02c14.09,3.86,27.89,8.31,41.35,13.32,53.84,20.04,102.33,49.04,143.05,84.88,81.44,71.68,131.82,170.7,131.82,280.07Z"/><path class="cls-121" d="m1066.2,366.9c0,108.3-49.88,206.34-130.52,277.31-40.32,35.48-88.33,64.2-141.64,84.05-13.33,4.96-26.99,9.37-40.94,13.19v-4.29h-265.02v4.29c-13.95-3.82-27.61-8.23-40.94-13.19-53.31-19.85-101.32-48.56-141.64-84.05-80.64-70.97-130.52-169.01-130.52-277.31s49.88-206.34,130.52-277.31c40.32-35.48,88.33-64.2,141.64-84.05,13.33-4.96,26.99-9.37,40.94-13.19V-3.35h265.02v-4.29c13.95,3.82,27.61,8.23,40.94,13.19,53.31,19.85,101.32,48.56,141.64,84.05,80.64,70.97,130.52,169.01,130.52,277.31Z"/><path class="cls-123" d="m1061.77,366.9c0,107.22-49.38,204.29-129.22,274.55-39.92,35.13-87.45,63.56-140.23,83.21-13.2,4.91-26.72,9.27-40.53,13.06v-.56h-262.38v.56c-13.81-3.78-27.34-8.14-40.53-13.06-52.78-19.65-100.31-48.08-140.23-83.21-79.84-70.26-129.22-167.33-129.22-274.55s49.38-204.29,129.22-274.55c39.92-35.13,87.45-63.56,140.23-83.21,13.2-4.91,26.72-9.27,40.53-13.06v.56h262.38v-.56c13.81,3.78,27.34,8.14,40.53,13.06,52.78,19.65,100.31,48.08,140.23,83.21,79.84,70.26,129.22,167.33,129.22,274.55Z"/><path class="cls-120" d="m1057.33,366.9c0,106.14-48.88,202.23-127.92,271.79-39.52,34.78-86.57,62.92-138.82,82.37-26.13,9.72-53.55,17.28-81.98,22.4v-6.3h-176.04v6.3c-28.43-5.12-55.86-12.67-81.98-22.4-52.25-19.45-99.31-47.59-138.82-82.37-79.03-69.56-127.92-165.65-127.92-271.79s48.88-202.23,127.92-271.79c39.52-34.78,86.57-62.92,138.82-82.37,26.13-9.72,53.55-17.28,81.98-22.4V-3.35h176.04v-6.3c28.43,5.12,55.86,12.67,81.98,22.4,52.25,19.45,99.31,47.59,138.82,82.37,79.03,69.56,127.92,165.65,127.92,271.79Z"/><path class="cls-40" d="m1052.9,366.9c0,105.06-48.39,200.18-126.62,269.03-39.12,34.42-85.69,62.28-137.41,81.54-25.86,9.63-53.01,17.1-81.15,22.17v-2.48h-174.25v2.48c-28.14-5.07-55.29-12.54-81.15-22.17-51.72-19.25-98.3-47.11-137.41-81.54-78.23-68.85-126.62-163.97-126.62-269.03s48.39-200.18,126.62-269.03c39.12-34.42,85.69-62.28,137.41-81.54,25.86-9.63,53.01-17.1,81.15-22.17v2.48h174.25v-2.48c28.14,5.07,55.29,12.54,81.15,22.17,51.72,19.25,98.3,47.11,137.41,81.54,78.23,68.85,126.62,163.97,126.62,269.03Z"/><ellipse class="cls-44" cx="620.59" cy="366.9" rx="427.87" ry="376.56"/><ellipse class="cls-47" cx="620.59" cy="366.9" rx="423.43" ry="372.65"/><ellipse class="cls-54" cx="620.59" cy="366.9" rx="418.99" ry="368.75"/><ellipse class="cls-56" cx="620.59" cy="366.9" rx="414.56" ry="364.84"/><ellipse class="cls-48" cx="620.59" cy="366.9" rx="410.12" ry="360.94"/><ellipse class="cls-50" cx="620.59" cy="366.9" rx="405.68" ry="357.04"/><ellipse class="cls-29" cx="620.59" cy="366.9" rx="401.25" ry="353.13"/><ellipse class="cls-32" cx="620.59" cy="366.9" rx="396.81" ry="349.23"/><ellipse class="cls-35" cx="620.59" cy="366.9" rx="392.38" ry="345.32"/><ellipse class="cls-115" cx="620.59" cy="366.9" rx="387.94" ry="341.42"/><ellipse class="cls-119" cx="620.59" cy="366.9" rx="383.5" ry="337.51"/><ellipse class="cls-118" cx="620.59" cy="366.9" rx="379.07" ry="333.61"/><ellipse class="cls-26" cx="620.59" cy="366.9" rx="374.63" ry="329.7"/><ellipse class="cls-25" cx="620.59" cy="366.9" rx="370.19" ry="325.8"/><ellipse class="cls-122" cx="620.59" cy="366.9" rx="365.76" ry="321.9"/><ellipse class="cls-125" cx="620.59" cy="366.9" rx="361.32" ry="317.99"/><ellipse class="cls-30" cx="620.59" cy="366.9" rx="356.88" ry="314.09"/><ellipse class="cls-41" cx="620.59" cy="366.9" rx="352.45" ry="310.18"/><ellipse class="cls-45" cx="620.59" cy="366.9" rx="348.01" ry="306.28"/><ellipse class="cls-31" cx="620.59" cy="366.9" rx="343.58" ry="302.37"/><ellipse class="cls-33" cx="620.59" cy="366.9" rx="339.14" ry="298.47"/><ellipse class="cls-57" cx="620.59" cy="366.9" rx="334.7" ry="294.57"/><ellipse class="cls-116" cx="620.59" cy="366.9" rx="330.27" ry="290.66"/><ellipse class="cls-117" cx="620.59" cy="366.9" rx="325.83" ry="286.76"/><ellipse class="cls-74" cx="620.59" cy="366.9" rx="321.39" ry="282.85"/><ellipse class="cls-72" cx="620.59" cy="366.9" rx="316.96" ry="278.95"/><ellipse class="cls-62" cx="620.59" cy="366.9" rx="312.52" ry="275.04"/><ellipse class="cls-69" cx="620.59" cy="366.9" rx="308.08" ry="271.14"/><ellipse class="cls-63" cx="620.59" cy="366.9" rx="303.65" ry="267.24"/><ellipse class="cls-64" cx="620.59" cy="366.9" rx="299.21" ry="263.33"/><ellipse class="cls-79" cx="620.59" cy="366.9" rx="294.78" ry="259.43"/><ellipse class="cls-67" cx="620.59" cy="366.9" rx="290.34" ry="255.52"/><ellipse class="cls-104" cx="620.59" cy="366.9" rx="285.9" ry="251.62"/><ellipse class="cls-106" cx="620.59" cy="366.9" rx="281.47" ry="247.71"/><ellipse class="cls-61" cx="620.59" cy="366.9" rx="277.03" ry="243.81"/><ellipse class="cls-70" cx="620.59" cy="366.9" rx="272.59" ry="239.9"/><ellipse class="cls-71" cx="620.59" cy="366.9" rx="268.16" ry="236"/><ellipse class="cls-66" cx="620.59" cy="366.9" rx="263.72" ry="232.1"/><ellipse class="cls-73" cx="620.59" cy="366.9" rx="259.29" ry="228.19"/><ellipse class="cls-49" cx="620.59" cy="366.9" rx="254.85" ry="224.29"/><ellipse class="cls-39" cx="620.59" cy="366.9" rx="250.41" ry="220.38"/><ellipse class="cls-42" cx="620.59" cy="366.9" rx="245.98" ry="216.48"/><ellipse class="cls-51" cx="620.59" cy="366.9" rx="241.54" ry="212.57"/><ellipse class="cls-58" cx="620.59" cy="366.9" rx="237.1" ry="208.67"/><ellipse class="cls-43" cx="620.59" cy="366.9" rx="232.67" ry="204.77"/><ellipse class="cls-55" cx="620.59" cy="366.9" rx="228.23" ry="200.86"/><ellipse class="cls-53" cx="620.59" cy="366.9" rx="223.79" ry="196.96"/><ellipse class="cls-76" cx="620.59" cy="366.9" rx="219.36" ry="193.05"/><ellipse class="cls-68" cx="620.59" cy="366.9" rx="214.92" ry="189.15"/><ellipse class="cls-78" cx="620.59" cy="366.9" rx="210.49" ry="185.24"/><ellipse class="cls-80" cx="620.59" cy="366.9" rx="206.05" ry="181.34"/><ellipse class="cls-65" cx="620.59" cy="366.9" rx="201.61" ry="177.44"/><ellipse class="cls-75" cx="620.59" cy="366.9" rx="197.18" ry="173.53"/><ellipse class="cls-52" cx="620.59" cy="366.9" rx="192.74" ry="169.63"/><ellipse class="cls-38" cx="620.59" cy="366.9" rx="188.3" ry="165.72"/><ellipse class="cls-92" cx="620.59" cy="366.9" rx="183.87" ry="161.82"/><ellipse class="cls-93" cx="620.59" cy="366.9" rx="179.43" ry="157.91"/><ellipse class="cls-108" cx="620.59" cy="366.9" rx="174.99" ry="154.01"/><ellipse class="cls-83" cx="620.59" cy="366.9" rx="170.56" ry="150.1"/><ellipse class="cls-86" cx="620.59" cy="366.9" rx="166.12" ry="146.2"/><ellipse class="cls-112" cx="620.59" cy="366.9" rx="161.69" ry="142.3"/><ellipse class="cls-84" cx="620.59" cy="366.9" rx="157.25" ry="138.39"/><ellipse class="cls-103" cx="620.59" cy="366.9" rx="152.81" ry="134.49"/><ellipse class="cls-82" cx="620.59" cy="366.9" rx="148.38" ry="130.58"/><ellipse class="cls-81" cx="620.59" cy="366.9" rx="143.94" ry="126.68"/><ellipse class="cls-60" cx="620.59" cy="366.9" rx="139.5" ry="122.77"/><ellipse class="cls-59" cx="620.59" cy="366.9" rx="135.07" ry="118.87"/><ellipse class="cls-85" cx="620.59" cy="366.9" rx="130.63" ry="114.97"/><ellipse class="cls-94" cx="620.59" cy="366.9" rx="126.19" ry="111.06"/><ellipse class="cls-90" cx="620.59" cy="366.9" rx="121.76" ry="107.16"/><ellipse class="cls-89" cx="620.59" cy="366.9" rx="117.32" ry="103.25"/><ellipse class="cls-107" cx="620.59" cy="366.9" rx="112.89" ry="99.35"/><ellipse class="cls-99" cx="620.59" cy="366.9" rx="108.45" ry="95.44"/><ellipse class="cls-114" cx="620.59" cy="366.9" rx="104.01" ry="91.54"/><ellipse class="cls-95" cx="620.59" cy="366.9" rx="99.58" ry="87.64"/><ellipse class="cls-102" cx="620.59" cy="366.9" rx="95.14" ry="83.73"/><ellipse class="cls-105" cx="620.59" cy="366.9" rx="90.7" ry="79.83"/><ellipse class="cls-100" cx="620.59" cy="366.9" rx="86.27" ry="75.92"/><ellipse class="cls-109" cx="620.59" cy="366.9" rx="81.83" ry="72.02"/><ellipse class="cls-97" cx="620.59" cy="366.9" rx="77.39" ry="68.11"/><ellipse class="cls-88" cx="620.59" cy="366.9" rx="72.96" ry="64.21"/><ellipse class="cls-87" cx="620.59" cy="366.9" rx="68.52" ry="60.3"/><ellipse class="cls-113" cx="620.59" cy="366.9" rx="64.09" ry="56.4"/><ellipse class="cls-101" cx="620.59" cy="366.9" rx="59.65" ry="52.5"/><ellipse class="cls-111" cx="620.59" cy="366.9" rx="55.21" ry="48.59"/><ellipse class="cls-110" cx="620.59" cy="366.9" rx="50.78" ry="44.69"/><ellipse class="cls-18" cx="620.59" cy="366.9" rx="46.34" ry="40.78"/><ellipse class="cls-12" cx="620.59" cy="366.9" rx="41.9" ry="36.88"/><ellipse class="cls-19" cx="620.59" cy="366.9" rx="37.47" ry="32.97"/><ellipse class="cls-17" cx="620.59" cy="366.9" rx="33.03" ry="29.07"/><ellipse class="cls-7" cx="620.59" cy="366.9" rx="28.59" ry="25.17"/><ellipse class="cls-11" cx="620.59" cy="366.9" rx="24.16" ry="21.26"/><ellipse class="cls-14" cx="620.59" cy="366.9" rx="19.72" ry="17.36"/><ellipse class="cls-8" cx="620.59" cy="366.9" rx="15.29" ry="13.45"/><ellipse class="cls-6" cx="620.59" cy="366.9" rx="10.85" ry="9.55"/><ellipse class="cls-5" cx="620.59" cy="366.9" rx="6.41" ry="5.64"/></g></g><g id="Layer_24"><ellipse class="cls-128" cx="210.51" cy="628.95" rx="124.57" ry="15.16"/><ellipse class="cls-10" cx="250.29" cy="524.72" rx="104.01" ry="104.24"/><path class="cls-126" d="m250.29,629.59c-57.7,0-104.64-47.05-104.64-104.87s46.94-104.87,104.64-104.87,104.64,47.05,104.64,104.87-46.94,104.87-104.64,104.87Zm0-208.47c-57,0-103.37,46.47-103.37,103.6s46.37,103.6,103.37,103.6,103.37-46.47,103.37-103.6-46.37-103.6-103.37-103.6Z"/><path class="cls-15" d="m338.35,479.89c-2.88-10.05-8.54-15.92-16.83-19.77-5-2.32-7.98-.66-12.75-1.57,15.8,5.83,20.33,15.59,21.01,32.11.45,10.99-3.31,20.71-11.45,28.26-.39.36-.78.36-1.15.68,2.77,1.63,5.3,3.83,8.35,4.96,3.06,1.13,6.21,1.2,8.06-2.02,7.73-13.4,8.85-28.38,4.75-42.65Z"/><path class="cls-126" d="m339.16,479.68c-2.9-10.18-8.97-16.65-17.25-20.2-7.07-3.03-11.34-.85-18-1.05-1.03-.03-1.54.45-2.35.57s-1.41.37-2.06.62c-4.03,1.53-7.39,3.45-10.83,5.92-1.16.83-1.97,1.63-3,2.55.46-.19,1,.04,1.42-.23.8-.51,1.29-1.11,2.11-1.68,4.6-3.2,9.22-5.4,14.72-6.86,18.23,3.32,24.01,13.13,25,31.26.59,10.85-3.24,20.08-11.1,27.51-.52.49-.96.54-1.52.82-.15.07-.28-.18-.42-.27-3.32-2.25-6.56-4.64-10.26-6.28-1.59-.71-3.3-.93-5.02-1.17-.31.25-.62.5-.93.75,1.95.19,3.86.46,5.66,1.24,3.68,1.6,6.86,3.94,10.16,6.19.02.01,0,0,.08.06.07.05.24.17.37.26.13.09.29.21.46.32,2.84,1.9,5.72,3.88,8.79,5.36.92.44,1.85.82,2.84.76,2.72-.18,4.83-.5,6.33-3.14,7.74-13.56,8.9-28.95,4.82-43.3Zm-5.56,42.85c-1.86,3.22-5,3.15-8.06,2.02-3.06-1.13-5.58-3.33-8.35-4.96.37-.31.76-.31,1.15-.68,8.14-7.55,11.9-17.27,11.45-28.26-.68-16.52-5.22-26.28-21.01-32.11,4.77.9,7.75-.76,12.75,1.57,8.29,3.85,13.95,9.72,16.83,19.77,4.09,14.27,2.97,29.25-4.75,42.65Z"/><path class="cls-15" d="m310.38,491.24c-.09,9.38-4.71,13.19-9.73,20.01,1.67.14,3.39.42,4.98,1.12,3.69,1.63,6.95,4.03,10.26,6.28.14.09.27.35.42.27.56-.28,1-.33,1.52-.82,7.86-7.44,11.69-16.67,11.1-27.52-.98-18.13-6.76-27.93-25-31.26-5.5,1.47-10.12,3.65-14.71,6.87-.82.57-1.36,1.1-2.09,1.72.96-.05,2.02-.26,2.97-.07,14.08,2.89,20.44,9.09,20.3,23.4Z"/><path class="cls-4" d="m292.07,511.24c-3.69-.1-6.16.84-10.54-.2-2.35-.56-6.99-1.84-7.1-6.29-.33-13.92,3.25-26.04,12.7-36.8-.49,0-.96.02-1.44.18-8.95,10.79-12.42,23.11-12.07,36.68.13,4.93,5.1,6.38,7.71,7.05,4.55,1.17,6.86.05,10.66.2,2.89.11,4.94-.31,7.71-.1.27-.27.59-.52.92-.75-3.02-.29-5.41.12-8.55.04Z"/><path class="cls-4" d="m274.43,504.75c.11,4.45,4.75,5.73,7.1,6.29,4.38,1.05,6.84.09,10.55.2,3.15.1,5.51-.38,8.6.02,4.98-6.84,9.63-10.64,9.71-20.02.13-14.3-6.21-20.52-20.3-23.4-.95-.19-2.01,0-2.96.1-9.45,10.77-13.03,22.89-12.7,36.81Z"/><path class="cls-15" d="m178.58,515.57c-6.56-7.95-7.59-17.69-6.57-27.43,1.02-9.74,4.53-16.23,12.16-21.55,4.58-3.19,9.26-2.55,14.22-4.16-1.15-.2-2.58-.42-3.7-.64-1.12-.22-3.11-.11-4.02,0-10.25,1.17-21.44,5.12-25.79,14.64-7.24,15.85-3.79,28.42,1.78,43.48,1.44,3.88,3.5,2.92,6.57,3.62.83.19,1.53-.29,2.34-.1,2.89-1.53,5.69-3.23,8.41-5-1.83-.93-3.99-1.16-5.39-2.86Z"/><path class="cls-15" d="m207.93,466.31c-2.42-1.35-4.77-2.26-7.37-3.18-5.54,1.38-10.82.76-15.87,4.16-7.46,5.03-10.85,11.49-11.84,20.92-.99,9.42-.06,18.97,6.36,26.65,1.51,1.8,3.83,1.96,5.8,2.88.59-.43,1.23-.85,1.8-1.24,3.91-2.74,7.65-5.39,12.26-6.75.08-.02.16-.06.18,0-3.56-6.51-7.49-10.79-7.13-18.81.56-12.65,8.55-18.39,20.35-21.64-1.36-1.14-2.98-2.12-4.52-2.98Z"/><path class="cls-126" d="m199.29,509.73c-.09-.05-.14,0-.23.02-4.62,1.36-8.35,4.01-12.26,6.75-.57.4-1.21.82-1.8,1.24-1.97-.92-4.3-1.08-5.8-2.88-6.42-7.68-7.34-17.22-6.36-26.65.99-9.42,4.38-15.89,11.84-20.92,5.05-3.4,10.34-2.78,15.87-4.16,2.61.91,4.94,1.84,7.38,3.18,1.55.85,3.11,1.89,4.57,2.93.14.1.45-.03.59-.02.14.02.19-.02.31-.01.12,0,.23,0,.34,0-1.68-1.32-3.46-2.52-5.3-3.57-1.84-1.05-3.64-1.92-5.59-2.65-.36-.13-.71-.24-1.02-.35-.31-.11-.84-.2-1.09-.31-2.55-1.17-7.61-1.63-10-1.37-10.87,1.19-22.02,5.39-26.55,15.13-7.52,16.15-3.87,28.9,1.76,44.15,1.59,4.31,3.86,3.26,7.22,4.13.91.24,1.54-.3,2.4-.1.03,0,.07-.02.1-.02s.07-.03.1-.04c3.22-1.65,6.27-3.52,9.28-5.54.18-.12.35-.24.55-.38.2-.14.29-.2.57-.38.27-.19.7-.48,1.04-.72,3.83-2.69,7.59-5.37,12.12-6.68.21-.06.44.01.54-.11s-.22-.24-.27-.34c-.05-.09-.21-.28-.3-.33Zm-26.07,13.81c-3.07-.7-5.13.26-6.57-3.62-5.57-15.06-9.02-27.64-1.78-43.49,4.35-9.52,15.54-13.47,25.79-14.64.91-.1,2.9-.22,4.02,0s2.55.44,3.7.64c-4.96,1.62-9.64.97-14.22,4.16-7.63,5.32-11.15,11.82-12.16,21.55s.01,19.48,6.57,27.43c1.41,1.7,3.57,1.93,5.39,2.86-2.72,1.77-5.52,3.47-8.41,5-.81-.18-1.51.29-2.34.1Z"/><path class="cls-4" d="m213.75,469.2c-.12,0-.23,0-.35,0-.12,0-.17.01-.31.02-.14,0-.46.02-.62.06-11.83,3.25-19.81,8.98-20.37,21.64-.36,8.03,3.54,12.31,7.16,18.8.07.12.27.2.35.33s.23.23.32.36c3.6-.29,7.07-.05,10.7-.08,4.78-.03,9.27-.81,13.81-2.36.02,0,.06-.02.07-.04,2.87-2.5,3.38-5.23,3.52-8.91,0-.1.02-.24,0-.33-1.12-12.24-5.6-20.89-14.29-29.49Z"/><path class="cls-4" d="m278.4,526.05c-10.65-4.32-26.52,12.87-38.6,5.49-.25-.15-.5-.29-.75-.44l-.9,3.73c-.44,1.81-2.27,2.93-4.08,2.5l-7.88-1.9c-1.81-.44-2.93-2.27-2.5-4.08l1.52-6.32c-13.77-3.55-20.79,3.49-15.93,15.41,5.27,12.92,28.49,29.51,59.9,16.69,19.89-8.12,22.15-25.83,9.21-31.08Z"/><path class="cls-126" d="m246.99,562.39c-7.28,0-13.29-1.56-17.79-3.36-11.47-4.59-18.11-12.49-20.5-18.35-2.33-5.7-2.09-10.57.66-13.71,3.07-3.52,8.76-4.42,16.02-2.55l.61.16-1.67,6.92c-.17.71-.05,1.45.33,2.08.38.63.99,1.07,1.7,1.24l7.88,1.9c.71.17,1.45.05,2.08-.33.63-.38,1.07-.99,1.24-1.7l1.1-4.57,1.49.89c6.28,3.84,13.78.68,21.02-2.38,6.36-2.69,12.38-5.23,17.49-3.15h0c5.38,2.18,8.47,6.51,8.47,11.87,0,6.36-4.64,15.06-17.69,20.39-8.4,3.43-15.93,4.67-22.44,4.67Zm-28.37-37.64c-3.65,0-6.55,1.04-8.31,3.05-2.42,2.77-2.57,7.17-.44,12.4,2.29,5.62,8.7,13.2,19.8,17.65,8.3,3.33,21.86,5.8,39.27-1.31,10.27-4.19,16.9-11.73,16.9-19.21,0-4.82-2.8-8.71-7.68-10.69h0c-4.62-1.88-10.4.56-16.52,3.15-7.54,3.19-15.34,6.48-22.18,2.3l-.7,2.9c-.25,1.04-.9,1.92-1.81,2.48-.92.56-1.99.73-3.04.48l-7.88-1.9c-1.04-.25-1.92-.9-2.48-1.81s-.73-2-.48-3.04l1.38-5.7c-2.09-.5-4.05-.74-5.83-.74Z"/><path class="cls-15" d="m226.19,535.43l7.88,1.9c1.81.44,3.65-.69,4.08-2.5l.9-3.73c-5.11-3.05-9.77-5.02-13.83-6.07l-1.52,6.32c-.44,1.81.69,3.65,2.5,4.08Z"/><path class="cls-126" d="m234.87,538.06c-.31,0-.63-.04-.94-.11l-7.88-1.9c-1.04-.25-1.92-.9-2.48-1.81s-.73-2-.48-3.04l1.67-6.94.63.16c4.32,1.12,9.03,3.18,14,6.14l.4.24-1.01,4.19c-.25,1.04-.9,1.92-1.81,2.48-.64.39-1.36.59-2.09.59Zm-9.18-12.25l-1.37,5.68c-.17.71-.05,1.45.33,2.08.38.63.99,1.07,1.7,1.24l7.88,1.9c.71.17,1.45.05,2.08-.33.63-.38,1.07-.99,1.24-1.7l.79-3.27c-4.48-2.63-8.72-4.51-12.64-5.6Z"/><ellipse class="cls-128" cx="1055.7" cy="643.08" rx="124.57" ry="15.16"/></g><g id="Layer_25"><path class="cls-91" d="m928.09,154.71c98.2,6.04,163.69,27.06,240.42,98.06-101.94-5.41-163.89-37.61-240.42-98.06Z"/><path class="cls-126" d="m1168.48,253.27c-49.73-2.64-91.01-11.67-129.91-28.43-34.7-14.95-67.83-35.8-110.8-69.74l-1.25-.99,1.59.1c53.35,3.28,92.95,10.9,128.41,24.71,38.74,15.08,74.43,38.43,112.32,73.49l1.02.94-1.38-.07Zm-129.52-29.35c38.42,16.55,79.19,25.55,128.18,28.28-37.41-34.45-72.71-57.45-110.98-72.35-35-13.63-74.07-21.21-126.51-24.54,42.29,33.29,75.04,53.85,109.31,68.61Z"/><path class="cls-46" d="m906.24,153.62c7.47.29,14.74.65,21.84,1.09,76.54,60.45,138.48,92.65,240.42,98.06,3.19,2.95,6.4,5.98,9.63,9.11-.06.12-.11.23-.17.35-113.99-2.86-184.55-38.88-271.8-108.5.02-.04.05-.07.07-.11Z"/><path class="cls-126" d="m1177.96,262.73c-117.42-2.95-188.69-42.06-272.1-108.61l-.32-.33.44-.68h.28c7.57.31,14.92.68,21.86,1.1h.16s.12.11.12.11c42.89,33.88,75.96,54.69,110.57,69.61,38.79,16.71,79.96,25.72,129.57,28.35h.18s.13.13.13.13c3.29,3.05,6.54,6.11,9.64,9.12l.26.25-.48.96h-.32Zm-139.39-37.89c-34.66-14.93-67.77-35.77-110.67-69.64-6.48-.4-13.32-.74-20.37-1.03,82.62,65.78,153.5,104.47,269.71,107.54-2.89-2.79-5.89-5.63-8.94-8.45-49.65-2.65-90.88-11.68-129.73-28.42Z"/><path class="cls-98" d="m906.29,154.46c83.04,66.2,154.13,105.15,270.89,108.25-6.81,13.63-12.68,26.4-17.79,38.71-19.05-10.26-49.05-19.38-82.14-22.33-36.74-3.28-52.71-4.51-72.21-1.94-27.05-25.58-58.08-41.91-90.19-47.39-5.67-.97-11.37-1.6-17.08-1.88-1.53-.08-3.07-.12-4.62-.12-.29,0-.58.01-.87.01-1.24,0-2.49.02-3.74.07-.5.02-.99.06-1.49.09-1.04.05-2.07.11-3.11.19-.64.05-1.27.13-1.9.19-.78.08-1.56.14-2.34.24,5.58-30.99,14.52-55.91,26.6-74.08Z"/><path class="cls-126" d="m878.47,229.7l.12-.67c-.04.22-.07.45-.11.67h0Z"/><path class="cls-126" d="m1177.17,262.71c-116.75-3.1-187.85-42.05-270.89-108.25-12.07,18.18-21.02,43.1-26.6,74.08.78-.1,1.56-.16,2.34-.24-1.01.1-2.01.19-3.02.32l-.36.05c5.64-31.52,14.76-56.83,27.11-75.22l.3-.45.42.34c83.24,66.42,154.36,105.45,271.5,108.39l.79.02-.35.7c-6.97,13.91-12.96,26.92-18.15,39.45-.29-.16-.59-.32-.88-.48,5.11-12.31,10.98-25.08,17.79-38.71Z"/><path class="cls-96" d="m1077.24,279.09c33.09,2.96,63.09,12.08,82.14,22.33-1.7,4.08-3.31,8.11-4.84,12.11-.77.24-1.52.48-2.27.72-.64.2-1.29.4-1.91.61-.83.27-1.64.53-2.46.8-.56.18-1.14.37-1.7.55-.58.19-1.15.38-1.73.57-2.1.69-4.17,1.38-6.2,2.06-39.03,13.05-60.54,20.23-112.6-20.5-.74-.58-1.47-1.1-2.22-1.59-5.89-7.03-12.04-13.56-18.42-19.59,19.5-2.57,35.47-1.34,72.21,1.94Z"/><path class="cls-126" d="m1025.35,298.72c-.72-.57-1.44-1.08-2.18-1.57l-.11-.1c-5.82-6.95-12-13.52-18.38-19.55l-.76-.72,1.04-.14c19.68-2.59,35.43-1.36,72.32,1.94h0c30.59,2.73,61.37,11.1,82.33,22.39l.4.21-.17.42c-1.68,4.05-3.31,8.12-4.84,12.09l-.09.23-10.3,3.32c-2.1.69-4.17,1.38-6.2,2.06-17.04,5.7-30.76,10.28-45.11,10.28-18.66,0-38.41-7.75-67.96-30.86Zm133.4,2.92c-20.84-11.12-51.28-19.36-81.55-22.06h0c-36.15-3.23-51.97-4.47-71.06-2.08,6.11,5.84,12.05,12.17,17.65,18.85.75.49,1.46,1.01,2.19,1.58,51.86,40.57,73.27,33.41,112.14,20.42,2.03-.68,4.1-1.37,6.21-2.06l9.85-3.18c1.45-3.77,2.99-7.63,4.59-11.48Z"/><path class="cls-3" d="m1138.26,318.83c-39.03,13.05-60.54,20.23-112.6-20.5,52.06,40.73,73.57,33.55,112.6,20.5Z"/><path class="cls-77" d="m995.41,303.03c11.31,4.94,22.8,9.35,34.32,13.76,29.89-75.1,60.99-146.31,91.33-221.23-9.57-12.09-22.7-14.76-36.01-13.97-30.42,75.08-59.17,146.38-89.64,221.44Z"/><path class="cls-126" d="m1029.56,317.25c-11.22-4.29-22.83-8.73-34.34-13.77l-.45-.2.18-.45c18.19-44.8,36.11-89.11,53.44-131.97,11.94-29.54,23.94-59.19,36.2-89.46l.12-.29.31-.02c16.21-.96,28.13,3.66,36.43,14.16l.18.23-.11.27c-13.61,33.6-27.59,66.97-41.11,99.25-16.59,39.61-33.74,80.56-50.22,121.97l-.18.46-.46-.18Zm55.84-235.18c-12.22,30.17-24.18,59.73-36.08,89.17-17.27,42.72-35.13,86.88-53.26,131.52,11.19,4.88,22.47,9.2,33.39,13.38,16.43-41.27,33.52-82.07,50.05-121.53,13.48-32.19,27.42-65.46,40.99-98.97-8.02-9.99-19.51-14.44-35.09-13.57Z"/><path class="cls-34" d="m913.85,143.67c-.04-.1-.08-.2-.12-.29.08,0,.17.01.25.02.04,0,.08,0,.11,0,13.03.83,25.45,1.85,37.37,3.1,93.09,9.82,155.29,34.64,229.71,106.79.29.29.59.57.88.85-1.34,2.6-2.64,5.17-3.92,7.73-3.23-3.13-6.44-6.16-9.63-9.11-76.73-71-142.23-92.02-240.42-98.06-7.11-.44-14.38-.8-21.84-1.09,2.39-3.56,4.92-6.89,7.61-9.95Z"/><path class="cls-126" d="m1177.8,262.24c-3.1-3-6.34-6.06-9.62-9.1-37.79-34.97-73.38-58.26-112.01-73.29-35.36-13.76-74.87-21.36-128.11-24.64-6.92-.43-14.27-.79-21.83-1.09l-.9-.04.5-.74c2.4-3.56,4.9-6.84,7.44-9.76l-.31-.75,1.06.07-.03.37.14-.37c13.58.87,25.82,1.88,37.4,3.11,99.18,10.46,159.37,38.44,230.01,106.93l1.15,1.11-.17.33c-1.34,2.6-2.64,5.17-3.92,7.73l-.31.61-.49-.47Zm3.04-8.58c-70.46-68.31-130.49-96.22-229.42-106.65-11.5-1.21-23.64-2.22-37.12-3.09l-.07.09c-2.41,2.74-4.78,5.82-7.06,9.15,7.25.29,14.3.65,20.96,1.06,53.35,3.28,92.95,10.9,128.41,24.71,38.74,15.08,74.43,38.43,112.32,73.49,3.12,2.89,6.2,5.79,9.15,8.64,1.13-2.25,2.28-4.51,3.45-6.8l-.62-.59Z"/><path class="cls-9" d="m879.51,229.57c6.07-.76,12.19-.99,18.2-.69,37.63,1.86,74.51,18.87,106.03,48.45,6.57,6.17,12.92,12.87,18.99,20.11l.11.1c.75.49,1.47,1.01,2.21,1.58,1.85,1.45,3.67,2.84,5.45,4.17,26.69,19.98,45.22,26.81,62.78,26.82,14.42,0,28.19-4.6,45.31-10.32,4.93-1.65,10.01-3.35,15.5-5.07-3.6,9.45-6.72,18.68-9.44,27.79-9.55,32.04-13.75,62.39-13.05,93.68.85,38.06,8.78,79.5,25.7,134.35-30.65,26.94-74.61,46.37-130.66,57.77-4.88.99-9.92,1.93-14.98,2.79-2.31.39-4.61.77-6.91,1.13-12.91,2.01-26.16,3.55-39.37,4.6h-.16s0-.55,0-.55l-.11-.13c-38.73-48.15-61.46-149.41-73.67-203.81-2.37-10.55-4.41-19.66-6.1-26.3-13.28-52.18-15.56-121.39-5.83-176.45Z"/><path class="cls-126" d="m1154.09,314.71c-5.49,1.72-10.58,3.42-15.5,5.07-17.12,5.72-30.89,10.33-45.31,10.32-17.57,0-36.09-6.84-62.78-26.82-1.78-1.33-3.59-2.72-5.45-4.17-.74-.58-1.46-1.1-2.21-1.58l-.11-.1c-6.07-7.24-12.41-13.95-18.99-20.11.43-.06.86-.12,1.29-.17,6.37,6.02,12.52,12.56,18.42,19.59.75.49,1.48,1.01,2.22,1.59,52.07,40.74,73.57,33.55,112.6,20.5,2.03-.68,4.1-1.37,6.2-2.06.58-.19,1.15-.38,1.73-.57.56-.18,1.13-.37,1.7-.55.82-.27,1.63-.53,2.46-.8.63-.2,1.28-.4,1.91-.61.83-.26,1.65-.53,2.5-.79l.98-.31-.37.96c-3.68,9.59-6.87,18.97-9.64,28.22-.36.06-.73.12-1.1.18,2.72-9.11,5.84-18.35,9.44-27.79Z"/><path class="cls-126" d="m878.47,229.7c.04-.22.07-.45.11-.67l.06-.36h0s.36-.05.36-.05c1-.13,2.01-.22,3.02-.32.64-.06,1.27-.14,1.9-.19,1.04-.08,2.07-.14,3.11-.19.5-.03.99-.07,1.49-.09,1.25-.05,2.49-.06,3.74-.07.29,0,.58-.01.87-.01,1.54,0,3.08.05,4.62.12,5.72.28,11.42.91,17.08,1.88,32.1,5.48,63.13,21.81,90.19,47.39-.43.06-.86.11-1.29.17-31.52-29.58-68.4-46.58-106.03-48.45-6.01-.3-12.13-.06-18.2.69-9.73,55.06-7.45,124.27,5.83,176.45,1.69,6.64,3.74,15.75,6.1,26.3,12.21,54.4,34.94,155.66,73.67,203.81l.11.13v.57s.17-.01.17-.01c13.22-1.04,26.46-2.59,39.37-4.6,2.3-.36,4.6-.74,6.91-1.13,5.06-.86,10.1-1.8,14.98-2.79,56.05-11.39,100.01-30.83,130.66-57.77-16.92-54.84-24.85-96.29-25.7-134.35-.7-31.29,3.5-61.64,13.05-93.68.37-.06.73-.12,1.1-.18-9.62,32.11-13.85,62.5-13.15,93.84.85,38.03,8.8,79.48,25.75,134.38l.1.31-.24.21c-30.79,27.17-74.99,46.75-131.36,58.21-4.89.99-9.94,1.94-15.01,2.8-2.31.39-4.62.78-6.92,1.13-12.94,2.01-26.21,3.56-39.45,4.6l-1.22.1-.02-1.29c-38.81-48.38-61.54-149.65-73.76-204.08-2.37-10.54-4.41-19.65-6.1-26.28-13.29-52.21-15.59-121.43-5.9-176.57Z"/><ellipse class="cls-127" cx="1117.78" cy="567.43" rx="20.04" ry="18.05"/><ellipse class="cls-127" cx="1082.34" cy="532.24" rx="20.04" ry="19.86"/><ellipse class="cls-127" cx="979.06" cy="489.24" rx="22.33" ry="19.86"/><ellipse class="cls-127" cx="957.52" cy="541.19" rx="21.22" ry="18.19"/><ellipse class="cls-127" cx="1014.06" cy="562.05" rx="22.33" ry="18.05"/><ellipse class="cls-127" cx="1069.34" cy="583.05" rx="20.04" ry="18.05"/><ellipse class="cls-127" cx="1025.34" cy="606.05" rx="20.04" ry="18.05" transform="translate(-112.12 252.77) rotate(-13.33)"/><ellipse class="cls-127" cx="976.34" cy="593.05" rx="20.04" ry="18.05"/><ellipse class="cls-127" cx="1027.34" cy="515.05" rx="20.04" ry="18.05"/><ellipse class="cls-127" cx="1108.34" cy="489.05" rx="18.05" ry="20.04" transform="translate(81.84 1132.4) rotate(-55.89)"/><path class="cls-20" d="m977.89,478.12c1.82-2.27-.8-4.59-5.6-3.45-7.58,1.8-10.22,7.07-9.63,9.56.71,3.02,5.07,3.15,8.24-2.19,1.39-2.34,5.49-2.05,6.99-3.92Z"/><path class="cls-20" d="m1021.14,505.08c.38-2.89-3.06-3.51-6.58-.06-5.56,5.46-5.09,11.33-3.29,13.16,2.17,2.21,6.47.19,5.92-6.14-.23-2.71,3.64-4.59,3.95-6.97Z"/><path class="cls-20" d="m1000,564.52c-2.45,1.57-4.48-1.29-2.83-5.94,2.6-7.35,8.12-9.4,10.54-8.55,2.92,1.03-1.35,4.07-5.28,8.71-1.76,2.07-.41,4.48-2.43,5.77Z"/><path class="cls-20" d="m1109.34,477.42c2.5-1.49-.8-4.59-5.6-3.45-7.58,1.8-9.29,7.02-9.63,9.56-.38,2.84,5.62,2.84,8.24-2.19,1.25-2.41,5.38-2.96,6.99-3.92Z"/><path class="cls-20" d="m949.63,532.52c.13-2.91-3.35-3.23-6.56.52-5.06,5.92-4.08,11.73-2.13,13.4,2.36,2.01,5.79-1.06,5.36-6.63-.21-2.71,3.22-4.89,3.33-7.29Z"/><path class="cls-20" d="m1106.83,571.67c-2.61,1.28-4.3-1.78-2.15-6.22,3.4-7.01,9.12-8.43,11.43-7.31,2.79,1.35,1.39,4.72-3.93,7.57-2.4,1.28-3.19,4.91-5.35,5.97Z"/><path class="cls-20" d="m1083.34,520.42c1.82-2.27-.8-4.59-5.6-3.45-7.58,1.8-10.22,7.07-9.63,9.56.71,3.02,2.62,3.84,8.24-2.19,1.85-1.99,5.49-2.05,6.99-3.92Z"/><path class="cls-20" d="m1015.19,598.84c-1.1-1.47-3.52-1.64-4.93,1.88-2.23,5.56.18,9.66,2.17,10.46,2.4.96,2.24-1.12,2.26-6.15.02-3.22,1.64-4.66.5-6.18Z"/><path class="cls-20" d="m977.34,583.42c1.82-2.27-.8-4.59-5.6-3.45-7.58,1.8-10.22,7.07-9.63,9.56.71,3.02,5.62,3.84,8.24-2.19,1.08-2.49,5.49-2.05,6.99-3.92Z"/><path class="cls-20" d="m1064.58,573.33c.98-2.25-1.67-2.54-5.32.33-5.76,4.53-6.74,9.05-5.7,10.36,1.25,1.59,6.22-.61,6.21-5.08,0-1.98,4.01-3.75,4.81-5.61Z"/><path class="cls-16" d="m1022.06,355.52c3.04,0,5.49.55,7.05,2.12,2.24,2.25,2.78,6.69,1.63,13.57-.91,5.46-19.23,14.15-42.93,12.17-26.78-2.25-37.27-14.03-40.54-18.99-2.69-4.09-3.08-7.24-2.6-8.69,1.6-4.79,3.59-7.64,6.1-8.71,3.91-1.66,9.11.82,15.7,3.96,6.38,3.04,13.61,6.49,22.14,7.42,1.37.15,2.74.21,4.11.24v7.23c0,1.4,1.14,2.54,2.54,2.54h11.92c1.4,0,2.54-1.14,2.54-2.54v-8.85c.27-.04.55-.09.82-.13,4.27-.69,8.23-1.34,11.51-1.34Z"/><path class="cls-126" d="m942.78,355.06c1.81-5.44,4.11-8.59,7.22-9.92,4.73-2.01,10.3.64,17.34,4,6.24,2.97,13.3,6.34,21.5,7.24,1.29.14,2.59.2,3.89.23v1.02c-1.34-.03-2.67-.1-4-.25-22.98-2.52-37.59-24.23-45-2-2,6,8.77,26.04,44,29,24.7,2.08,43-7,44-13,3.3-19.8-7.47-17.76-22-15.4v-1.01c.16-.03.34-.05.5-.08,8.76-1.42,16.32-2.65,20.3,1.35,2.77,2.78,3.46,7.65,2.19,15.31-1.05,6.3-16.91,14.13-37.91,14.13-2.33,0-4.72-.1-7.16-.3-27.65-2.32-38.61-14.68-42.04-19.89-2.58-3.92-3.66-7.91-2.83-10.43Z"/><path class="cls-126" d="m988.62,358.37c-8.53-.94-15.76-4.38-22.14-7.42-6.59-3.14-11.79-5.62-15.7-3.96-2.51,1.07-4.51,3.92-6.1,8.71-.49,1.45-.1,4.6,2.6,8.69,3.27,4.96,13.76,16.74,40.54,18.99,23.7,1.98,42.02-6.7,42.93-12.17,1.15-6.88.61-11.32-1.63-13.57-1.57-1.57-4.02-2.12-7.05-2.12-3.28,0-7.25.64-11.51,1.34-.27.04-.55.09-.82.13v-1.01c14.53-2.36,25.3-4.4,22,15.4-1,6-19.3,15.08-44,13-35.22-2.96-46-23-44-29,7.41-22.23,22.02-.52,45,2,1.33.15,2.66.22,4,.25v.98c-1.37-.03-2.74-.09-4.11-.24Z"/><path class="cls-13" d="m1007.19,368.38h-11.92c-1.4,0-2.54-1.14-2.54-2.54v-7.23c5.86.11,11.69-.76,17-1.62v8.85c0,1.4-1.14,2.54-2.54,2.54Z"/><path class="cls-126" d="m992.73,357.63v-1.02c5.82.11,11.68-.79,17-1.65v1.01c-5.33.86-11.16,1.77-17,1.65Z"/><path class="cls-126" d="m1009.73,355.97v1.01c-5.31.86-11.14,1.74-17,1.62v-.98c5.84.11,11.67-.79,17-1.65Z"/><path class="cls-15" d="m1094.68,351.41c8.33-8.09,8.58-22.07,8.16-34.53-.43-12.84-5.57-24.43-14.09-31.78-5.12-4.42-11.15-7.06-17.76-7.84,1.57-.35,3.14-.54,4.71-.54,1.73,0,3.44.21,5.14.64,19.1,4.79,27.88,17.13,31.88,26.64,6.65,15.82,5.01,35.53-4.29,51.44-2.4,4.1-4.64,4.19-7.74,4.31-.84.03-1.71.07-2.65.18-3.31-1.25-6.53-2.75-9.66-4.27,2.41-1.1,4.51-2.52,6.3-4.25Z"/><path class="cls-15" d="m1059.46,282.99c2.87-2.27,5.83-3.9,8.81-4.94,7.44.31,14.21,2.96,19.83,7.82,8.31,7.17,13.32,18.49,13.74,31.06.41,12.25.18,25.97-7.86,33.78-1.89,1.83-4.15,3.29-6.78,4.39-.69-.34-1.39-.68-2.07-1.02-4.71-2.33-9.58-4.74-14.66-6.5-.09-.03-.18-.06-.27-.09,6.57-7.36,8.79-18.19,9.25-27.51.72-14.69-7.91-33.27-25.25-32.03,1.68-1.84,3.44-3.51,5.27-4.95Z"/><path class="cls-126" d="m1069.82,347.88c-.13.14-.25.27-.38.4.23.08.47.15.7.23,5.02,1.73,9.86,4.13,14.54,6.45.41.2.83.41,1.25.62.2.1.4.2.6.3.21.1.42.21.63.31,3.44,1.69,6.98,3.36,10.64,4.74l.12.04.12-.02c.95-.12,1.83-.16,2.69-.19,3.16-.12,5.88-.23,8.56-4.81,9.46-16.17,11.12-36.22,4.35-52.33-4.09-9.72-13.05-22.33-32.56-27.22-4.29-1.08-8.68-.84-13.02.65-.43.15-.86.3-1.28.48-.42.17-.84.34-1.25.54-2.27,1.04-4.5,2.42-6.69,4.15-2.13,1.68-4.18,3.67-6.11,5.88.14-.02.26-.04.4-.06.11-.01.22-.02.33-.03.24-.03.49-.04.73-.06,1.68-1.84,3.44-3.51,5.27-4.95,2.87-2.27,5.83-3.9,8.81-4.94,7.44.31,14.21,2.96,19.83,7.82,8.31,7.17,13.32,18.49,13.74,31.06.41,12.25.18,25.97-7.86,33.78-1.89,1.83-4.15,3.29-6.78,4.39-.69-.34-1.39-.68-2.07-1.02-4.71-2.33-9.58-4.74-14.66-6.5-.09-.03-.18-.06-.27-.09-.12.14-.25.27-.37.4Zm28.22,12.06c-3.31-1.25-6.53-2.75-9.66-4.27,2.41-1.1,4.51-2.52,6.3-4.25,8.33-8.09,8.58-22.07,8.16-34.53-.43-12.84-5.57-24.43-14.09-31.78-5.12-4.42-11.15-7.06-17.76-7.84,1.57-.35,3.14-.54,4.71-.54,1.73,0,3.44.21,5.14.64,19.1,4.79,27.88,17.13,31.88,26.64,6.65,15.82,5.01,35.53-4.29,51.44-2.4,4.1-4.64,4.19-7.74,4.31-.84.03-1.71.07-2.65.18Z"/><path class="cls-4" d="m1052.73,288.08c.14-.02.26-.04.4-.06.11-.01.22-.02.33-.03.24-.03.49-.04.73-.06,17.35-1.24,25.97,17.34,25.25,32.03-.46,9.31-2.68,20.15-9.25,27.51-.12.14-.25.27-.37.4-.13.14-.25.27-.38.4-4.04-1.35-8.22-2.42-12.28-3.45-5.35-1.35-10.87-2.75-16.15-4.84l-.1-.05c-4.11-2.76-4.15-7.1-4.19-10.92v-.41c-.16-13.37,6.52-29.69,16-40.53Z"/><path class="cls-15" d="m889.57,274.87c4.11-12.45,11.23-21.41,19.51-24.57,5-1.91,9.73-3.1,14.17-3.59-15.25,4.49-22.77,17.93-23.43,41.4-.44,15.61,3.89,28.19,12.21,35.41.4.35.83.66,1.25.98-3.04,1.24-6.23,2.5-9.89,3.72-3.92,1.31-7.89.11-9.87-3-8.24-12.92-9.8-32.68-3.96-50.36Z"/><path class="cls-126" d="m892.68,325.78c1.64,2.56,4.46,3.98,7.57,3.98,1.13,0,2.3-.19,3.46-.58,3.9-1.3,7.27-2.65,10.49-3.96.19-.08.37-.15.56-.23.16-.06.31-.13.47-.19.02,0,.05-.02.07-.03,4.01-1.64,7.8-3.19,12.37-4.6,2.23-.69,4.59-1.18,7-1.56-.37-.27-.74-.54-1.09-.84-2.13.37-4.21.83-6.2,1.44-4.64,1.44-8.47,3-12.52,4.66-.17.07-.34.14-.51.21-.56-.42-1.11-.85-1.65-1.31-8.09-7.02-12.3-19.32-11.87-34.63.73-25.57,9.73-38.96,28.18-41.63,6.81.24,12.86,2.34,18.08,6.34.93.71,1.82,1.48,2.67,2.28.61.1,1.19.22,1.77.36-1.2-1.24-2.47-2.39-3.83-3.43-4.04-3.1-8.55-5.09-13.5-6-.79-.15-1.59-.26-2.41-.36-.93-.1-1.87-.17-2.82-.2-6.15-.2-12.9,1.07-20.23,3.87-8.57,3.27-15.9,12.45-20.11,25.19-5.93,17.96-4.34,38.06,4.06,51.22Zm-3.11-50.9c4.11-12.45,11.23-21.41,19.51-24.57,5-1.91,9.73-3.1,14.17-3.59-15.25,4.49-22.77,17.93-23.43,41.4-.44,15.61,3.89,28.19,12.21,35.41.4.35.83.66,1.25.98-3.04,1.24-6.23,2.5-9.89,3.72-3.92,1.31-7.89.11-9.87-3-8.24-12.92-9.8-32.68-3.96-50.36Z"/><path class="cls-15" d="m922.66,289.68c.62,10.97,3.72,22.15,10.91,28.1-2.13.37-4.21.83-6.2,1.44-4.64,1.44-8.47,3-12.52,4.66-.17.07-.34.14-.51.21-.56-.42-1.11-.85-1.65-1.31-8.09-7.02-12.3-19.32-11.87-34.63.73-25.57,9.73-38.96,28.18-41.63,6.81.24,12.86,2.34,18.08,6.34.93.71,1.82,1.48,2.67,2.28-1.15-.19-2.34-.31-3.6-.36-18.55-.67-24.42,18.17-23.48,34.9Z"/><path class="cls-4" d="m943.65,316.53c3.95-.39,8.02-.8,11.77-1.57,2.01-.42,8.6-2.22,9.18-7.85,1.82-17.64-2.17-39.89-14.86-51.96.61.1,1.19.22,1.77.36,12.08,12.52,15.87,34.33,14.08,51.71-.65,6.31-7.8,8.28-9.97,8.73-3.8.79-7.9,1.2-11.87,1.59-3.02.3-6.09.61-9.09,1.09-.37-.27-.74-.54-1.09-.84,3.31-.57,6.73-.91,10.08-1.25Z"/><path class="cls-4" d="m964.59,307.1c-.58,5.64-7.17,7.44-9.18,7.85-3.74.78-7.82,1.18-11.77,1.57-3.35.33-6.77.67-10.08,1.25-7.19-5.95-10.29-17.12-10.91-28.1-.95-16.72,4.93-35.56,23.48-34.9,1.25.05,2.45.17,3.6.36,12.69,12.07,16.67,34.32,14.86,51.96Z"/><path d="m184.86,159.22c.1,2.37-.75,3.37-2.97,2.64-1.91-.6-4.23-2.81-5.36-5.51-.68-1.62-1.23-3.55-1.46-5.62-.3-4.07-.28-10.69.17-18.13-5.13-12.86-11.34-29.85-13.45-40.66-.55-2.83.45-3.49,2.59-3.24,3.28.54,7.73,3.89,10.46,11.01,2.27,6.04,3.27,10.84,6.09,18.82,5.35-14.57,13.21-32.87,18.37-43.93,1.18-2.65,2.83-2.96,3.99-1.41,2.12,2.93,3.67,8.77-.15,17.87-7.51,17-12.22,27.63-17.57,42.2-.7,9.58-1.12,18.91-.7,25.98Z"/><path d="m232.54,127.57c-.82-1.95-1.86-4.44-2.71-7.39l-7.26,3.93c-4.15,2.24-8.19,4.44-11.26,5.6-.79,6.31-.91,12.72-1.54,18.2-.35,2.82-2.37,3.15-3.76,1.95-1.19-1.03-2.25-1.73-2.97-3.46-.72-1.73-1.33-4.4-1.35-8.08-.03-1.9-.04-4.05.2-6.82-2.54-.59-4.15-1.7-4.74-2.21-1.73-1.69-1.56-2.52,1.43-3.27,1.61-.42,2.52-.67,4.08-1.2,2.19-17.57,8.38-44.71,15.72-59.1,1.57-2.94,3.23-3.52,5.76-2.03,1.67.95,2.82,1.87,4.35,3.4,1.08,1.07,1.91,2.13,2.45,3.43.54,1.3.96,2.91.99,4.8.77,8.83,2.45,21.36,5.15,33.58,3.47.08,5.41,1.68,7.12,3.64,1.27,1.51.69,2.25-1.4,2.74l-4.06.94c1.61,5.68,3.38,11.43,5.39,16.82.82,1.95-.41,2.97-2.72,2.92-2.88-.19-6.11-2.15-8.85-8.38Zm-10.31-45.92c-3.44,11.23-6.88,24.88-9.27,38.34,2.07-1.12,4.15-2.24,6.07-3.43,3.5-1.97,5.7-3.4,8.58-4.73-2.46-9.53-4.69-20.93-5.38-30.18Z"/><path d="m258.03,128.6c.1,2.37-.75,3.37-2.97,2.64-1.9-.6-4.23-2.81-5.36-5.51-.68-1.62-1.23-3.55-1.46-5.62-.3-4.07-.28-10.69.17-18.13-5.13-12.86-11.34-29.85-13.45-40.66-.55-2.83.45-3.49,2.59-3.24,3.28.54,7.73,3.89,10.46,11.01,2.27,6.04,3.27,10.84,6.09,18.82,5.35-14.57,13.21-32.87,18.37-43.93,1.18-2.65,2.83-2.96,3.99-1.41,2.12,2.93,3.67,8.77-.15,17.87-7.51,17-12.22,27.63-17.57,42.2-.7,9.58-1.12,18.91-.7,25.98Z"/><path d="m284.95,104.49c1.95-.81,4.7-.31,6.89,1.57,2.37,2.32,2.77,5.71,2.3,7.94-.87,2.78-5.26,3.85-8.47,1.64-1.3-.98-2.48-2.27-2.93-3.35-1.18-2.81-.39-6.7,2.21-7.79Zm3.71-67.43c.56-2.91,2.21-3.85,4.48-1.75,1.04.96,2.17,2.14,2.85,3.77,1.27,3.03,1.95,7.71,1.25,14.23-1.45,12.94-3.42,33.48-3.89,47.54-.16,2.35-.84,3.15-3.45,2.08-1.69-.69-3.28-2.06-4.37-4.66-.63-1.51-1.2-4.08-1.29-7.35-.58-13.24,1.24-38.67,4.42-53.87Z"/><path d="m244.74,199.62c-.02,1.28-.52,1.78-1.68,1.32-1-.39-2.17-1.65-2.69-3.14-.31-.89-.54-1.95-.6-3.06-.03-2.2.21-5.75.7-9.72-2.32-7.07-5.08-16.4-5.85-22.27-.2-1.53.36-1.86,1.5-1.65,1.74.4,4.02,2.35,5.24,6.26,1.02,3.32,1.39,5.93,2.64,10.3,3.36-7.64,8.19-17.2,11.33-22.96.72-1.38,1.62-1.5,2.19-.62,1.04,1.64,1.67,4.83-.68,9.58-4.6,8.87-7.49,14.41-10.85,22.05-.7,5.12-1.23,10.11-1.25,13.92Z"/><path d="m277.73,147.86c4.47.38,7.28,3.48,8.75,7.71,1.53,4.41,1.76,10.07.94,15.03-1.49,8.8-5.38,17.02-12.23,19.4-1.43.5-2.76.69-4.24.67-5.79-.13-9.3-3.92-11.02-8.86-4.36-12.58,3.02-27.49,8.99-32.23,1.05-.83,2.12-1.4,3.37-1.84,2.15-.74,4.06-.61,5.45.11Zm3.56,22.6c1.02-6.3.48-11.72-.78-15.35-.99-2.86-2.25-4.56-3.67-4.6-2.95-.04-8.62,6.33-11.17,16.49-1.41,5.76-.94,11.34.4,15.22,1.45,4.17,3.74,5.98,6.01,5.19,3.7-1.28,7.67-7.73,9.21-16.95Z"/><path d="m298.44,181.4c-2.85-.14-5.94-1.54-7.39-5.72-.39-1.13-.67-2.31-.82-3.72-.64-7.05,2.23-20.53,4.74-30.62.42-1.48,1.44-1.63,2.52-.81.75.61,1.33,1.34,1.71,2.41.48,1.37.66,3.44.18,6.48-1.02,6.3-3.66,17.16-3.12,23.92.13,1.15.29,2.17.55,2.95.68,1.97,1.87,2.49,3.18,2.04,3.04-1.05,5.34-7.13,6.46-15.26,1.05-7.38,3.51-21.25,4.96-27.49.34-1.52,1.38-1.61,2.46-.79.58.53,1.13,1.34,1.44,2.24.45,1.31.72,3.22.47,5.58-.46,5.23-3.07,21.36-5.13,28.15-1.65,5.44-4.88,8.84-8.52,10.1-1.31.45-2.53.61-3.68.54Z"/><path d="m331.81,158.81c-.11-5.9,1.6-16.38,3.5-23.98-2.25.45-3.82-.61-4.48-1.38-.61-.79-.65-1.31.54-1.92,1.82-.9,3.36-2.23,4.92-3.71,1.46-1.37,2.92-2.55,4.82-3.61,3.83-2.06,7.41-1.17,11.26,2.04,1.41,1.18,2.71,3.4,3.44,5.48,3.33,9.6-1.87,25.22-13.45,34.18-.63.49-1.19.81-1.84,1.04-1.91.66-3.39.04-5.54-1.35-1.57-1.06-2.33-1.73-2.67-2.68-.35-1.01-.45-2.25-.49-4.1Zm7.92-26.25c.7,1.43.98,3.8.46,6.72-1.94,9.42-3.25,16.82-2.99,21.6.05.92.16,1.42.3,1.83.19.54.53.55,1.04.11,11.44-9.57,14.45-24.57,11.99-31.66-.5-1.43-1.11-2.42-1.85-3.03-.93-.75-1.94-.79-2.66-.55-1.85.64-4.66,3.69-6.28,4.98Z"/><path d="m364.72,116.62c.48-1.7,1.43-1.83,2.52-.81.5.49,1.03,1.24,1.36,2.2.56,1.61.71,4.36.13,7.7-1.4,7.7-3.99,21.61-4.92,32.22-.08,1.3-.62,1.68-1.94.94-.8-.39-1.65-1.3-2.17-2.79-.29-.83-.55-2.35-.57-3.94.29-9.18,3.2-27.15,5.58-35.52Z"/><path d="m370.85,145.28c-.11-5.9,1.6-16.38,3.5-23.98-2.25.45-3.82-.61-4.48-1.38-.61-.79-.65-1.31.54-1.92,1.82-.9,3.36-2.23,4.92-3.71,1.46-1.37,2.92-2.55,4.82-3.61,3.83-2.06,7.41-1.17,11.26,2.04,1.41,1.18,2.71,3.4,3.44,5.48,3.33,9.6-1.87,25.22-13.45,34.18-.63.49-1.19.81-1.84,1.04-1.91.66-3.39.04-5.54-1.35-1.57-1.06-2.33-1.73-2.67-2.68-.35-1.01-.45-2.25-.49-4.1Zm7.92-26.25c.7,1.43.98,3.8.46,6.72-1.94,9.42-3.25,16.82-2.99,21.6.05.92.16,1.42.3,1.83.19.54.53.55,1.04.11,11.44-9.57,14.45-24.57,11.99-31.66-.5-1.43-1.11-2.42-1.85-3.03-.93-.75-1.94-.79-2.66-.55-1.85.64-4.66,3.69-6.28,4.98Z"/><path d="m417.46,98.33c.48-1.7,1.43-1.83,2.52-.81.5.49,1.03,1.24,1.36,2.2.56,1.61.71,4.36.13,7.7-1.4,7.7-3.99,21.61-4.92,32.22-.08,1.3-.62,1.68-1.94.94-.8-.39-1.65-1.3-2.17-2.79-.29-.83-.55-2.35-.57-3.94.29-9.18,3.2-27.15,5.58-35.52Z"/><path d="m428.15,129.54c-.23-5.46,1.6-19.65,4.03-29.57-.85.43-1.65.84-2.48,1.13-3.87,1.34-6.91.86-8.37-1.24-.45-.71-.09-1.24.74-1.52,5.19-1.8,14.16-6.71,17.62-7.91,2.74-.95,5.49-1.1,7.25,1.09.55.61.56,1.41-.86,1.77-2.67.59-5.94,2.33-8.97,3.98.8,2.12.27,6.18-.74,11.54-1.16,6.68-2.7,16.09-3.45,25.1-.1,1.24-.8,1.55-1.92,1-1.18-.52-1.87-1.35-2.39-2.84-.25-.71-.44-1.65-.47-2.51Z"/><path d="m447.86,122.44c1.07-.37,2.53-.01,3.64,1.07,1.19,1.32,1.29,3.16.97,4.34-.56,1.46-2.95,1.89-4.6.59-.67-.57-1.25-1.3-1.46-1.9-.54-1.55.02-3.61,1.45-4.11Zm4.25-36.06c.4-1.54,1.31-1.99,2.46-.79.53.55,1.09,1.22,1.4,2.12.58,1.67.79,4.2.19,7.68-1.21,6.9-2.96,17.85-3.68,25.38-.16,1.26-.56,1.66-1.92,1-.88-.43-1.69-1.22-2.19-2.65-.29-.83-.51-2.23-.45-3.98.13-7.12,1.96-20.71,4.18-28.76Z"/></g></svg>